<?xml version='1.0' encoding='UTF-8' ?>
<!-- MADE BY SVG.HS -->
<!DOCTYPE svg PUBLIC "-//W3C//DTD SVG 1.1//EN" "http://www.w3.org/Graphics/SVG/1.1/DTD/svg11.dtd">
<svg xmlns="http://www.w3.org/2000/svg" version="1.1"
     xmlns:xlink="http://www.w3.org/1999/xlink" width="245.0"
     height="135.0"
  ><rect x="0.0" y="0.0" width="245.0" height="135.0"
         stroke-width="0.0" fill="rgb(255,255,255)"
         stroke="rgb(255,255,255)"
  /><polyline points="37.99999999999991,4.999999999999979 34.90613519793848,5.545531839267676 31.954003763844938,6.620019808919338 29.233304717493617,8.190816135714245 26.82670512266776,10.21019296812403 24.807328290257995,12.616792562949904 23.236531963463108,15.337491609301235 22.16204399381147,18.289623043394787 21.616512154543795,21.383487845456212 21.616512154543805,24.525080499046005 22.162043993811498,27.618945301107427 23.236531963463154,30.571076735200972 24.807328290258056,33.291775781552296 26.826705122667835,35.69837537637816 29.233304717493706,37.71775220878793 31.954003763845037,39.28854853558282 34.90613519793859,40.36303650523446 38.000000000000014,40.90856834450214 41.141592653589804,40.908568344502136 44.23545745565123,40.36303650523445 47.187588889744774,39.2885485355828 49.9082879360961,37.7177522087879 52.314887530921965,35.698375376378124 54.33426436333174,33.29177578155226 55.90506069012664,30.571076735200936 56.97954865977829,27.618945301107388 57.52508049904597,24.525080499045963 57.52508049904597,21.38348784545617 56.97954865977829,18.289623043394744 55.90506069012664,15.337491609301196 54.33426436333174,12.61679256294987 52.314887530921965,10.210192968124005 49.9082879360961,8.190816135714229 47.187588889744774,6.6200198089193325 44.23545745565122,5.545531839267683 41.1415926535898,5.0 38.0,5.0 "
              fill="black" stroke="black" stroke-width="0.0"
  /><polyline points="20.000000000000032,44.999999999999815 26.283185307179615,55.88279618540513 30.58113718578621,67.69132192177932 32.763264542856945,80.06678113002502 32.763264542856945,92.6331517443842 30.58113718578621,105.0086109526299 26.283185307179615,116.81713668900409 20.00000000000003,127.6999328744094 60.00000000000003,127.6999328744094 53.716814692820435,116.81713668900409 49.41886281421384,105.0086109526299 47.2367354571431,92.6331517443842 47.23673545714309,80.06678113002502 49.418862814213824,67.69132192177932 53.716814692820414,55.88279618540513 60.0,44.999999999999815 20.0,45.0 "
              fill="black" stroke="black" stroke-width="0.0"
  /><line x1="38.0" y1="21.0" x2="38.0" y2="17.0"
          stroke="rgb(0,255,0)" stroke-width="2.0" stroke-linecap="round"
  /><line x1="38.0" y1="29.0" x2="38.0" y2="25.0"
          stroke="rgb(0,255,0)" stroke-width="2.0" stroke-linecap="round"
  /><line x1="48.0" y1="15.0" x2="44.0" y2="15.0"
          stroke="rgb(0,255,0)" stroke-width="2.0" stroke-linecap="round"
  /><line x1="48.0" y1="23.0" x2="44.0" y2="23.0"
          stroke="rgb(0,255,0)" stroke-width="2.0" stroke-linecap="round"
  /><line x1="48.0" y1="31.0" x2="44.0" y2="31.0"
          stroke="rgb(0,255,0)" stroke-width="2.0" stroke-linecap="round"
  /><line x1="42.0" y1="21.0" x2="42.0" y2="17.0"
          stroke="rgb(0,255,0)" stroke-width="2.0" stroke-linecap="round"
  /><line x1="42.0" y1="29.0" x2="42.0" y2="25.0"
          stroke="rgb(0,255,0)" stroke-width="2.0" stroke-linecap="round"
  /><line x1="50.0" y1="29.0" x2="50.0" y2="25.0"
          stroke="rgb(0,255,0)" stroke-width="2.0" stroke-linecap="round"
  /><polyline points="107.99999999999991,4.999999999999979 104.9061351979385,5.545531839267676 101.95400376384495,6.620019808919338 99.23330471749364,8.190816135714245 96.82670512266778,10.21019296812403 94.80732829025801,12.616792562949904 93.23653196346312,15.337491609301235 92.16204399381148,18.289623043394787 91.61651215454381,21.383487845456212 91.61651215454383,24.525080499046005 92.16204399381152,27.618945301107427 93.23653196346318,30.571076735200972 94.80732829025808,33.291775781552296 96.82670512266786,35.69837537637816 99.23330471749372,37.71775220878793 101.95400376384505,39.28854853558282 104.9061351979386,40.36303650523446 108.00000000000001,40.90856834450214 111.14159265358981,40.908568344502136 114.23545745565123,40.36303650523445 117.18758888974477,39.2885485355828 119.9082879360961,37.7177522087879 122.31488753092196,35.698375376378124 124.33426436333174,33.29177578155226 125.90506069012663,30.571076735200936 126.97954865977827,27.618945301107388 127.52508049904596,24.525080499045963 127.52508049904596,21.38348784545617 126.97954865977827,18.289623043394744 125.90506069012662,15.337491609301196 124.33426436333173,12.61679256294987 122.31488753092195,10.210192968124005 119.90828793609609,8.190816135714229 117.18758888974476,6.6200198089193325 114.23545745565121,5.545531839267683 111.1415926535898,5.0 108.0,5.0 "
              fill="black" stroke="black" stroke-width="0.0"
  /><polyline points="90.0,44.99999999999983 90.0,128.99999999999983 130.0,128.99999999999983 130.0,44.999999999999815 90.0,45.0 "
              fill="black" stroke="black" stroke-width="0.0"
  /><line x1="106.0" y1="15.0" x2="102.0" y2="15.0"
          stroke="rgb(0,255,0)" stroke-width="2.0" stroke-linecap="round"
  /><line x1="106.0" y1="23.0" x2="102.0" y2="23.0"
          stroke="rgb(0,255,0)" stroke-width="2.0" stroke-linecap="round"
  /><line x1="106.0" y1="31.0" x2="102.0" y2="31.0"
          stroke="rgb(0,255,0)" stroke-width="2.0" stroke-linecap="round"
  /><line x1="108.0" y1="21.0" x2="108.0" y2="17.0"
          stroke="rgb(0,255,0)" stroke-width="2.0" stroke-linecap="round"
  /><line x1="100.0" y1="29.0" x2="100.0" y2="25.0"
          stroke="rgb(0,255,0)" stroke-width="2.0" stroke-linecap="round"
  /><line x1="118.0" y1="15.0" x2="114.0" y2="15.0"
          stroke="rgb(0,255,0)" stroke-width="2.0" stroke-linecap="round"
  /><line x1="118.0" y1="23.0" x2="114.0" y2="23.0"
          stroke="rgb(0,255,0)" stroke-width="2.0" stroke-linecap="round"
  /><line x1="118.0" y1="31.0" x2="114.0" y2="31.0"
          stroke="rgb(0,255,0)" stroke-width="2.0" stroke-linecap="round"
  /><line x1="120.0" y1="21.0" x2="120.0" y2="17.0"
          stroke="rgb(0,255,0)" stroke-width="2.0" stroke-linecap="round"
  /><line x1="120.0" y1="29.0" x2="120.0" y2="25.0"
          stroke="rgb(0,255,0)" stroke-width="2.0" stroke-linecap="round"
  /><polyline points="187.9999999999999,4.999999999999979 184.90613519793845,5.545531839267676 181.95400376384492,6.620019808919338 179.2333047174936,8.190816135714245 176.82670512266776,10.21019296812403 174.807328290258,12.616792562949904 173.2365319634631,15.337491609301235 172.16204399381147,18.289623043394787 171.61651215454378,21.383487845456212 171.61651215454378,24.525080499046005 172.16204399381147,27.618945301107427 173.2365319634631,30.571076735200972 174.807328290258,33.291775781552296 176.8267051226678,35.69837537637816 179.23330471749367,37.71775220878793 181.954003763845,39.28854853558282 184.90613519793857,40.36303650523446 188.0,40.90856834450214 191.14159265358978,40.908568344502136 194.23545745565121,40.36303650523445 197.18758888974477,39.2885485355828 199.9082879360961,37.7177522087879 202.31488753092196,35.698375376378124 204.33426436333173,33.29177578155226 205.90506069012662,30.571076735200936 206.97954865977826,27.618945301107388 207.52508049904594,24.525080499045963 207.52508049904594,21.38348784545617 206.97954865977826,18.289623043394744 205.90506069012662,15.337491609301196 204.33426436333173,12.61679256294987 202.31488753092196,10.210192968124005 199.9082879360961,8.190816135714229 197.18758888974477,6.6200198089193325 194.23545745565121,5.545531839267683 191.14159265358978,5.0 188.0,5.0 "
              fill="black" stroke="black" stroke-width="0.0"
  /><polyline points="170.0,44.99999999999982 163.7168146928204,55.88279618540513 159.4188628142138,67.69132192177932 157.23673545714308,80.06678113002502 157.23673545714308,92.6331517443842 159.4188628142138,105.0086109526299 163.7168146928204,116.81713668900409 170.0,127.6999328744094 210.0,127.6999328744094 216.2831853071796,116.81713668900409 220.5811371857862,105.0086109526299 222.76326454285692,92.6331517443842 222.76326454285692,80.06678113002502 220.5811371857862,67.69132192177932 216.2831853071796,55.88279618540512 210.0,44.999999999999815 170.0,45.0 "
              fill="black" stroke="black" stroke-width="0.0"
  /><line x1="186.0" y1="15.0" x2="182.0" y2="15.0"
          stroke="rgb(0,255,0)" stroke-width="2.0" stroke-linecap="round"
  /><line x1="186.0" y1="23.0" x2="182.0" y2="23.0"
          stroke="rgb(0,255,0)" stroke-width="2.0" stroke-linecap="round"
  /><line x1="186.0" y1="31.0" x2="182.0" y2="31.0"
          stroke="rgb(0,255,0)" stroke-width="2.0" stroke-linecap="round"
  /><line x1="188.0" y1="21.0" x2="188.0" y2="17.0"
          stroke="rgb(0,255,0)" stroke-width="2.0" stroke-linecap="round"
  /><line x1="188.0" y1="29.0" x2="188.0" y2="25.0"
          stroke="rgb(0,255,0)" stroke-width="2.0" stroke-linecap="round"
  /><line x1="198.0" y1="15.0" x2="194.0" y2="15.0"
          stroke="rgb(0,255,0)" stroke-width="2.0" stroke-linecap="round"
  /><line x1="198.0" y1="31.0" x2="194.0" y2="31.0"
          stroke="rgb(0,255,0)" stroke-width="2.0" stroke-linecap="round"
  /><line x1="192.0" y1="21.0" x2="192.0" y2="17.0"
          stroke="rgb(0,255,0)" stroke-width="2.0" stroke-linecap="round"
  /><line x1="200.0" y1="21.0" x2="200.0" y2="17.0"
          stroke="rgb(0,255,0)" stroke-width="2.0" stroke-linecap="round"
  /><line x1="192.0" y1="29.0" x2="192.0" y2="25.0"
          stroke="rgb(0,255,0)" stroke-width="2.0" stroke-linecap="round"
  /><line x1="200.0" y1="29.0" x2="200.0" y2="25.0"
          stroke="rgb(0,255,0)" stroke-width="2.0"
          stroke-linecap="round"/></svg>