<?xml version='1.0' encoding='UTF-8' ?>
<!-- MADE BY SVG.HS -->
<!DOCTYPE svg PUBLIC "-//W3C//DTD SVG 1.1//EN" "http://www.w3.org/Graphics/SVG/1.1/DTD/svg11.dtd">
<svg xmlns="http://www.w3.org/2000/svg" version="1.1"
     xmlns:xlink="http://www.w3.org/1999/xlink" width="205.0"
     height="135.0"
  ><rect x="0.0" y="0.0" width="205.0" height="135.0"
         stroke-width="0.0" fill="rgb(255,255,255)"
         stroke="rgb(255,255,255)"
  /><polyline points="70.0,20.0 70.0,52.0 86.0,52.0 86.0,20.0 70.0,20.0 "
              fill="black" stroke="black" stroke-width="0.0"
  /><polyline points="90.0,20.000000000000007 90.0,52.00000000000001 122.0,52.0 122.0,20.0 90.0,20.0 "
              fill="black" stroke="black" stroke-width="0.0"
  /><polyline points="126.0,20.0 126.0,36.0 142.0,36.0 142.0,20.0 126.0,20.0 "
              fill="black" stroke="black" stroke-width="0.0"
  /><line x1="72.62741699796952" y1="62.37258300203048" x2="50.0"
          y2="85.0" stroke="black" stroke-width="4.0" stroke-linecap="round"
  /><line x1="72.62741699796952" y1="62.372583002030474"
          x2="70.55686463714935" y2="70.09998961234302" stroke="black"
          stroke-width="4.0" stroke-linecap="round"
  /><line x1="64.90001038765698" y1="64.44313536285064"
          x2="72.62741699796952" y2="62.372583002030474" stroke="black"
          stroke-width="4.0" stroke-linecap="round"
  /><polyline points="24.999999999999993,90.0 25.0,122.0 41.0,122.0 41.0,90.0 25.0,90.0 "
              fill="black" stroke="black" stroke-width="0.0"
  /><line x1="115.0" y1="61.0" x2="115.0" y2="85.0" stroke="black"
          stroke-width="4.0" stroke-linecap="round"
  /><line x1="115.0" y1="61.00000000000001" x2="119.0"
          y2="67.92820323027551" stroke="black" stroke-width="4.0"
          stroke-linecap="round"
  /><line x1="111.0" y1="67.92820323027551" x2="115.0"
          y2="61.00000000000001" stroke="black" stroke-width="4.0"
          stroke-linecap="round"
  /><polyline points="100.0,90.0 100.0,122.0 132.0,122.0 132.0,90.0 100.0,90.0 "
              fill="black" stroke="black" stroke-width="0.0"
  /><line x1="157.3725830020305" y1="62.372583002030474" x2="180.0"
          y2="85.0" stroke="black" stroke-width="4.0" stroke-linecap="round"
  /><line x1="157.3725830020305" y1="62.372583002030474"
          x2="165.09998961234305" y2="64.44313536285064" stroke="black"
          stroke-width="4.0" stroke-linecap="round"
  /><line x1="159.44313536285065" y1="70.09998961234302"
          x2="157.3725830020305" y2="62.372583002030474" stroke="black"
          stroke-width="4.0" stroke-linecap="round"
  /><polyline points="187.0,92.0 187.0,108.0 203.0,108.0 203.0,92.0 187.0,92.0 "
              fill="black" stroke="black" stroke-width="0.0"/></svg>