<?xml version='1.0' encoding='UTF-8' ?>
<!-- MADE BY SVG.HS -->
<!DOCTYPE svg PUBLIC "-//W3C//DTD SVG 1.1//EN" "http://www.w3.org/Graphics/SVG/1.1/DTD/svg11.dtd">
<svg xmlns="http://www.w3.org/2000/svg" version="1.1"
     xmlns:xlink="http://www.w3.org/1999/xlink" width="330.0"
     height="210.0"
  ><rect x="0.0" y="0.0" width="330.0" height="210.0"
         stroke-width="0.0" fill="rgb(255,255,255)"
         stroke="rgb(255,255,255)"
  /><line x1="310.0" y1="190.0" x2="30.0" y2="190.0"
          stroke="rgb(0,0,0)" stroke-width="3.0" stroke-linecap="round"
  /><line x1="30.00000000000001" y1="10.0" x2="30.0" y2="190.0"
          stroke="rgb(0,0,0)" stroke-width="3.0" stroke-linecap="round"
  /><line x1="110.0" y1="180.0" x2="110.0" y2="190.0"
          stroke="rgb(0,0,0)" stroke-width="3.0" stroke-linecap="round"
  /><text x="105.0" y="210.0" font-family="KochiGothic"
          font-weight="normal" font-size="20.0" fill="rgb(0,0,0)"
  >8</text
  ><line x1="270.0" y1="180.0" x2="270.0" y2="190.0"
         stroke="rgb(0,0,0)" stroke-width="3.0" stroke-linecap="round"
  /><text x="260.0" y="210.0" font-family="KochiGothic"
          font-weight="normal" font-size="20.0" fill="rgb(0,0,0)"
  >24</text
  ><line x1="40.0" y1="140.0" x2="30.0" y2="140.0"
         stroke="rgb(0,0,0)" stroke-width="3.0" stroke-linecap="round"
  /><text x="15.0" y="147.0" font-family="KochiGothic"
          font-weight="normal" font-size="20.0" fill="rgb(0,0,0)"
  >5</text
  ><line x1="40.0" y1="40.0" x2="30.0" y2="40.0" stroke="rgb(0,0,0)"
         stroke-width="3.0" stroke-linecap="round"
  /><text x="5.0" y="47.0" font-family="KochiGothic"
          font-weight="normal" font-size="20.0" fill="rgb(0,0,0)"
  >15</text
  ><line x1="110.0" y1="140.0" x2="30.0" y2="190.0"
         stroke="rgb(0,0,0)" stroke-width="3.0" stroke-linecap="round"
  /><line x1="270.0" y1="40.0" x2="110.0" y2="140.0" stroke="gray"
          stroke-width="3.0" stroke-linecap="round"
  /><rect x="268.0" y="40.0" width="3.0" height="3.0"
          stroke-width="0.0" fill="black" stroke="black"
  /><rect x="190.0" y="88.0" width="3.0" height="3.0"
          stroke-width="0.0" fill="black" stroke="black"
  /><line x1="110.0" y1="140.0" x2="110.0" y2="190.0" stroke="gray"
          stroke-width="1.0" stroke-linecap="round"
  /><line x1="30.0" y1="140.0" x2="110.0" y2="140.0" stroke="gray"
          stroke-width="1.0" stroke-linecap="round"
  /><line x1="270.0" y1="40.0" x2="270.0" y2="190.0" stroke="gray"
          stroke-width="1.0" stroke-linecap="round"
  /><line x1="30.0" y1="40.0" x2="270.0" y2="40.0" stroke="gray"
          stroke-width="1.0" stroke-linecap="round"/></svg>
