<?xml version='1.0' encoding='UTF-8' ?>
<!-- MADE BY SVG.HS -->
<!DOCTYPE svg PUBLIC "-//W3C//DTD SVG 1.1//EN" "http://www.w3.org/Graphics/SVG/1.1/DTD/svg11.dtd">
<svg xmlns="http://www.w3.org/2000/svg" version="1.1"
     xmlns:xlink="http://www.w3.org/1999/xlink" width="220.0"
     height="85.0"
  ><rect x="0.0" y="0.0" width="220.0" height="85.0"
         stroke-width="0.0" fill="rgb(255,255,255)"
         stroke="rgb(255,255,255)"
  /><polyline points="27.999999999999996,29.0 28.0,45.0 44.0,45.0 44.0,29.0 28.0,29.0 "
              fill="black" stroke="black" stroke-width="0.0"
  /><polyline points="28.0,13.0 28.000000000000007,29.0 52.00000000000001,28.999999999999993 52.0,12.999999999999995 28.0,13.0 "
              fill="black" stroke="black" stroke-width="0.0"
  /><polyline points="52.0,37.0 76.0,37.0 76.0,29.0 68.0,29.0 68.0,13.000000000000002 76.0,13.0 76.0,5.0 52.0,5.0 "
              fill="black" stroke="black" stroke-width="0.0"
  /><polyline points="19.999999999999993,45.000000000000014 20.0,77.00000000000001 84.0,77.0 84.0,45.0 20.0,45.0 "
              fill="black" stroke="black" stroke-width="0.0"
  /><polyline points="77.99999999999999,11.158929983027974 77.99999999999999,15.158929983027974 69.99999999999999,15.158929983027974 69.99999999999999,27.158929983027974 77.99999999999999,27.158929983027974 77.99999999999999,32.758929983027976 101.99999999999999,32.758929983027976 100.02130978447175,31.616532654449866 98.2710555336893,30.14789495815185 96.80241783739129,28.3976407073694 95.66002050881319,26.418950491841162 94.8785747127029,24.271945812500398 94.48182428414458,22.02186232009209 94.48182428414458,19.73706766293588 94.8785747127029,17.48698417052757 95.66002050881319,15.339979491186808 96.8024178373913,13.36128927565857 98.27105553368932,11.611035024876124 100.02130978447177,10.142397328578106 102.0,9.0 78.0,9.0 "
              fill="black" stroke="black" stroke-width="0.0"
  /><polyline points="149.99999999999997,8.999999999999995 147.93742346529237,9.363687892845126 145.96933584256334,10.080013205946234 144.15553647832914,11.127210757142839 142.55113674844523,12.473461978749361 141.20488552683872,14.077861708633277 140.15768797564212,15.891661072867498 139.44136266254102,17.859748695596533 139.0776747696959,19.92232523030415 139.0776747696959,22.016720332697346 139.44136266254102,24.079296867404963 140.15768797564212,26.047384490133993 141.20488552683872,27.861183854368207 142.55113674844523,29.465583584252116 144.15553647832914,30.811834805858627 145.96933584256337,31.85903235705522 147.9374234652924,32.575357670156315 150.0,32.939045563001436 152.0943951023932,32.939045563001436 154.1569716371008,32.57535767015631 156.12505925982984,31.85903235705521 157.93885862406407,30.81183480585861 159.54325835394798,29.46558358425209 160.88950957555448,27.86118385436818 161.9367071267511,26.04738449013396 162.65303243985218,24.079296867404928 163.0167203326973,22.01672033269731 163.0167203326973,19.922325230304114 162.65303243985218,17.859748695596497 161.9367071267511,15.891661072867466 160.88950957555448,14.077861708633248 159.54325835394798,12.473461978749338 157.93885862406407,11.127210757142821 156.12505925982984,10.080013205946223 154.1569716371008,9.363687892845123 152.0943951023932,9.0 150.0,9.0 "
              fill="black" stroke="black" stroke-width="0.0"/></svg>