<?xml version='1.0' encoding='UTF-8' ?>
<!-- MADE BY SVG.HS -->
<!DOCTYPE svg PUBLIC "-//W3C//DTD SVG 1.1//EN" "http://www.w3.org/Graphics/SVG/1.1/DTD/svg11.dtd">
<svg xmlns="http://www.w3.org/2000/svg" version="1.1"
     xmlns:xlink="http://www.w3.org/1999/xlink" width="205.0"
     height="205.0"
  ><rect x="0.0" y="0.0" width="205.0" height="205.0"
         stroke-width="0.0" fill="rgb(255,255,255)"
         stroke="rgb(255,255,255)"
  /><polyline points="59.99999999999999,5.000000000000014 60.0,45.000000000000014 200.0,45.0 200.0,5.0 60.0,5.0 "
              fill="black" stroke="black" stroke-width="0.0"
  /><polyline points="26.000000000000014,119.0 25.999999999999964,27.0 59.999999999999964,26.99999999999998 59.99999999999996,14.999999999999977 13.999999999999954,15.0 14.00000000000001,147.0 26.00000000000001,147.0 26.000000000000007,131.0 42.00000000000001,131.0 42.0,119.0 14.0,119.0 "
              fill="black" stroke="black" stroke-width="0.0"
  /><polyline points="84.58172179978631,96.0972584770992 85.94980237308897,99.85602896024284 88.32969837467468,100.2756688366026 90.60056870859279,101.10219804402695 92.69341412886304,102.31050291079225 94.5446445864214,103.86386970495361 96.09801138058276,105.71510016251197 97.30631624734806,107.80794558278222 98.13284545477241,110.07881591670034 98.55248533113216,112.45871191828604 98.55248533113216,114.87532165181665 98.13284545477241,117.25521765340235 97.30631624734806,119.52608798732047 96.09801138058276,121.61893340759072 94.5446445864214,123.47016386514908 95.91272515972408,127.22893434829271 118.46534805858587,119.02045090847666 106.1526228988618,85.19151656018396 83.6,93.4 "
              fill="black" stroke="black" stroke-width="0.0"
  /><polyline points="100.0,111.0 152.0,111.0 152.0,45.0 140.0,45.0 140.0,99.0 100.0,99.0 "
              fill="black" stroke="black" stroke-width="0.0"
  /><polyline points="90.16054769946265,133.5767730003723 96.16054769946265,143.96907784578556 87.36054769946266,143.96907784578556 85.13785102532596,156.57461708434184 108.77323709761895,160.74217334834816 113.63538607229299,133.16755626400632 90.0,129.0 "
              fill="black" stroke="black" stroke-width="0.0"
  /><polyline points="108.0,153.0 184.0,153.0 184.0,45.0 172.0,45.0 172.0,141.0 112.0,141.0 "
              fill="black" stroke="black" stroke-width="0.0"
  /><polyline points="19.999999999999993,165.0 20.0,197.0 84.0,197.0 84.0,165.0 20.0,165.0 "
              fill="black" stroke="black" stroke-width="0.0"
  /><polyline points="28.0,149.0 28.000000000000007,165.0 44.00000000000001,165.0 44.0,149.0 28.0,149.0 "
              fill="black" stroke="black" stroke-width="0.0"
  /><polyline points="27.999999999999968,133.00000000000003 28.000000000000007,149.00000000000003 52.00000000000001,149.0 52.0,133.0 28.0,133.0 "
              fill="black" stroke="black" stroke-width="0.0"
  /><polyline points="52.0,159.98604394259982 76.0,159.98604394259982 76.0,151.98604394259982 76.0,143.98604394259982 68.0,143.98604394259982 76.0,130.1296374820488 76.0,126.12963748204879 73.90715457972975,124.92133261528349 72.05592412217139,123.36796582112213 70.50255732801003,121.51673536356377 69.29425246124472,119.42388994329352 68.46772325382038,117.1530196093754 68.04808337746063,114.7731236077897 68.04808337746063,112.3565138742591 68.46772325382038,109.97661787267339 69.29425246124472,107.70574753875528 70.50255732801003,105.61290211848502 72.05592412217139,103.76167166092667 73.90715457972975,102.2083048667653 76.0,101.0 76.0,93.0 52.0,93.0 "
              fill="black" stroke="black" stroke-width="0.0"
  /><polyline points="81.99999999999996,101.99999999999999 79.93742346529234,102.36368789284512 77.96933584256331,103.08001320594623 76.1555364783291,104.12721075714283 74.55113674844519,105.47346197874936 73.20488552683868,107.07786170863326 72.15768797564209,108.89166107286749 71.441362662541,110.85974869559652 71.07767476969588,112.92232523030414 71.07767476969588,115.01672033269733 71.441362662541,117.07929686740495 72.1576879756421,119.04738449013398 73.20488552683871,120.86118385436819 74.55113674844523,122.4655835842521 76.15553647832914,123.81183480585861 77.96933584256335,124.8590323570552 79.93742346529238,125.5753576701563 82.0,125.93904556300141 84.0943951023932,125.93904556300141 86.15697163710081,125.5753576701563 88.12505925982984,124.8590323570552 89.93885862406405,123.8118348058586 91.54325835394796,122.46558358425207 92.88950957555448,120.86118385436816 93.93670712675109,119.04738449013395 94.65303243985218,117.07929686740492 95.0167203326973,115.0167203326973 95.0167203326973,112.92232523030411 94.65303243985218,110.8597486955965 93.93670712675109,108.89166107286746 92.88950957555448,107.07786170863325 91.54325835394796,105.47346197874934 89.93885862406405,104.12721075714282 88.12505925982984,103.08001320594622 86.15697163710081,102.36368789284512 84.0943951023932,102.0 82.0,102.0 "
              fill="black" stroke="black" stroke-width="0.0"
  /><polyline points="82.0,124.00000000000001 92.4,142.01332839871634 71.60000000000001,142.01332839871634 82.0,124.0 "
              fill="black" stroke="black" stroke-width="0.0"/></svg>