<?xml version='1.0' encoding='UTF-8' ?>
<!-- MADE BY SVG.HS -->
<!DOCTYPE svg PUBLIC "-//W3C//DTD SVG 1.1//EN" "http://www.w3.org/Graphics/SVG/1.1/DTD/svg11.dtd">
<svg xmlns="http://www.w3.org/2000/svg" version="1.1"
     xmlns:xlink="http://www.w3.org/1999/xlink" width="345.0"
     height="200.0"
  ><rect x="0.0" y="0.0" width="345.0" height="200.0"
         stroke-width="0.0" fill="rgb(255,255,255)"
         stroke="rgb(255,255,255)"
  /><polyline points="22.999999999999993,23.000000000000007 23.0,53.00000000000001 63.0,53.0 63.0,23.0 23.0,23.0 "
              fill="rgb(0,0,0)" stroke="rgb(0,0,0)" stroke-width="0.0"
  /><polyline points="29.0,7.0000000000000036 29.000000000000007,23.000000000000004 37.00000000000001,23.0 37.0,6.999999999999998 29.0,7.0 "
              fill="rgb(0,0,0)" stroke="rgb(0,0,0)" stroke-width="0.0"
  /><polyline points="57.014213562373094,24.4142135623731 57.014213562373094,14.414213562373098 58.41421356237309,14.414213562373098 71.14213562373095,27.14213562373095 76.79898987322333,21.48528137423857 62.65685424949238,7.34314575050762 54.65685424949238,7.34314575050762 49.0,13.0 49.0,23.0 "
              fill="rgb(0,0,0)" stroke="rgb(0,0,0)" stroke-width="0.0"
  /><polyline points="19.99999999999999,124.0 20.0,184.0 100.0,184.0 100.0,124.0 20.0,124.0 "
              fill="black" stroke="black" stroke-width="0.0"
  /><polyline points="31.999999999999993,92.0 32.00000000000001,124.0 48.00000000000001,124.0 48.0,92.0 32.0,92.0 "
              fill="black" stroke="black" stroke-width="0.0"
  /><polyline points="88.0284271247462,126.8284271247462 88.0284271247462,106.8284271247462 90.8284271247462,106.8284271247462 116.28427124746192,132.2842712474619 127.59797974644667,120.97056274847714 99.31370849898477,92.68629150101523 83.31370849898477,92.68629150101523 72.0,104.0 72.0,124.0 "
              fill="black" stroke="black" stroke-width="0.0"
  /><line x1="147.79898987322332" y1="151.79898987322332" x2="128.0"
          y2="132.0" stroke="black" stroke-width="4.0" stroke-linecap="round"
  /><line x1="147.79898987322332" y1="151.79898987322332"
          x2="140.07158326291076" y2="149.72843751240316" stroke="black"
          stroke-width="4.0" stroke-linecap="round"
  /><line x1="145.72843751240316" y1="144.07158326291076"
          x2="147.79898987322332" y2="151.79898987322332" stroke="black"
          stroke-width="4.0" stroke-linecap="round"
  /><line x1="40.0" y1="88.0" x2="40.0" y2="60.0" stroke="black"
          stroke-width="4.0" stroke-linecap="round"
  /><line x1="40.0" y1="88.0" x2="36.0" y2="81.07179676972449"
          stroke="black" stroke-width="4.0" stroke-linecap="round"
  /><line x1="44.0" y1="81.07179676972449" x2="40.0" y2="88.0"
          stroke="black" stroke-width="4.0" stroke-linecap="round"
  /><polyline points="36.0,134.0 36.0,141.5 46.0,141.5 46.0,134.0 36.0,134.0 "
              fill="red" stroke="red" stroke-width="0.0"
  /><polyline points="37.5,130.0 37.5,134.0 39.5,134.0 39.5,130.0 37.5,130.0 "
              fill="red" stroke="red" stroke-width="0.0"
  /><polyline points="44.503553390593275,134.35355339059328 44.503553390593275,131.85355339059328 44.85355339059328,131.85355339059328 48.03553390593274,135.03553390593274 49.44974746830583,133.62132034355963 45.91421356237309,130.0857864376269 43.91421356237309,130.0857864376269 42.5,131.5 42.5,134.0 "
              fill="red" stroke="red" stroke-width="0.0"
  /><polyline points="76.0,134.0 76.0,141.5 86.0,141.5 86.0,134.0 76.0,134.0 "
              fill="red" stroke="red" stroke-width="0.0"
  /><polyline points="77.5,130.0 77.5,134.0 79.5,134.0 79.5,130.0 77.5,130.0 "
              fill="red" stroke="red" stroke-width="0.0"
  /><polyline points="84.50355339059328,134.35355339059328 84.50355339059328,131.85355339059328 84.85355339059328,131.85355339059328 88.03553390593274,135.03553390593274 89.44974746830583,133.62132034355963 85.91421356237309,130.0857864376269 83.91421356237309,130.0857864376269 82.5,131.5 82.5,134.0 "
              fill="red" stroke="red" stroke-width="0.0"
  /><polyline points="183.9999999999999,19.999999999999975 181.24989795372306,20.484917190460152 178.62578112341768,21.440017607928297 176.2073819711054,22.83628100952377 174.0681823312602,24.63128263833247 172.27318070245153,26.77048227817769 170.87691730085606,29.18888143048998 169.92181688338795,31.81299826079536 169.4368996929278,34.56310030707218 169.4368996929278,37.35562711026311 169.92181688338798,40.10572915653993 170.87691730085612,42.729845986845305 172.27318070245158,45.148245139157595 174.0681823312603,47.287444779002804 176.20738197110552,49.08244640781149 178.62578112341782,50.47870980940695 181.2498979537232,51.43381022687508 184.00000000000003,51.91872741733524 186.79252680319095,51.918727417335234 189.54262884946777,51.43381022687507 192.16674567977316,50.47870980940693 194.58514483208543,49.08244640781146 196.72434447193064,47.28744477900277 198.5193461007393,45.14824513915755 199.91560950233477,42.72984598684526 200.87070991980292,40.10572915653989 201.35562711026307,37.355627110263065 201.35562711026307,34.56310030707214 200.87070991980292,31.81299826079532 199.91560950233477,29.188881430489946 198.5193461007393,26.770482278177656 196.72434447193064,24.631282638332443 194.58514483208543,22.836281009523756 192.16674567977313,21.440017607928294 189.54262884946775,20.484917190460163 186.79252680319092,20.0 184.0,20.0 "
              fill="black" stroke="black" stroke-width="0.0"
  /><polyline points="165.0,124.0 165.0,184.0 245.0,184.0 245.0,124.0 165.0,124.0 "
              fill="black" stroke="black" stroke-width="0.0"
  /><polyline points="177.0,92.0 177.0,124.0 193.0,124.0 193.0,92.0 177.0,92.0 "
              fill="black" stroke="black" stroke-width="0.0"
  /><polyline points="233.02842712474617,126.8284271247462 233.02842712474617,106.8284271247462 235.82842712474618,106.8284271247462 261.2842712474619,132.2842712474619 272.59797974644664,120.97056274847714 244.31370849898477,92.68629150101523 228.31370849898477,92.68629150101523 217.0,104.0 217.0,124.0 "
              fill="black" stroke="black" stroke-width="0.0"
  /><line x1="292.7989898732233" y1="151.79898987322332" x2="273.0"
          y2="132.0" stroke="black" stroke-width="4.0" stroke-linecap="round"
  /><line x1="292.7989898732233" y1="151.79898987322332"
          x2="285.0715832629108" y2="149.72843751240316" stroke="black"
          stroke-width="4.0" stroke-linecap="round"
  /><line x1="290.72843751240316" y1="144.07158326291076"
          x2="292.7989898732233" y2="151.79898987322332" stroke="black"
          stroke-width="4.0" stroke-linecap="round"
  /><line x1="185.0" y1="88.0" x2="185.0" y2="60.0" stroke="black"
          stroke-width="4.0" stroke-linecap="round"
  /><line x1="185.0" y1="88.0" x2="181.0" y2="81.07179676972449"
          stroke="black" stroke-width="4.0" stroke-linecap="round"
  /><line x1="189.0" y1="81.07179676972449" x2="185.0" y2="88.0"
          stroke="black" stroke-width="4.0" stroke-linecap="round"
  /><polyline points="185.0,131.99999999999997 184.3124744884308,132.121229297615 183.65644528085446,132.36000440198202 183.05184549277638,132.70907025238088 182.5170455828151,133.15782065958305 182.06829517561292,133.69262056954435 181.71922932521406,134.29722035762242 181.48045422084704,134.95324956519877 181.359224923232,135.640775076768 181.359224923232,136.33890677756574 181.48045422084704,137.02643228913493 181.71922932521406,137.68246149671128 182.06829517561292,138.28706128478936 182.5170455828151,138.82186119475065 183.05184549277638,139.27061160195282 183.65644528085446,139.61967745235168 184.3124744884308,139.8584525567187 185.0,139.97968185433373 185.69813170079775,139.97968185433373 186.38565721236694,139.8584525567187 187.0416864199433,139.61967745235168 187.64628620802137,139.27061160195282 188.18108611798266,138.82186119475065 188.62983652518483,138.28706128478936 188.9789023755837,137.68246149671128 189.2176774799507,137.02643228913493 189.33890677756574,136.33890677756574 189.33890677756574,135.640775076768 189.2176774799507,134.9532495651988 188.9789023755837,134.29722035762245 188.62983652518483,133.69262056954437 188.18108611798266,133.15782065958308 187.64628620802137,132.7090702523809 187.0416864199433,132.36000440198205 186.38565721236694,132.12122929761503 185.69813170079775,132.0 185.0,132.0 "
              fill="red" stroke="red" stroke-width="0.0"
  /><polyline points="225.0,132.0 221.0,138.9282032302755 229.0,138.9282032302755 225.0,132.0 "
              fill="red" stroke="red" stroke-width="0.0"
  /><polyline points="311.0,155.0 295.0,182.71281292110203 327.0,182.71281292110203 311.0,155.0 "
              fill="black" stroke="black" stroke-width="0.0"/></svg>