<?xml version='1.0' encoding='UTF-8' ?>
<!-- MADE BY SVG.HS -->
<!DOCTYPE svg PUBLIC "-//W3C//DTD SVG 1.1//EN" "http://www.w3.org/Graphics/SVG/1.1/DTD/svg11.dtd">
<svg xmlns="http://www.w3.org/2000/svg" version="1.1"
     xmlns:xlink="http://www.w3.org/1999/xlink" width="330.0"
     height="190.0"
  ><rect x="0.0" y="0.0" width="330.0" height="190.0"
         stroke-width="0.0" fill="rgb(255,255,255)"
         stroke="rgb(255,255,255)"
  /><polyline points="17.999999999999993,23.000000000000007 18.0,53.00000000000001 58.0,53.0 58.0,23.0 18.0,23.0 "
              fill="rgb(0,0,0)" stroke="rgb(0,0,0)" stroke-width="0.0"
  /><polyline points="24.0,7.0000000000000036 24.000000000000007,23.000000000000004 32.00000000000001,23.0 32.0,6.999999999999998 24.0,7.0 "
              fill="rgb(0,0,0)" stroke="rgb(0,0,0)" stroke-width="0.0"
  /><polyline points="52.014213562373094,24.4142135623731 52.014213562373094,14.414213562373098 53.41421356237309,14.414213562373098 66.14213562373095,27.14213562373095 71.79898987322333,21.48528137423857 57.65685424949238,7.34314575050762 49.65685424949238,7.34314575050762 44.0,13.0 44.0,23.0 "
              fill="rgb(0,0,0)" stroke="rgb(0,0,0)" stroke-width="0.0"
  /><polyline points="14.99999999999999,122.0 15.0,182.0 95.0,182.0 95.0,122.0 15.0,122.0 "
              fill="black" stroke="black" stroke-width="0.0"
  /><polyline points="26.999999999999993,90.0 27.000000000000007,122.0 43.00000000000001,122.0 43.0,90.0 27.0,90.0 "
              fill="black" stroke="black" stroke-width="0.0"
  /><polyline points="83.0284271247462,124.8284271247462 83.0284271247462,104.8284271247462 85.8284271247462,104.8284271247462 111.28427124746192,130.2842712474619 122.59797974644667,118.97056274847714 94.31370849898477,90.68629150101523 78.31370849898477,90.68629150101523 67.0,102.0 67.0,122.0 "
              fill="black" stroke="black" stroke-width="0.0"
  /><line x1="142.79898987322332" y1="149.79898987322332" x2="123.0"
          y2="130.0" stroke="black" stroke-width="4.0" stroke-linecap="round"
  /><line x1="142.79898987322332" y1="149.79898987322332"
          x2="135.07158326291076" y2="147.72843751240316" stroke="black"
          stroke-width="4.0" stroke-linecap="round"
  /><line x1="140.72843751240316" y1="142.07158326291076"
          x2="142.79898987322332" y2="149.79898987322332" stroke="black"
          stroke-width="4.0" stroke-linecap="round"
  /><line x1="35.0" y1="86.0" x2="35.0" y2="58.0" stroke="black"
          stroke-width="4.0" stroke-linecap="round"
  /><line x1="35.0" y1="86.0" x2="31.0" y2="79.07179676972449"
          stroke="black" stroke-width="4.0" stroke-linecap="round"
  /><line x1="39.0" y1="79.07179676972449" x2="35.0" y2="86.0"
          stroke="black" stroke-width="4.0" stroke-linecap="round"
  /><polyline points="31.0,132.0 31.0,139.5 41.0,139.5 41.0,132.0 31.0,132.0 "
              fill="red" stroke="red" stroke-width="0.0"
  /><polyline points="32.5,128.0 32.5,132.0 34.5,132.0 34.5,128.0 32.5,128.0 "
              fill="red" stroke="red" stroke-width="0.0"
  /><polyline points="39.503553390593275,132.35355339059328 39.503553390593275,129.85355339059328 39.85355339059328,129.85355339059328 43.03553390593274,133.03553390593274 44.44974746830583,131.62132034355963 40.91421356237309,128.0857864376269 38.91421356237309,128.0857864376269 37.5,129.5 37.5,132.0 "
              fill="red" stroke="red" stroke-width="0.0"
  /><polyline points="71.0,132.0 71.0,139.5 81.0,139.5 81.0,132.0 71.0,132.0 "
              fill="red" stroke="red" stroke-width="0.0"
  /><polyline points="72.5,128.0 72.5,132.0 74.5,132.0 74.5,128.0 72.5,128.0 "
              fill="red" stroke="red" stroke-width="0.0"
  /><polyline points="79.50355339059328,132.35355339059328 79.50355339059328,129.85355339059328 79.85355339059328,129.85355339059328 83.03553390593274,133.03553390593274 84.44974746830583,131.62132034355963 80.91421356237309,128.0857864376269 78.91421356237309,128.0857864376269 77.5,129.5 77.5,132.0 "
              fill="red" stroke="red" stroke-width="0.0"
  /><polyline points="183.9999999999999,19.999999999999975 181.24989795372306,20.484917190460152 178.62578112341768,21.440017607928297 176.2073819711054,22.83628100952377 174.0681823312602,24.63128263833247 172.27318070245153,26.77048227817769 170.87691730085606,29.18888143048998 169.92181688338795,31.81299826079536 169.4368996929278,34.56310030707218 169.4368996929278,37.35562711026311 169.92181688338798,40.10572915653993 170.87691730085612,42.729845986845305 172.27318070245158,45.148245139157595 174.0681823312603,47.287444779002804 176.20738197110552,49.08244640781149 178.62578112341782,50.47870980940695 181.2498979537232,51.43381022687508 184.00000000000003,51.91872741733524 186.79252680319095,51.918727417335234 189.54262884946777,51.43381022687507 192.16674567977316,50.47870980940693 194.58514483208543,49.08244640781146 196.72434447193064,47.28744477900277 198.5193461007393,45.14824513915755 199.91560950233477,42.72984598684526 200.87070991980292,40.10572915653989 201.35562711026307,37.355627110263065 201.35562711026307,34.56310030707214 200.87070991980292,31.81299826079532 199.91560950233477,29.188881430489946 198.5193461007393,26.770482278177656 196.72434447193064,24.631282638332443 194.58514483208543,22.836281009523756 192.16674567977313,21.440017607928294 189.54262884946775,20.484917190460163 186.79252680319092,20.0 184.0,20.0 "
              fill="black" stroke="black" stroke-width="0.0"
  /><polyline points="165.0,122.0 165.0,182.0 245.0,182.0 245.0,122.0 165.0,122.0 "
              fill="black" stroke="black" stroke-width="0.0"
  /><polyline points="177.0,90.0 177.0,122.0 193.0,122.0 193.0,90.0 177.0,90.0 "
              fill="black" stroke="black" stroke-width="0.0"
  /><polyline points="233.02842712474617,124.8284271247462 233.02842712474617,104.8284271247462 235.82842712474618,104.8284271247462 261.2842712474619,130.2842712474619 272.59797974644664,118.97056274847714 244.31370849898477,90.68629150101523 228.31370849898477,90.68629150101523 217.0,102.0 217.0,122.0 "
              fill="black" stroke="black" stroke-width="0.0"
  /><line x1="292.7989898732233" y1="149.79898987322332" x2="273.0"
          y2="130.0" stroke="black" stroke-width="4.0" stroke-linecap="round"
  /><line x1="292.7989898732233" y1="149.79898987322332"
          x2="285.0715832629108" y2="147.72843751240316" stroke="black"
          stroke-width="4.0" stroke-linecap="round"
  /><line x1="290.72843751240316" y1="142.07158326291076"
          x2="292.7989898732233" y2="149.79898987322332" stroke="black"
          stroke-width="4.0" stroke-linecap="round"
  /><line x1="185.0" y1="86.0" x2="185.0" y2="58.0" stroke="black"
          stroke-width="4.0" stroke-linecap="round"
  /><line x1="185.0" y1="86.0" x2="181.0" y2="79.07179676972449"
          stroke="black" stroke-width="4.0" stroke-linecap="round"
  /><line x1="189.0" y1="79.07179676972449" x2="185.0" y2="86.0"
          stroke="black" stroke-width="4.0" stroke-linecap="round"
  /><polyline points="185.0,129.99999999999997 184.3124744884308,130.121229297615 183.65644528085446,130.36000440198202 183.05184549277638,130.70907025238088 182.5170455828151,131.15782065958305 182.06829517561292,131.69262056954435 181.71922932521406,132.29722035762242 181.48045422084704,132.95324956519877 181.359224923232,133.640775076768 181.359224923232,134.33890677756574 181.48045422084704,135.02643228913493 181.71922932521406,135.68246149671128 182.06829517561292,136.28706128478936 182.5170455828151,136.82186119475065 183.05184549277638,137.27061160195282 183.65644528085446,137.61967745235168 184.3124744884308,137.8584525567187 185.0,137.97968185433373 185.69813170079775,137.97968185433373 186.38565721236694,137.8584525567187 187.0416864199433,137.61967745235168 187.64628620802137,137.27061160195282 188.18108611798266,136.82186119475065 188.62983652518483,136.28706128478936 188.9789023755837,135.68246149671128 189.2176774799507,135.02643228913493 189.33890677756574,134.33890677756574 189.33890677756574,133.640775076768 189.2176774799507,132.9532495651988 188.9789023755837,132.29722035762245 188.62983652518483,131.69262056954437 188.18108611798266,131.15782065958308 187.64628620802137,130.7090702523809 187.0416864199433,130.36000440198205 186.38565721236694,130.12122929761503 185.69813170079775,130.0 185.0,130.0 "
              fill="red" stroke="red" stroke-width="0.0"
  /><polyline points="225.0,130.0 221.0,136.9282032302755 229.0,136.9282032302755 225.0,130.0 "
              fill="red" stroke="red" stroke-width="0.0"
  /><polyline points="310.0,155.0 294.0,182.71281292110203 326.0,182.71281292110203 310.0,155.0 "
              fill="black" stroke="black" stroke-width="0.0"/></svg>