<?xml version='1.0' encoding='UTF-8' ?>
<!-- MADE BY SVG.HS -->
<!DOCTYPE svg PUBLIC "-//W3C//DTD SVG 1.1//EN" "http://www.w3.org/Graphics/SVG/1.1/DTD/svg11.dtd">
<svg xmlns="http://www.w3.org/2000/svg" version="1.1"
     xmlns:xlink="http://www.w3.org/1999/xlink" width="330.0"
     height="175.0"
  ><rect x="0.0" y="0.0" width="330.0" height="175.0"
         stroke-width="0.0" fill="rgb(255,255,255)"
         stroke="rgb(255,255,255)"
  /><polyline points="33.999999999999915,4.999999999999992 31.249897953723096,5.484917190460168 28.625781123417724,6.440017607928311 26.207381971105438,7.836281009523785 24.068182331260232,9.631282638332483 22.27318070245155,11.770482278177703 20.876917300856096,14.188881430489998 19.921816883387972,16.81299826079538 19.436899692927817,19.5631003070722 19.436899692927824,22.35562711026313 19.921816883387994,25.105729156539947 20.87691730085613,27.729845986845323 22.2731807024516,30.14824513915761 24.068182331260296,32.28744477900282 26.207381971105512,34.0824464078115 28.625781123417806,35.478709809406965 31.249897953723185,36.433810226875096 34.00000000000001,36.918727417335255 36.79252680319093,36.91872741733525 39.542628849467754,36.43381022687508 42.16674567977313,35.47870980940694 44.58514483208542,34.082446407811474 46.72434447193063,32.28744477900278 48.51934610073932,30.148245139157567 49.91560950233478,27.729845986845277 50.87070991980291,25.1057291565399 51.35562711026308,22.35562711026308 51.35562711026308,19.56310030707215 50.87070991980291,16.81299826079533 49.91560950233478,14.188881430489952 48.51934610073932,11.770482278177662 46.72434447193063,9.631282638332449 44.58514483208541,7.83628100952376 42.16674567977312,6.440017607928296 39.54262884946775,5.4849171904601635 36.792526803190924,5.0 34.0,5.0 "
              fill="rgb(0,0,0)" stroke="rgb(0,0,0)" stroke-width="0.0"
  /><polyline points="14.99999999999999,107.0 15.0,167.0 95.0,167.0 95.0,107.0 15.0,107.0 "
              fill="rgb(0,0,0)" stroke="rgb(0,0,0)" stroke-width="0.0"
  /><polyline points="26.999999999999993,75.0 27.000000000000007,107.0 43.00000000000001,107.0 43.0,75.0 27.0,75.0 "
              fill="rgb(0,0,0)" stroke="rgb(0,0,0)" stroke-width="0.0"
  /><polyline points="83.0284271247462,109.8284271247462 83.0284271247462,89.8284271247462 85.8284271247462,89.8284271247462 111.28427124746192,115.2842712474619 122.59797974644667,103.97056274847714 94.31370849898477,75.68629150101523 78.31370849898477,75.68629150101523 67.0,87.0 67.0,107.0 "
              fill="rgb(0,0,0)" stroke="rgb(0,0,0)" stroke-width="0.0"
  /><line x1="142.79898987322332" y1="134.79898987322332" x2="123.0"
          y2="115.0" stroke="rgb(0,0,0)" stroke-width="4.0"
          stroke-linecap="round"
  /><line x1="142.79898987322332" y1="134.79898987322332"
          x2="135.07158326291076" y2="132.72843751240316" stroke="rgb(0,0,0)"
          stroke-width="4.0" stroke-linecap="round"
  /><line x1="140.72843751240316" y1="127.07158326291078"
          x2="142.79898987322332" y2="134.79898987322332" stroke="rgb(0,0,0)"
          stroke-width="4.0" stroke-linecap="round"
  /><line x1="35.0" y1="71.0" x2="35.0" y2="43.0" stroke="rgb(0,0,0)"
          stroke-width="4.0" stroke-linecap="round"
  /><line x1="35.0" y1="71.0" x2="31.0" y2="64.07179676972449"
          stroke="rgb(0,0,0)" stroke-width="4.0" stroke-linecap="round"
  /><line x1="39.0" y1="64.07179676972449" x2="35.0" y2="71.0"
          stroke="rgb(0,0,0)" stroke-width="4.0" stroke-linecap="round"
  /><polyline points="34.99999999999997,115.00000000000001 34.312474488430766,115.12122929761506 33.65644528085442,115.3600044019821 33.05184549277635,115.70907025238097 32.51704558281505,116.15782065958314 32.06829517561288,116.69262056954445 31.719229325214016,117.29722035762252 31.480454220846987,117.95324956519886 31.35922492323195,118.64077507676807 31.359224923231952,119.3389067775658 31.480454220846994,120.026432289135 31.71922932521403,120.68246149671134 32.068295175612896,121.28706128478942 32.51704558281507,121.82186119475072 33.05184549277638,122.2706116019529 33.656445280854456,122.61967745235175 34.3124744884308,122.85845255671879 35.00000000000001,122.97968185433383 35.69813170079774,122.97968185433383 36.385657212366944,122.85845255671879 37.04168641994329,122.61967745235175 37.64628620802136,122.27061160195288 38.18108611798266,121.82186119475071 38.62983652518483,121.2870612847894 38.978902375583694,120.68246149671133 39.21767747995073,120.02643228913499 39.33890677756577,119.33890677756578 39.33890677756577,118.64077507676805 39.21767747995073,117.95324956519885 38.978902375583694,117.2972203576225 38.62983652518483,116.69262056954443 38.18108611798266,116.15782065958312 37.64628620802136,115.70907025238095 37.04168641994328,115.36000440198208 36.38565721236694,115.12122929761505 35.69813170079773,115.0 35.0,115.0 "
              fill="red" stroke="red" stroke-width="0.0"
  /><polyline points="71.0,117.0 71.0,124.5 81.0,124.5 81.0,117.0 71.0,117.0 "
              fill="red" stroke="red" stroke-width="0.0"
  /><polyline points="72.5,113.0 72.5,117.0 74.5,117.0 74.5,113.0 72.5,113.0 "
              fill="red" stroke="red" stroke-width="0.0"
  /><polyline points="79.50355339059328,117.35355339059328 79.50355339059328,114.85355339059328 79.85355339059328,114.85355339059328 83.03553390593274,118.03553390593274 84.44974746830583,116.62132034355965 80.91421356237309,113.08578643762691 78.91421356237309,113.08578643762691 77.5,114.5 77.5,117.0 "
              fill="red" stroke="red" stroke-width="0.0"
  /><polyline points="186.0,9.000000000000007 170.0,36.71281292110204 202.0,36.712812921102035 186.0,9.0 "
              fill="black" stroke="black" stroke-width="0.0"
  /><polyline points="165.0,107.0 165.0,167.0 245.0,167.0 245.0,107.0 165.0,107.0 "
              fill="black" stroke="black" stroke-width="0.0"
  /><polyline points="177.0,75.0 177.0,107.0 193.0,107.0 193.0,75.0 177.0,75.0 "
              fill="black" stroke="black" stroke-width="0.0"
  /><polyline points="233.02842712474617,109.8284271247462 233.02842712474617,89.8284271247462 235.82842712474618,89.8284271247462 261.2842712474619,115.2842712474619 272.59797974644664,103.97056274847714 244.31370849898477,75.68629150101523 228.31370849898477,75.68629150101523 217.0,87.0 217.0,107.0 "
              fill="black" stroke="black" stroke-width="0.0"
  /><line x1="292.7989898732233" y1="134.79898987322332" x2="273.0"
          y2="115.0" stroke="black" stroke-width="4.0" stroke-linecap="round"
  /><line x1="292.7989898732233" y1="134.79898987322332"
          x2="285.0715832629108" y2="132.72843751240316" stroke="black"
          stroke-width="4.0" stroke-linecap="round"
  /><line x1="290.72843751240316" y1="127.07158326291078"
          x2="292.7989898732233" y2="134.79898987322332" stroke="black"
          stroke-width="4.0" stroke-linecap="round"
  /><line x1="185.0" y1="71.0" x2="185.0" y2="43.0" stroke="black"
          stroke-width="4.0" stroke-linecap="round"
  /><line x1="185.0" y1="71.0" x2="181.0" y2="64.07179676972449"
          stroke="black" stroke-width="4.0" stroke-linecap="round"
  /><line x1="189.0" y1="64.07179676972449" x2="185.0" y2="71.0"
          stroke="black" stroke-width="4.0" stroke-linecap="round"
  /><polyline points="185.0,115.0 181.0,121.92820323027551 189.0,121.92820323027551 185.0,115.0 "
              fill="red" stroke="red" stroke-width="0.0"
  /><polyline points="225.0,115.00000000000001 224.3124744884308,115.12122929761506 223.65644528085446,115.3600044019821 223.05184549277638,115.70907025238097 222.5170455828151,116.15782065958314 222.06829517561292,116.69262056954445 221.71922932521406,117.29722035762252 221.48045422084704,117.95324956519886 221.359224923232,118.64077507676807 221.359224923232,119.3389067775658 221.48045422084704,120.026432289135 221.71922932521406,120.68246149671134 222.06829517561292,121.28706128478942 222.5170455828151,121.82186119475072 223.05184549277638,122.2706116019529 223.65644528085446,122.61967745235175 224.3124744884308,122.85845255671879 225.0,122.97968185433383 225.69813170079775,122.97968185433383 226.38565721236694,122.85845255671879 227.0416864199433,122.61967745235175 227.64628620802137,122.27061160195288 228.18108611798266,121.82186119475071 228.62983652518483,121.2870612847894 228.9789023755837,120.68246149671133 229.2176774799507,120.02643228913499 229.33890677756574,119.33890677756578 229.33890677756574,118.64077507676805 229.2176774799507,117.95324956519885 228.9789023755837,117.2972203576225 228.62983652518483,116.69262056954443 228.18108611798266,116.15782065958312 227.64628620802137,115.70907025238095 227.0416864199433,115.36000440198208 226.38565721236694,115.12122929761505 225.69813170079775,115.0 225.0,115.0 "
              fill="red" stroke="red" stroke-width="0.0"
  /><polyline points="307.99999999999994,137.0 305.2498979537231,137.48491719046018 302.62578112341777,138.44001760792833 300.20738197110546,139.8362810095238 298.06818233126023,141.6312826383325 296.27318070245155,143.77048227817772 294.8769173008561,146.18888143049003 293.921816883388,148.8129982607954 293.4368996929278,151.56310030707223 293.4368996929278,154.35562711026316 293.921816883388,157.10572915653998 294.8769173008561,159.72984598684536 296.2731807024516,162.14824513915764 298.0681823312603,164.28744477900284 300.2073819711055,166.08244640781152 302.6257811234178,167.47870980940698 305.2498979537232,168.4338102268751 308.0,168.91872741733525 310.7925268031909,168.91872741733525 313.54262884946775,168.43381022687507 316.1667456797731,167.47870980940692 318.5851448320854,166.08244640781146 320.72434447193064,164.28744477900278 322.5193461007393,162.14824513915758 323.9156095023348,159.72984598684528 324.87070991980295,157.1057291565399 325.35562711026313,154.35562711026307 325.35562711026313,151.56310030707215 324.87070991980295,148.81299826079533 323.9156095023348,146.18888143048994 322.5193461007393,143.77048227817764 320.72434447193064,141.63128263833244 318.5851448320854,139.83628100952376 316.1667456797731,138.4400176079283 313.54262884946775,137.48491719046015 310.7925268031909,137.0 308.0,137.0 "
              fill="black" stroke="black" stroke-width="0.0"/></svg>