<?xml version='1.0' encoding='UTF-8' ?>
<!-- MADE BY SVG.HS -->
<!DOCTYPE svg PUBLIC "-//W3C//DTD SVG 1.1//EN" "http://www.w3.org/Graphics/SVG/1.1/DTD/svg11.dtd">
<svg xmlns="http://www.w3.org/2000/svg" version="1.1"
     xmlns:xlink="http://www.w3.org/1999/xlink" width="435.0"
     height="110.0"
  ><rect x="0.0" y="0.0" width="435.0" height="110.0"
         stroke-width="0.0" fill="rgb(255,255,255)"
         stroke="rgb(255,255,255)"
  /><polyline points="5.2865486837615325,19.551517166050182 13.000000000000007,10.358983848622449 33.0,45.0 "
              fill="rgb(0,0,0)" stroke="rgb(0,0,0)" stroke-width="0.0"
  /><polyline points="49.999999999999986,52.000000000000014 50.0,112.00000000000001 130.0,112.0 130.0,52.0 50.0,52.0 "
              fill="rgb(0,0,0)" stroke="rgb(0,0,0)" stroke-width="0.0"
  /><polyline points="62.0,20.000000000000007 62.000000000000014,52.00000000000001 78.00000000000001,52.0 78.0,19.999999999999996 62.0,20.0 "
              fill="rgb(0,0,0)" stroke="rgb(0,0,0)" stroke-width="0.0"
  /><polyline points="118.02842712474619,54.82842712474619 118.02842712474619,34.82842712474619 120.82842712474618,34.82842712474619 146.2842712474619,60.2842712474619 157.59797974644667,48.97056274847714 129.31370849898477,20.68629150101524 113.31370849898477,20.68629150101524 102.0,32.0 102.0,52.0 "
              fill="rgb(0,0,0)" stroke="rgb(0,0,0)" stroke-width="0.0"
  /><polyline points="69.99999999999999,59.99999999999999 69.31247448843078,60.12122929761504 68.65644528085444,60.360004401982074 68.05184549277637,60.70907025238094 67.51704558281506,61.157820659583116 67.06829517561289,61.692620569544424 66.71922932521403,62.2972203576225 66.480454220847,62.953249565198846 66.35922492323195,63.64077507676805 66.35922492323195,64.33890677756578 66.480454220847,65.02643228913499 66.71922932521403,65.68246149671133 67.0682951756129,66.2870612847894 67.51704558281507,66.82186119475071 68.05184549277638,67.27061160195288 68.65644528085446,67.61967745235174 69.3124744884308,67.85845255671877 70.0,67.97968185433382 70.69813170079773,67.97968185433382 71.38565721236694,67.85845255671877 72.04168641994328,67.61967745235174 72.64628620802135,67.27061160195287 73.18108611798266,66.8218611947507 73.62983652518483,66.28706128478939 73.9789023755837,65.68246149671131 74.21767747995074,65.02643228913497 74.33890677756578,64.33890677756577 74.33890677756578,63.64077507676804 74.21767747995074,62.95324956519883 73.9789023755837,62.297220357622486 73.62983652518483,61.69262056954441 73.18108611798266,61.15782065958311 72.64628620802135,60.70907025238094 72.04168641994328,60.360004401982074 71.38565721236694,60.12122929761504 70.69813170079773,60.0 70.0,60.0 "
              fill="red" stroke="red" stroke-width="0.0"
  /><polyline points="106.0,62.0 106.0,69.5 116.0,69.5 116.0,62.0 106.0,62.0 "
              fill="red" stroke="red" stroke-width="0.0"
  /><polyline points="107.5,58.0 107.5,62.0 109.5,62.0 109.5,58.0 107.5,58.0 "
              fill="red" stroke="red" stroke-width="0.0"
  /><polyline points="114.50355339059328,62.35355339059328 114.50355339059328,59.85355339059328 114.85355339059328,59.85355339059328 118.03553390593274,63.03553390593274 119.44974746830583,61.621320343559645 115.91421356237309,58.08578643762691 113.91421356237309,58.08578643762691 112.5,59.5 112.5,62.0 "
              fill="red" stroke="red" stroke-width="0.0"
  /><polyline points="150.28654868376154,19.551517166050182 158.0,10.358983848622449 178.0,45.0 "
              fill="black" stroke="black" stroke-width="0.0"
  /><line x1="265.0" y1="70.0" x2="205.0" y2="70.0" stroke="black"
          stroke-width="32.0" stroke-linecap="round"
  /><line x1="265.0" y1="70.0" x2="237.28718707889797" y2="86.0"
          stroke="black" stroke-width="32.0" stroke-linecap="round"
  /><line x1="237.28718707889797" y1="54.0" x2="265.0" y2="70.0"
          stroke="black" stroke-width="32.0" stroke-linecap="round"
  /><polyline points="352.9999999999998,29.99999999999997 346.8122703958769,31.091063678535367 340.90800752768985,33.24003961783869 335.4666094349872,36.38163227142851 330.6534102453355,40.420385936248074 326.614656580516,45.23358512589982 323.4730639269262,50.674983218602485 321.32408798762293,56.57924608678959 320.23302430908757,62.76697569091244 320.23302430908757,69.05016099809203 321.32408798762293,75.23789060221488 323.4730639269262,81.14215347040196 326.614656580516,86.5835515631046 330.6534102453356,91.39675075275633 335.46660943498733,95.43550441757587 340.90800752769,98.57709707116565 346.81227039587714,100.72607301046894 353.0,101.8171366890043 359.28318530717956,101.81713668900429 365.47091491130243,100.72607301046891 371.37517777948955,98.57709707116561 376.8165758721922,95.43550441757581 381.62977506184393,91.39675075275626 385.66852872666345,86.58355156310454 388.81012138025324,81.14215347040188 390.9590973195565,75.23789060221478 392.0501609980919,69.05016099809193 392.0501609980919,62.76697569091234 390.9590973195565,56.57924608678949 388.81012138025324,50.67498321860239 385.66852872666345,45.23358512589974 381.62977506184393,40.420385936248 376.8165758721922,36.38163227142845 371.37517777948955,33.24003961783866 365.47091491130243,31.091063678535367 359.28318530717956,30.0 353.0,30.0 "
              fill="black" stroke="black" stroke-width="0.0"
  /><polyline points="305.0,30.000000000000004 297.0,43.85640646055103 324.71281292110206,59.85640646055102 332.71281292110206,46.0 305.0,30.0 "
              fill="black" stroke="black" stroke-width="0.0"
  /><polyline points="305.0,110.0 297.0,96.14359353944897 324.71281292110206,80.14359353944899 332.71281292110206,94.0 305.0,110.0 "
              fill="black" stroke="black" stroke-width="0.0"
  /><polyline points="385.0,81.43558111343867 415.90962644125017,89.71779055671934 415.90962644125017,49.717790556719336 385.0,58.0 "
              fill="black" stroke="black" stroke-width="0.0"
  /><polyline points="333.0,52.0 332.3124744884308,52.121229297615045 331.6564452808544,52.36000440198208 331.05184549277635,52.70907025238095 330.51704558281506,53.15782065958312 330.0682951756129,53.69262056954443 329.71922932521403,54.29722035762251 329.480454220847,54.95324956519885 329.3592249232319,55.64077507676806 329.3592249232319,56.33890677756579 329.480454220847,57.026432289134995 329.71922932521403,57.68246149671134 330.0682951756129,58.28706128478941 330.51704558281506,58.82186119475071 331.05184549277635,59.27061160195288 331.6564452808544,59.619677452351745 332.3124744884308,59.858452556718774 333.0,59.97968185433381 333.6981317007977,59.97968185433381 334.38565721236694,59.85845255671877 335.0416864199433,59.61967745235173 335.64628620802137,59.270611601952865 336.18108611798266,58.821861194750696 336.6298365251848,58.287061284789395 336.9789023755837,57.68246149671132 337.21767747995074,57.02643228913497 337.3389067775658,56.33890677756577 337.3389067775658,55.64077507676804 337.21767747995074,54.95324956519883 336.9789023755837,54.297220357622486 336.6298365251848,53.69262056954441 336.18108611798266,53.15782065958311 335.64628620802137,52.70907025238094 335.0416864199433,52.360004401982074 334.38565721236694,52.12122929761504 333.6981317007977,52.0 333.0,52.0 "
              fill="red" stroke="red" stroke-width="0.0"
  /><polyline points="333.0,78.0 329.0,84.92820323027551 337.0,84.92820323027551 333.0,78.0 "
              fill="red" stroke="red" stroke-width="0.0"
  /><polyline points="377.5,66.5 377.5,73.5 384.5,73.5 384.5,66.5 377.5,66.5 "
              fill="red" stroke="red" stroke-width="0.0"/></svg>