<?xml version='1.0' encoding='UTF-8' ?>
<!-- MADE BY SVG.HS -->
<!DOCTYPE svg PUBLIC "-//W3C//DTD SVG 1.1//EN" "http://www.w3.org/Graphics/SVG/1.1/DTD/svg11.dtd">
<svg xmlns="http://www.w3.org/2000/svg" version="1.1"
     xmlns:xlink="http://www.w3.org/1999/xlink" width="475.0"
     height="190.0"
  ><rect x="0.0" y="0.0" width="475.0" height="190.0"
         stroke-width="0.0" fill="rgb(255,255,255)"
         stroke="rgb(255,255,255)"
  /><polyline points="12.999999999999995,23.000000000000007 13.0,53.00000000000001 53.0,53.0 53.0,23.0 13.0,23.0 "
              fill="rgb(0,0,0)" stroke="rgb(0,0,0)" stroke-width="0.0"
  /><polyline points="18.999999999999996,7.0000000000000036 19.000000000000004,23.000000000000004 27.000000000000004,23.0 27.0,6.999999999999998 19.0,7.0 "
              fill="rgb(0,0,0)" stroke="rgb(0,0,0)" stroke-width="0.0"
  /><polyline points="47.0142135623731,24.4142135623731 47.0142135623731,14.414213562373098 48.4142135623731,14.414213562373098 61.14213562373096,27.14213562373095 66.79898987322333,21.48528137423857 52.65685424949238,7.34314575050762 44.65685424949238,7.34314575050762 39.0,13.0 39.0,23.0 "
              fill="rgb(0,0,0)" stroke="rgb(0,0,0)" stroke-width="0.0"
  /><polyline points="9.99999999999999,122.0 10.0,182.0 90.0,182.0 90.0,122.0 10.0,122.0 "
              fill="black" stroke="black" stroke-width="0.0"
  /><polyline points="21.999999999999993,90.0 22.000000000000007,122.0 38.00000000000001,122.0 38.0,90.0 22.0,90.0 "
              fill="black" stroke="black" stroke-width="0.0"
  /><polyline points="78.0284271247462,124.8284271247462 78.0284271247462,104.8284271247462 80.8284271247462,104.8284271247462 106.28427124746192,130.2842712474619 117.59797974644667,118.97056274847714 89.31370849898477,90.68629150101523 73.31370849898477,90.68629150101523 62.0,102.0 62.0,122.0 "
              fill="black" stroke="black" stroke-width="0.0"
  /><line x1="137.79898987322332" y1="149.79898987322332" x2="118.0"
          y2="130.0" stroke="black" stroke-width="4.0" stroke-linecap="round"
  /><line x1="137.79898987322332" y1="149.79898987322332"
          x2="130.07158326291076" y2="147.72843751240316" stroke="black"
          stroke-width="4.0" stroke-linecap="round"
  /><line x1="135.72843751240316" y1="142.07158326291076"
          x2="137.79898987322332" y2="149.79898987322332" stroke="black"
          stroke-width="4.0" stroke-linecap="round"
  /><line x1="30.0" y1="86.0" x2="30.0" y2="58.0" stroke="black"
          stroke-width="4.0" stroke-linecap="round"
  /><line x1="30.0" y1="86.0" x2="26.0" y2="79.07179676972449"
          stroke="black" stroke-width="4.0" stroke-linecap="round"
  /><line x1="34.0" y1="79.07179676972449" x2="30.0" y2="86.0"
          stroke="black" stroke-width="4.0" stroke-linecap="round"
  /><polyline points="26.0,132.0 26.0,139.5 36.0,139.5 36.0,132.0 26.0,132.0 "
              fill="red" stroke="red" stroke-width="0.0"
  /><polyline points="27.5,128.0 27.5,132.0 29.5,132.0 29.5,128.0 27.5,128.0 "
              fill="red" stroke="red" stroke-width="0.0"
  /><polyline points="34.503553390593275,132.35355339059328 34.503553390593275,129.85355339059328 34.85355339059328,129.85355339059328 38.03553390593274,133.03553390593274 39.44974746830583,131.62132034355963 35.91421356237309,128.0857864376269 33.91421356237309,128.0857864376269 32.5,129.5 32.5,132.0 "
              fill="red" stroke="red" stroke-width="0.0"
  /><polyline points="66.0,132.0 66.0,139.5 76.0,139.5 76.0,132.0 66.0,132.0 "
              fill="red" stroke="red" stroke-width="0.0"
  /><polyline points="67.5,128.0 67.5,132.0 69.5,132.0 69.5,128.0 67.5,128.0 "
              fill="red" stroke="red" stroke-width="0.0"
  /><polyline points="74.50355339059328,132.35355339059328 74.50355339059328,129.85355339059328 74.85355339059328,129.85355339059328 78.03553390593274,133.03553390593274 79.44974746830583,131.62132034355963 75.91421356237309,128.0857864376269 73.91421356237309,128.0857864376269 72.5,129.5 72.5,132.0 "
              fill="red" stroke="red" stroke-width="0.0"
  /><polyline points="163.0,23.000000000000007 163.0,53.00000000000001 203.0,53.0 203.0,23.0 163.0,23.0 "
              fill="black" stroke="black" stroke-width="0.0"
  /><polyline points="169.0,7.0000000000000036 169.0,23.000000000000004 177.0,23.0 177.0,6.999999999999998 169.0,7.0 "
              fill="black" stroke="black" stroke-width="0.0"
  /><polyline points="197.0142135623731,24.4142135623731 197.0142135623731,14.414213562373098 198.4142135623731,14.414213562373098 211.14213562373095,27.14213562373095 216.79898987322332,21.48528137423857 202.65685424949237,7.34314575050762 194.65685424949237,7.34314575050762 189.0,13.0 189.0,23.0 "
              fill="black" stroke="black" stroke-width="0.0"
  /><polyline points="160.0,122.0 160.0,182.0 240.0,182.0 240.0,122.0 160.0,122.0 "
              fill="black" stroke="black" stroke-width="0.0"
  /><polyline points="172.0,90.0 172.0,122.0 188.0,122.0 188.0,90.0 172.0,90.0 "
              fill="black" stroke="black" stroke-width="0.0"
  /><polyline points="228.02842712474617,124.8284271247462 228.02842712474617,104.8284271247462 230.82842712474618,104.8284271247462 256.2842712474619,130.2842712474619 267.59797974644664,118.97056274847714 239.31370849898477,90.68629150101523 223.31370849898477,90.68629150101523 212.0,102.0 212.0,122.0 "
              fill="black" stroke="black" stroke-width="0.0"
  /><line x1="287.7989898732233" y1="149.79898987322332" x2="268.0"
          y2="130.0" stroke="black" stroke-width="4.0" stroke-linecap="round"
  /><line x1="287.7989898732233" y1="149.79898987322332"
          x2="280.0715832629108" y2="147.72843751240316" stroke="black"
          stroke-width="4.0" stroke-linecap="round"
  /><line x1="285.72843751240316" y1="142.07158326291076"
          x2="287.7989898732233" y2="149.79898987322332" stroke="black"
          stroke-width="4.0" stroke-linecap="round"
  /><line x1="180.0" y1="86.0" x2="180.0" y2="58.0" stroke="black"
          stroke-width="4.0" stroke-linecap="round"
  /><line x1="180.0" y1="86.0" x2="176.0" y2="79.07179676972449"
          stroke="black" stroke-width="4.0" stroke-linecap="round"
  /><line x1="184.0" y1="79.07179676972449" x2="180.0" y2="86.0"
          stroke="black" stroke-width="4.0" stroke-linecap="round"
  /><polyline points="176.0,132.0 176.0,139.5 186.0,139.5 186.0,132.0 176.0,132.0 "
              fill="red" stroke="red" stroke-width="0.0"
  /><polyline points="177.5,128.0 177.5,132.0 179.5,132.0 179.5,128.0 177.5,128.0 "
              fill="red" stroke="red" stroke-width="0.0"
  /><polyline points="184.50355339059328,132.35355339059328 184.50355339059328,129.85355339059328 184.85355339059328,129.85355339059328 188.03553390593274,133.03553390593274 189.44974746830584,131.62132034355963 185.9142135623731,128.0857864376269 183.9142135623731,128.0857864376269 182.5,129.5 182.5,132.0 "
              fill="red" stroke="red" stroke-width="0.0"
  /><polyline points="216.0,132.0 216.0,139.5 226.0,139.5 226.0,132.0 216.0,132.0 "
              fill="red" stroke="red" stroke-width="0.0"
  /><polyline points="217.5,128.0 217.5,132.0 219.5,132.0 219.5,128.0 217.5,128.0 "
              fill="red" stroke="red" stroke-width="0.0"
  /><polyline points="224.50355339059328,132.35355339059328 224.50355339059328,129.85355339059328 224.85355339059328,129.85355339059328 228.03553390593274,133.03553390593274 229.44974746830584,131.62132034355963 225.9142135623731,128.0857864376269 223.9142135623731,128.0857864376269 222.5,129.5 222.5,132.0 "
              fill="red" stroke="red" stroke-width="0.0"
  /><polyline points="328.99999999999994,19.999999999999975 326.2498979537231,20.484917190460152 323.62578112341777,21.440017607928297 321.20738197110546,22.83628100952377 319.06818233126023,24.63128263833247 317.27318070245155,26.77048227817769 315.8769173008561,29.18888143048998 314.921816883388,31.81299826079536 314.4368996929278,34.56310030707218 314.4368996929278,37.35562711026311 314.921816883388,40.10572915653993 315.8769173008561,42.729845986845305 317.2731807024516,45.148245139157595 319.0681823312603,47.287444779002804 321.2073819711055,49.08244640781149 323.6257811234178,50.47870980940695 326.2498979537232,51.43381022687508 329.0,51.91872741733524 331.7925268031909,51.918727417335234 334.54262884946775,51.43381022687507 337.1667456797731,50.47870980940693 339.5851448320854,49.08244640781146 341.72434447193064,47.28744477900277 343.5193461007393,45.14824513915755 344.9156095023348,42.72984598684526 345.87070991980295,40.10572915653989 346.35562711026313,37.355627110263065 346.35562711026313,34.56310030707214 345.87070991980295,31.81299826079532 344.9156095023348,29.188881430489946 343.5193461007393,26.770482278177656 341.72434447193064,24.631282638332443 339.5851448320854,22.836281009523756 337.1667456797731,21.440017607928294 334.54262884946775,20.484917190460163 331.7925268031909,20.0 329.0,20.0 "
              fill="black" stroke="black" stroke-width="0.0"
  /><polyline points="310.0,122.0 310.0,182.0 390.0,182.0 390.0,122.0 310.0,122.0 "
              fill="black" stroke="black" stroke-width="0.0"
  /><polyline points="322.0,90.0 322.0,122.0 338.0,122.0 338.0,90.0 322.0,90.0 "
              fill="black" stroke="black" stroke-width="0.0"
  /><polyline points="378.0284271247462,124.8284271247462 378.0284271247462,104.8284271247462 380.8284271247462,104.8284271247462 406.2842712474619,130.2842712474619 417.59797974644664,118.97056274847714 389.31370849898474,90.68629150101523 373.31370849898474,90.68629150101523 362.0,102.0 362.0,122.0 "
              fill="black" stroke="black" stroke-width="0.0"
  /><line x1="437.7989898732233" y1="149.79898987322332" x2="418.0"
          y2="130.0" stroke="black" stroke-width="4.0" stroke-linecap="round"
  /><line x1="437.7989898732233" y1="149.79898987322332"
          x2="430.0715832629108" y2="147.72843751240316" stroke="black"
          stroke-width="4.0" stroke-linecap="round"
  /><line x1="435.72843751240316" y1="142.07158326291076"
          x2="437.7989898732233" y2="149.79898987322332" stroke="black"
          stroke-width="4.0" stroke-linecap="round"
  /><line x1="330.0" y1="86.0" x2="330.0" y2="58.0" stroke="black"
          stroke-width="4.0" stroke-linecap="round"
  /><line x1="330.0" y1="86.0" x2="326.0" y2="79.07179676972449"
          stroke="black" stroke-width="4.0" stroke-linecap="round"
  /><line x1="334.0" y1="79.07179676972449" x2="330.0" y2="86.0"
          stroke="black" stroke-width="4.0" stroke-linecap="round"
  /><polyline points="330.0,129.99999999999997 329.3124744884308,130.121229297615 328.6564452808544,130.36000440198202 328.05184549277635,130.70907025238088 327.51704558281506,131.15782065958305 327.0682951756129,131.69262056954435 326.71922932521403,132.29722035762242 326.480454220847,132.95324956519877 326.3592249232319,133.640775076768 326.3592249232319,134.33890677756574 326.480454220847,135.02643228913493 326.71922932521403,135.68246149671128 327.0682951756129,136.28706128478936 327.51704558281506,136.82186119475065 328.05184549277635,137.27061160195282 328.6564452808544,137.61967745235168 329.3124744884308,137.8584525567187 330.0,137.97968185433373 330.6981317007977,137.97968185433373 331.38565721236694,137.8584525567187 332.0416864199433,137.61967745235168 332.64628620802137,137.27061160195282 333.18108611798266,136.82186119475065 333.6298365251848,136.28706128478936 333.9789023755837,135.68246149671128 334.21767747995074,135.02643228913493 334.3389067775658,134.33890677756574 334.3389067775658,133.640775076768 334.21767747995074,132.9532495651988 333.9789023755837,132.29722035762245 333.6298365251848,131.69262056954437 333.18108611798266,131.15782065958308 332.64628620802137,130.7090702523809 332.0416864199433,130.36000440198205 331.38565721236694,130.12122929761503 330.6981317007977,130.0 330.0,130.0 "
              fill="red" stroke="red" stroke-width="0.0"
  /><polyline points="366.5,130.5 366.5,137.5 373.5,137.5 373.5,130.5 366.5,130.5 "
              fill="red" stroke="red" stroke-width="0.0"
  /><polyline points="443.0,154.0 443.0,182.0 471.0,182.0 471.0,154.0 443.0,154.0 "
              fill="black" stroke="black" stroke-width="0.0"/></svg>