<?xml version='1.0' encoding='UTF-8' ?>
<!-- MADE BY SVG.HS -->
<!DOCTYPE svg PUBLIC "-//W3C//DTD SVG 1.1//EN" "http://www.w3.org/Graphics/SVG/1.1/DTD/svg11.dtd">
<svg xmlns="http://www.w3.org/2000/svg" version="1.1"
     xmlns:xlink="http://www.w3.org/1999/xlink" width="500.0"
     height="340.0"
  ><rect x="0.0" y="0.0" width="500.0" height="340.0"
         stroke-width="0.0" fill="rgb(255,255,255)"
         stroke="rgb(255,255,255)"
  /><line x1="45.0" y1="322.0" x2="45.0" y2="33.00000000000006"
          stroke="gray" stroke-width="1.0" stroke-linecap="round"
  /><line x1="50.0" y1="50.0" x2="45.0" y2="50.0" stroke="gray"
          stroke-width="1.0" stroke-linecap="round"
  /><text x="10.0" y="58.0" font-family="KochiGothic"
          font-weight="normal" font-size="15.0" fill="gray"
  >4.0</text
  ><line x1="50.0" y1="135.0" x2="45.0" y2="135.0" stroke="gray"
         stroke-width="1.0" stroke-linecap="round"
  /><text x="10.0" y="143.0" font-family="KochiGothic"
          font-weight="normal" font-size="15.0" fill="gray"
  >3.5</text
  ><line x1="50.0" y1="220.0" x2="45.0" y2="220.0" stroke="gray"
         stroke-width="1.0" stroke-linecap="round"
  /><text x="10.0" y="228.0" font-family="KochiGothic"
          font-weight="normal" font-size="15.0" fill="gray"
  >3.0</text
  ><line x1="50.0" y1="305.0" x2="45.0" y2="305.0" stroke="gray"
         stroke-width="1.0" stroke-linecap="round"
  /><text x="10.0" y="313.0" font-family="KochiGothic"
          font-weight="normal" font-size="15.0" fill="gray"
  >2.5</text
  ><line x1="440.0" y1="296.5" x2="80.0" y2="296.5" stroke="gray"
         stroke-width="1.0" stroke-linecap="round"
  /><line x1="80.0" y1="286.5" x2="80.0" y2="296.5" stroke="gray"
          stroke-width="1.0" stroke-linecap="round"
  /><text x="76.0" y="316.5" font-family="KochiGothic"
          font-weight="normal" font-size="15.0" fill="gray"
  >0</text
  ><line x1="260.0" y1="286.5" x2="260.0" y2="296.5" stroke="gray"
         stroke-width="1.0" stroke-linecap="round"
  /><text x="248.0" y="316.5" font-family="KochiGothic"
          font-weight="normal" font-size="15.0" fill="gray"
  >100</text
  ><line x1="440.0" y1="286.5" x2="440.0" y2="296.5" stroke="gray"
         stroke-width="1.0" stroke-linecap="round"
  /><text x="428.0" y="316.5" font-family="KochiGothic"
          font-weight="normal" font-size="15.0" fill="gray"
  >200</text
  ><line x1="98.0" y1="291.5" x2="98.0" y2="296.5" stroke="gray"
         stroke-width="1.0" stroke-linecap="round"
  /><line x1="116.0" y1="291.5" x2="116.0" y2="296.5" stroke="gray"
          stroke-width="1.0" stroke-linecap="round"
  /><line x1="134.0" y1="291.5" x2="134.0" y2="296.5" stroke="gray"
          stroke-width="1.0" stroke-linecap="round"
  /><line x1="152.0" y1="291.5" x2="152.0" y2="296.5" stroke="gray"
          stroke-width="1.0" stroke-linecap="round"
  /><line x1="170.0" y1="291.5" x2="170.0" y2="296.5" stroke="gray"
          stroke-width="1.0" stroke-linecap="round"
  /><line x1="188.0" y1="291.5" x2="188.0" y2="296.5" stroke="gray"
          stroke-width="1.0" stroke-linecap="round"
  /><line x1="206.0" y1="291.5" x2="206.0" y2="296.5" stroke="gray"
          stroke-width="1.0" stroke-linecap="round"
  /><line x1="224.0" y1="291.5" x2="224.0" y2="296.5" stroke="gray"
          stroke-width="1.0" stroke-linecap="round"
  /><line x1="242.0" y1="291.5" x2="242.0" y2="296.5" stroke="gray"
          stroke-width="1.0" stroke-linecap="round"
  /><line x1="278.0" y1="291.5" x2="278.0" y2="296.5" stroke="gray"
          stroke-width="1.0" stroke-linecap="round"
  /><line x1="296.0" y1="291.5" x2="296.0" y2="296.5" stroke="gray"
          stroke-width="1.0" stroke-linecap="round"
  /><line x1="314.0" y1="291.5" x2="314.0" y2="296.5" stroke="gray"
          stroke-width="1.0" stroke-linecap="round"
  /><line x1="332.0" y1="291.5" x2="332.0" y2="296.5" stroke="gray"
          stroke-width="1.0" stroke-linecap="round"
  /><line x1="350.0" y1="291.5" x2="350.0" y2="296.5" stroke="gray"
          stroke-width="1.0" stroke-linecap="round"
  /><line x1="368.0" y1="291.5" x2="368.0" y2="296.5" stroke="gray"
          stroke-width="1.0" stroke-linecap="round"
  /><line x1="386.0" y1="291.5" x2="386.0" y2="296.5" stroke="gray"
          stroke-width="1.0" stroke-linecap="round"
  /><line x1="404.0" y1="291.5" x2="404.0" y2="296.5" stroke="gray"
          stroke-width="1.0" stroke-linecap="round"
  /><line x1="422.0" y1="291.5" x2="422.0" y2="296.5" stroke="gray"
          stroke-width="1.0" stroke-linecap="round"
  /><line x1="450.0" y1="195.92924888973516" x2="70.0"
          y2="195.92924888973516" stroke="gray" stroke-width="1.0"
          stroke-linecap="round"
  /><text x="460.0" y="200.92924888973516" font-family="KochiGothic"
          font-weight="normal" font-size="10.0" fill="gray"
  >π</text
  ><line x1="81.8" y1="276.66666666666663" x2="80.0" y2="50.0"
         stroke="black" stroke-width="1.0" stroke-linecap="round"
  /><line x1="83.6" y1="140.66666666666663" x2="81.8"
          y2="276.66666666666663" stroke="black" stroke-width="1.0"
          stroke-linecap="round"
  /><line x1="85.4" y1="237.80952380952374" x2="83.6"
          y2="140.66666666666663" stroke="black" stroke-width="1.0"
          stroke-linecap="round"
  /><line x1="87.2" y1="162.25396825396814" x2="85.4"
          y2="237.80952380952374" stroke="black" stroke-width="1.0"
          stroke-linecap="round"
  /><line x1="89.0" y1="224.07215007215" x2="87.2"
          y2="162.25396825396814" stroke="black" stroke-width="1.0"
          stroke-linecap="round"
  /><line x1="90.8" y1="171.76445776445763" x2="89.0"
          y2="224.07215007215" stroke="black" stroke-width="1.0"
          stroke-linecap="round"
  /><line x1="92.6" y1="217.09779109779097" x2="90.8"
          y2="171.76445776445763" stroke="black" stroke-width="1.0"
          stroke-linecap="round"
  /><line x1="94.4" y1="177.09779109779095" x2="92.6"
          y2="217.09779109779097" stroke="black" stroke-width="1.0"
          stroke-linecap="round"
  /><line x1="96.2" y1="212.88726478200144" x2="94.4"
          y2="177.09779109779095" stroke="black" stroke-width="1.0"
          stroke-linecap="round"
  /><line x1="98.0" y1="180.50631240104903" x2="96.2"
          y2="212.88726478200144" stroke="black" stroke-width="1.0"
          stroke-linecap="round"
  /><line x1="99.8" y1="210.07152979235337" x2="98.0"
          y2="180.50631240104903" stroke="black" stroke-width="1.0"
          stroke-linecap="round"
  /><line x1="101.6" y1="182.87152979235333" x2="99.8"
          y2="210.07152979235337" stroke="black" stroke-width="1.0"
          stroke-linecap="round"
  /><line x1="103.4" y1="208.0567149775385" x2="101.6"
          y2="182.87152979235333" stroke="black" stroke-width="1.0"
          stroke-linecap="round"
  /><line x1="105.2" y1="184.60843911546954" x2="103.4"
          y2="208.0567149775385" stroke="black" stroke-width="1.0"
          stroke-linecap="round"
  /><line x1="107.0" y1="206.54392298643728" x2="105.2"
          y2="184.60843911546954" stroke="black" stroke-width="1.0"
          stroke-linecap="round"
  /><line x1="108.8" y1="185.93786238037669" x2="107.0"
          y2="206.54392298643728" stroke="black" stroke-width="1.0"
          stroke-linecap="round"
  /><line x1="110.6" y1="205.3664338089481" x2="108.8"
          y2="185.93786238037669" stroke="black" stroke-width="1.0"
          stroke-linecap="round"
  /><line x1="112.4" y1="186.98805543056977" x2="110.6"
          y2="205.3664338089481" stroke="black" stroke-width="1.0"
          stroke-linecap="round"
  /><line x1="114.2" y1="204.42395286646723" x2="112.4"
          y2="186.98805543056977" stroke="black" stroke-width="1.0"
          stroke-linecap="round"
  /><line x1="116.0" y1="187.83858701280866" x2="114.2"
          y2="204.42395286646723" stroke="black" stroke-width="1.0"
          stroke-linecap="round"
  /><line x1="117.80000000000001" y1="203.6525405011808" x2="116.0"
          y2="187.83858701280866" stroke="black" stroke-width="1.0"
          stroke-linecap="round"
  /><line x1="119.6" y1="188.54142939006965" x2="117.80000000000001"
          y2="203.6525405011808" stroke="black" stroke-width="1.0"
          stroke-linecap="round"
  /><line x1="121.4" y1="203.00951449645265" x2="119.6"
          y2="188.54142939006965" stroke="black" stroke-width="1.0"
          stroke-linecap="round"
  /><line x1="123.2" y1="189.1319634760445" x2="121.4"
          y2="203.00951449645265" stroke="black" stroke-width="1.0"
          stroke-linecap="round"
  /><line x1="125.0" y1="202.46529680937783" x2="123.2"
          y2="189.1319634760445" stroke="black" stroke-width="1.0"
          stroke-linecap="round"
  /><line x1="126.80000000000001" y1="189.63510813013255" x2="125.0"
          y2="202.46529680937783" stroke="black" stroke-width="1.0"
          stroke-linecap="round"
  /><line x1="128.6" y1="201.99874449376892" x2="126.80000000000001"
          y2="189.63510813013255" stroke="black" stroke-width="1.0"
          stroke-linecap="round"
  /><line x1="130.4" y1="190.06891993236547" x2="128.6"
          y2="201.99874449376892" stroke="black" stroke-width="1.0"
          stroke-linecap="round"
  /><line x1="132.2" y1="201.59434366117898" x2="130.4"
          y2="190.06891993236547" stroke="black" stroke-width="1.0"
          stroke-linecap="round"
  /><line x1="134.0" y1="190.4468026775724" x2="132.2"
          y2="201.59434366117898" stroke="black" stroke-width="1.0"
          stroke-linecap="round"
  /><line x1="135.8" y1="201.24045347122316" x2="134.0"
          y2="190.4468026775724" stroke="black" stroke-width="1.0"
          stroke-linecap="round"
  /><line x1="137.6" y1="190.77891500968474" x2="135.8"
          y2="201.24045347122316" stroke="black" stroke-width="1.0"
          stroke-linecap="round"
  /><line x1="139.4" y1="200.92816874102806" x2="137.6"
          y2="190.77891500968474" stroke="black" stroke-width="1.0"
          stroke-linecap="round"
  /><line x1="141.2" y1="191.07309627726" x2="139.4"
          y2="200.92816874102806" stroke="black" stroke-width="1.0"
          stroke-linecap="round"
  /><line x1="143.0" y1="200.65056106599235" x2="141.2"
          y2="191.07309627726" stroke="black" stroke-width="1.0"
          stroke-linecap="round"
  /><line x1="144.8" y1="191.3354925728417" x2="143.0"
          y2="200.65056106599235" stroke="black" stroke-width="1.0"
          stroke-linecap="round"
  /><line x1="146.60000000000002" y1="200.40215923950836" x2="144.8"
          y2="191.3354925728417" stroke="black" stroke-width="1.0"
          stroke-linecap="round"
  /><line x1="148.4" y1="191.57099040833953" x2="146.60000000000002"
          y2="200.40215923950836" stroke="black" stroke-width="1.0"
          stroke-linecap="round"
  /><line x1="150.2" y1="200.17858534504836" x2="148.4"
          y2="191.57099040833953" stroke="black" stroke-width="1.0"
          stroke-linecap="round"
  /><line x1="152.0" y1="191.78352361665333" x2="150.2"
          y2="200.17858534504836" stroke="black" stroke-width="1.0"
          stroke-linecap="round"
  /><line x1="153.8" y1="199.9762947009907" x2="152.0"
          y2="191.78352361665333" stroke="black" stroke-width="1.0"
          stroke-linecap="round"
  /><line x1="155.60000000000002" y1="191.97629470099074" x2="153.8"
          y2="199.9762947009907" stroke="black" stroke-width="1.0"
          stroke-linecap="round"
  /><line x1="157.4" y1="199.79238665501373" x2="155.60000000000002"
          y2="191.97629470099074" stroke="black" stroke-width="1.0"
          stroke-linecap="round"
  /><line x1="159.2" y1="192.15193721681146" x2="157.4"
          y2="199.79238665501373" stroke="black" stroke-width="1.0"
          stroke-linecap="round"
  /><line x1="161.0" y1="199.6244646893389" x2="159.2"
          y2="192.15193721681146" stroke="black" stroke-width="1.0"
          stroke-linecap="round"
  /><line x1="162.8" y1="192.31263673234966" x2="161.0"
          y2="199.6244646893389" stroke="black" stroke-width="1.0"
          stroke-linecap="round"
  /><line x1="164.60000000000002" y1="199.47053146919177" x2="162.8"
          y2="192.31263673234966" stroke="black" stroke-width="1.0"
          stroke-linecap="round"
  /><line x1="166.4" y1="192.4602221908413" x2="164.60000000000002"
          y2="199.47053146919177" stroke="black" stroke-width="1.0"
          stroke-linecap="round"
  /><line x1="168.2" y1="199.32890905952814" x2="166.4"
          y2="192.4602221908413" stroke="black" stroke-width="1.0"
          stroke-linecap="round"
  /><line x1="170.0" y1="192.59623579220138" x2="168.2"
          y2="199.32890905952814" stroke="black" stroke-width="1.0"
          stroke-linecap="round"
  /><line x1="171.8" y1="199.1981775397742" x2="170.0"
          y2="192.59623579220138" stroke="black" stroke-width="1.0"
          stroke-linecap="round"
  /><line x1="173.60000000000002" y1="192.72198706358375" x2="171.8"
          y2="199.1981775397742" stroke="black" stroke-width="1.0"
          stroke-linecap="round"
  /><line x1="175.4" y1="199.07712725049964" x2="173.60000000000002"
          y2="192.72198706358375" stroke="black" stroke-width="1.0"
          stroke-linecap="round"
  /><line x1="177.2" y1="192.83859514040793" x2="175.4"
          y2="199.07712725049964" stroke="black" stroke-width="1.0"
          stroke-linecap="round"
  /><line x1="179.0" y1="198.96472126653407" x2="177.2"
          y2="192.83859514040793" stroke="black" stroke-width="1.0"
          stroke-linecap="round"
  /><line x1="180.8" y1="192.94702215148982" x2="179.0"
          y2="198.96472126653407" stroke="black" stroke-width="1.0"
          stroke-linecap="round"
  /><line x1="182.60000000000002" y1="198.86006562975066" x2="180.8"
          y2="192.94702215148982" stroke="black" stroke-width="1.0"
          stroke-linecap="round"
  /><line x1="184.4" y1="193.04809981778487" x2="182.60000000000002"
          y2="198.86006562975066" stroke="black" stroke-width="1.0"
          stroke-linecap="round"
  /><line x1="186.2" y1="198.76238553207057" x2="184.4"
          y2="193.04809981778487" stroke="black" stroke-width="1.0"
          stroke-linecap="round"
  /><line x1="188.0" y1="193.14255082132678" x2="186.2"
          y2="198.76238553207057" stroke="black" stroke-width="1.0"
          stroke-linecap="round"
  /><line x1="189.8" y1="198.67100610587966" x2="188.0"
          y2="193.14255082132678" stroke="black" stroke-width="1.0"
          stroke-linecap="round"
  /><line x1="191.60000000000002" y1="193.23100610587966" x2="189.8"
          y2="198.67100610587966" stroke="black" stroke-width="1.0"
          stroke-linecap="round"
  /><line x1="193.4" y1="198.58533681454105" x2="191.60000000000002"
          y2="193.23100610587966" stroke="black" stroke-width="1.0"
          stroke-linecap="round"
  /><line x1="195.2" y1="193.3140189850837" x2="193.4"
          y2="198.58533681454105" stroke="black" stroke-width="1.0"
          stroke-linecap="round"
  /><line x1="197.0" y1="198.50485867974018" x2="195.2"
          y2="193.3140189850837" stroke="black" stroke-width="1.0"
          stroke-linecap="round"
  /><line x1="198.8" y1="193.39207672485298" x2="197.0"
          y2="198.50485867974018" stroke="black" stroke-width="1.0"
          stroke-linecap="round"
  /><line x1="200.60000000000002" y1="198.42911376189005" x2="198.8"
          y2="193.39207672485298" stroke="black" stroke-width="1.0"
          stroke-linecap="round"
  /><line x1="202.4" y1="193.465610112255" x2="200.60000000000002"
          y2="198.42911376189005" stroke="black" stroke-width="1.0"
          stroke-linecap="round"
  /><line x1="204.2" y1="198.35769644319024" x2="202.4"
          y2="193.465610112255" stroke="black" stroke-width="1.0"
          stroke-linecap="round"
  /><line x1="206.0" y1="193.53500140772923" x2="204.2"
          y2="198.35769644319024" stroke="black" stroke-width="1.0"
          stroke-linecap="round"
  /><line x1="207.8" y1="198.29024616297397" x2="206.0"
          y2="193.53500140772923" stroke="black" stroke-width="1.0"
          stroke-linecap="round"
  /><line x1="209.6" y1="193.60059099056016" x2="207.8"
          y2="198.29024616297397" stroke="black" stroke-width="1.0"
          stroke-linecap="round"
  /><line x1="211.4" y1="198.22644133069622" x2="209.6"
          y2="193.60059099056016" stroke="black" stroke-width="1.0"
          stroke-linecap="round"
  /><line x1="213.20000000000002" y1="193.6626829414345" x2="211.4"
          y2="198.22644133069622" stroke="black" stroke-width="1.0"
          stroke-linecap="round"
  /><line x1="215.0" y1="198.16599419971266" x2="213.20000000000002"
          y2="193.6626829414345" stroke="black" stroke-width="1.0"
          stroke-linecap="round"
  /><line x1="216.8" y1="193.72154975526823" x2="215.0"
          y2="198.16599419971266" stroke="black" stroke-width="1.0"
          stroke-linecap="round"
  /><line x1="218.6" y1="198.1086465294618" x2="216.8"
          y2="193.72154975526823" stroke="black" stroke-width="1.0"
          stroke-linecap="round"
  /><line x1="220.4" y1="193.777436338379" x2="218.6"
          y2="198.1086465294618" stroke="black" stroke-width="1.0"
          stroke-linecap="round"
  /><line x1="222.20000000000002" y1="198.05416589812742" x2="220.4"
          y2="193.777436338379" stroke="black" stroke-width="1.0"
          stroke-linecap="round"
  /><line x1="224.0" y1="193.83056341365537" x2="222.20000000000002"
          y2="198.05416589812742" stroke="black" stroke-width="1.0"
          stroke-linecap="round"
  /><line x1="225.8" y1="198.00234255475962" x2="224.0"
          y2="193.83056341365537" stroke="black" stroke-width="1.0"
          stroke-linecap="round"
  /><line x1="227.6" y1="193.88113043354747" x2="225.8"
          y2="198.00234255475962" stroke="black" stroke-width="1.0"
          stroke-linecap="round"
  /><line x1="229.4" y1="197.95298672097266" x2="227.6"
          y2="193.88113043354747" stroke="black" stroke-width="1.0"
          stroke-linecap="round"
  /><line x1="231.20000000000002" y1="193.9293180819194" x2="229.4"
          y2="197.95298672097266" stroke="black" stroke-width="1.0"
          stroke-linecap="round"
  /><line x1="233.0" y1="197.90592626905385" x2="231.20000000000002"
          y2="193.9293180819194" stroke="black" stroke-width="1.0"
          stroke-linecap="round"
  /><line x1="234.8" y1="193.97529043090353" x2="233.0"
          y2="197.90592626905385" stroke="black" stroke-width="1.0"
          stroke-linecap="round"
  /><line x1="236.6" y1="197.8610047166178" x2="234.8"
          y2="193.97529043090353" stroke="black" stroke-width="1.0"
          stroke-linecap="round"
  /><line x1="238.4" y1="194.01919680701332" x2="236.6"
          y2="197.8610047166178" stroke="black" stroke-width="1.0"
          stroke-linecap="round"
  /><line x1="240.20000000000002" y1="197.81807948857758" x2="238.4"
          y2="194.01919680701332" stroke="black" stroke-width="1.0"
          stroke-linecap="round"
  /><line x1="242.0" y1="194.06117341122953" x2="240.20000000000002"
          y2="197.81807948857758" stroke="black" stroke-width="1.0"
          stroke-linecap="round"
  /><line x1="243.8" y1="197.77702040576506" x2="242.0"
          y2="194.06117341122953" stroke="black" stroke-width="1.0"
          stroke-linecap="round"
  /><line x1="245.6" y1="194.10134473008935" x2="243.8"
          y2="197.77702040576506" stroke="black" stroke-width="1.0"
          stroke-linecap="round"
  /><line x1="247.4" y1="197.73770836645298" x2="245.6"
          y2="194.10134473008935" stroke="black" stroke-width="1.0"
          stroke-linecap="round"
  /><line x1="249.20000000000002" y1="194.13982476856935" x2="247.4"
          y2="197.73770836645298" stroke="black" stroke-width="1.0"
          stroke-linecap="round"
  /><line x1="251.0" y1="197.70003419265308" x2="249.20000000000002"
          y2="194.13982476856935" stroke="black" stroke-width="1.0"
          stroke-linecap="round"
  /><line x1="252.8" y1="194.1767181304769" x2="251.0"
          y2="197.70003419265308" stroke="black" stroke-width="1.0"
          stroke-linecap="round"
  /><line x1="254.6" y1="197.66389761765637" x2="252.8"
          y2="194.1767181304769" stroke="black" stroke-width="1.0"
          stroke-linecap="round"
  /><line x1="256.4" y1="194.21212096791018" x2="254.6"
          y2="197.66389761765637" stroke="black" stroke-width="1.0"
          stroke-linecap="round"
  /><line x1="258.20000000000005" y1="197.62920639504588" x2="256.4"
          y2="194.21212096791018" stroke="black" stroke-width="1.0"
          stroke-linecap="round"
  /><line x1="260.0" y1="194.24612181793145" x2="258.20000000000005"
          y2="197.62920639504588" stroke="black" stroke-width="1.0"
          stroke-linecap="round"
  /><line x1="261.8" y1="197.59587551251275" x2="260.0"
          y2="194.24612181793145" stroke="black" stroke-width="1.0"
          stroke-linecap="round"
  /><line x1="263.6" y1="194.27880234178102" x2="261.8"
          y2="197.59587551251275" stroke="black" stroke-width="1.0"
          stroke-linecap="round"
  /><line x1="265.4" y1="197.5638264963704" x2="263.6"
          y2="194.27880234178102" stroke="black" stroke-width="1.0"
          stroke-linecap="round"
  /><line x1="267.20000000000005" y1="194.310237979624" x2="265.4"
          y2="197.5638264963704" stroke="black" stroke-width="1.0"
          stroke-linecap="round"
  /><line x1="269.0" y1="197.5329867947899" x2="267.20000000000005"
          y2="194.310237979624" stroke="black" stroke-width="1.0"
          stroke-linecap="round"
  /><line x1="270.8" y1="194.34049853187912" x2="269.0"
          y2="197.5329867947899" stroke="black" stroke-width="1.0"
          stroke-linecap="round"
  /><line x1="272.6" y1="197.50328922955353" x2="270.8"
          y2="194.34049853187912" stroke="black" stroke-width="1.0"
          stroke-linecap="round"
  /><line x1="274.4" y1="194.36964867655814" x2="272.6"
          y2="197.50328922955353" stroke="black" stroke-width="1.0"
          stroke-linecap="round"
  /><line x1="276.20000000000005" y1="197.47467150760843" x2="274.4"
          y2="194.36964867655814" stroke="black" stroke-width="1.0"
          stroke-linecap="round"
  /><line x1="278.0" y1="194.39774843068537" x2="276.20000000000005"
          y2="197.47467150760843" stroke="black" stroke-width="1.0"
          stroke-linecap="round"
  /><line x1="279.8" y1="197.44707578494547" x2="278.0"
          y2="194.39774843068537" stroke="black" stroke-width="1.0"
          stroke-linecap="round"
  /><line x1="281.6" y1="194.42485356272323" x2="279.8"
          y2="197.44707578494547" stroke="black" stroke-width="1.0"
          stroke-linecap="round"
  /><line x1="283.4" y1="197.42044827637963" x2="281.6"
          y2="194.42485356272323" stroke="black" stroke-width="1.0"
          stroke-linecap="round"
  /><line x1="285.20000000000005" y1="194.45101596196915" x2="283.4"
          y2="197.42044827637963" stroke="black" stroke-width="1.0"
          stroke-linecap="round"
  /><line x1="287.0" y1="197.39473890569207" x2="285.20000000000005"
          y2="194.45101596196915" stroke="black" stroke-width="1.0"
          stroke-linecap="round"
  /><line x1="288.8" y1="194.47628397006974" x2="287.0"
          y2="197.39473890569207" stroke="black" stroke-width="1.0"
          stroke-linecap="round"
  /><line x1="290.6" y1="197.36990099134636" x2="288.8"
          y2="194.47628397006974" stroke="black" stroke-width="1.0"
          stroke-linecap="round"
  /><line x1="292.4" y1="194.5007026791101" x2="290.6"
          y2="197.36990099134636" stroke="black" stroke-width="1.0"
          stroke-linecap="round"
  /><line x1="294.20000000000005" y1="197.3458909636289" x2="292.4"
          y2="194.5007026791101" stroke="black" stroke-width="1.0"
          stroke-linecap="round"
  /><line x1="296.0" y1="194.52431420014344" x2="294.20000000000005"
          y2="197.3458909636289" stroke="black" stroke-width="1.0"
          stroke-linecap="round"
  /><line x1="297.8" y1="197.32266810960846" x2="296.0"
          y2="194.52431420014344" stroke="black" stroke-width="1.0"
          stroke-linecap="round"
  /><line x1="299.6" y1="194.54715790552677" x2="297.8"
          y2="197.32266810960846" stroke="black" stroke-width="1.0"
          stroke-linecap="round"
  /><line x1="301.4" y1="197.30019434277378" x2="299.6"
          y2="194.54715790552677" stroke="black" stroke-width="1.0"
          stroke-linecap="round"
  /><line x1="303.20000000000005" y1="194.5692706479946" x2="301.4"
          y2="197.30019434277378" stroke="black" stroke-width="1.0"
          stroke-linecap="round"
  /><line x1="305.0" y1="197.27843399460815" x2="303.20000000000005"
          y2="194.5692706479946" stroke="black" stroke-width="1.0"
          stroke-linecap="round"
  /><line x1="306.8" y1="194.59068695903505" x2="305.0"
          y2="197.27843399460815" stroke="black" stroke-width="1.0"
          stroke-linecap="round"
  /><line x1="308.6" y1="197.2573536257017" x2="306.8"
          y2="194.59068695903505" stroke="black" stroke-width="1.0"
          stroke-linecap="round"
  /><line x1="310.4" y1="194.61143922881456" x2="308.6"
          y2="197.2573536257017" stroke="black" stroke-width="1.0"
          stroke-linecap="round"
  /><line x1="312.20000000000005" y1="197.23692185429718" x2="310.4"
          y2="194.61143922881456" stroke="black" stroke-width="1.0"
          stroke-linecap="round"
  /><line x1="314.0" y1="194.63155786962284" x2="312.20000000000005"
          y2="197.23692185429718" stroke="black" stroke-width="1.0"
          stroke-linecap="round"
  /><line x1="315.8" y1="197.21710920042133" x2="314.0"
          y2="194.63155786962284" stroke="black" stroke-width="1.0"
          stroke-linecap="round"
  /><line x1="317.6" y1="194.65107146457228" x2="315.8"
          y2="197.21710920042133" stroke="black" stroke-width="1.0"
          stroke-linecap="round"
  /><line x1="319.4" y1="197.19788794397303" x2="317.6"
          y2="194.65107146457228" stroke="black" stroke-width="1.0"
          stroke-linecap="round"
  /><line x1="321.20000000000005" y1="194.67000690308083" x2="319.4"
          y2="197.19788794397303" stroke="black" stroke-width="1.0"
          stroke-linecap="round"
  /><line x1="323.0" y1="197.17923199533172" x2="321.20000000000005"
          y2="194.67000690308083" stroke="black" stroke-width="1.0"
          stroke-linecap="round"
  /><line x1="324.8" y1="194.68838950448924" x2="323.0"
          y2="197.17923199533172" stroke="black" stroke-width="1.0"
          stroke-linecap="round"
  /><line x1="326.6" y1="197.16111677721653" x2="324.8"
          y2="194.68838950448924" stroke="black" stroke-width="1.0"
          stroke-linecap="round"
  /><line x1="328.4" y1="194.7062431310071" x2="326.6"
          y2="197.16111677721653" stroke="black" stroke-width="1.0"
          stroke-linecap="round"
  /><line x1="330.20000000000005" y1="197.1435191166702" x2="328.4"
          y2="194.7062431310071" stroke="black" stroke-width="1.0"
          stroke-linecap="round"
  /><line x1="332.0" y1="194.72359029104743" x2="330.20000000000005"
          y2="197.1435191166702" stroke="black" stroke-width="1.0"
          stroke-linecap="round"
  /><line x1="333.8" y1="197.12641714617112" x2="332.0"
          y2="194.72359029104743" stroke="black" stroke-width="1.0"
          stroke-linecap="round"
  /><line x1="335.6" y1="194.74045223389044" x2="333.8"
          y2="197.12641714617112" stroke="black" stroke-width="1.0"
          stroke-linecap="round"
  /><line x1="337.40000000000003" y1="197.10979021298448" x2="335.6"
          y2="194.74045223389044" stroke="black" stroke-width="1.0"
          stroke-linecap="round"
  /><line x1="339.2" y1="194.75684903651387" x2="337.40000000000003"
          y2="197.10979021298448" stroke="black" stroke-width="1.0"
          stroke-linecap="round"
  /><line x1="341.0" y1="197.093618795964" x2="339.2"
          y2="194.75684903651387" stroke="black" stroke-width="1.0"
          stroke-linecap="round"
  /><line x1="342.8" y1="194.772799683336" x2="341.0"
          y2="197.093618795964" stroke="black" stroke-width="1.0"
          stroke-linecap="round"
  /><line x1="344.6" y1="197.07788442909867" x2="342.8"
          y2="194.772799683336" stroke="black" stroke-width="1.0"
          stroke-linecap="round"
  /><line x1="346.40000000000003" y1="194.7883221395364" x2="344.6"
          y2="197.07788442909867" stroke="black" stroke-width="1.0"
          stroke-linecap="round"
  /><line x1="348.2" y1="197.0625696311752" x2="346.40000000000003"
          y2="194.7883221395364" stroke="black" stroke-width="1.0"
          stroke-linecap="round"
  /><line x1="350.0" y1="194.80343341855058" x2="348.2"
          y2="197.0625696311752" stroke="black" stroke-width="1.0"
          stroke-linecap="round"
  /><line x1="351.8" y1="197.04765784099285" x2="350.0"
          y2="194.80343341855058" stroke="black" stroke-width="1.0"
          stroke-linecap="round"
  /><line x1="353.6" y1="194.81814964427159" x2="351.8"
          y2="197.04765784099285" stroke="black" stroke-width="1.0"
          stroke-linecap="round"
  /><line x1="355.40000000000003" y1="197.03313335762664" x2="353.6"
          y2="194.81814964427159" stroke="black" stroke-width="1.0"
          stroke-linecap="round"
  /><line x1="357.2" y1="194.83248610843572" x2="355.40000000000003"
          y2="197.03313335762664" stroke="black" stroke-width="1.0"
          stroke-linecap="round"
  /><line x1="359.0" y1="197.01898128528455" x2="357.2"
          y2="194.83248610843572" stroke="black" stroke-width="1.0"
          stroke-linecap="round"
  /><line x1="360.8" y1="194.8464573236232" x2="359.0"
          y2="197.01898128528455" stroke="black" stroke-width="1.0"
          stroke-linecap="round"
  /><line x1="362.6" y1="197.00518748235334" x2="360.8"
          y2="194.8464573236232" stroke="black" stroke-width="1.0"
          stroke-linecap="round"
  /><line x1="364.40000000000003" y1="194.86007707225872" x2="362.6"
          y2="197.00518748235334" stroke="black" stroke-width="1.0"
          stroke-linecap="round"
  /><line x1="366.2" y1="196.991738514265" x2="364.40000000000003"
          y2="194.86007707225872" stroke="black" stroke-width="1.0"
          stroke-linecap="round"
  /><line x1="368.0" y1="194.87335845195972" x2="366.2"
          y2="196.991738514265" stroke="black" stroke-width="1.0"
          stroke-linecap="round"
  /><line x1="369.8" y1="196.97862160985449" x2="368.0"
          y2="194.87335845195972" stroke="black" stroke-width="1.0"
          stroke-linecap="round"
  /><line x1="371.6" y1="194.88631391754677" x2="369.8"
          y2="196.97862160985449" stroke="black" stroke-width="1.0"
          stroke-linecap="round"
  /><line x1="373.40000000000003" y1="196.9658246209107" x2="371.6"
          y2="194.88631391754677" stroke="black" stroke-width="1.0"
          stroke-linecap="round"
  /><line x1="375.2" y1="194.89895531999886" x2="373.40000000000003"
          y2="196.9658246209107" stroke="black" stroke-width="1.0"
          stroke-linecap="round"
  /><line x1="377.0" y1="196.9533359846514" x2="375.2"
          y2="194.89895531999886" stroke="black" stroke-width="1.0"
          stroke-linecap="round"
  /><line x1="378.8" y1="194.91129394260935" x2="377.0"
          y2="196.9533359846514" stroke="black" stroke-width="1.0"
          stroke-linecap="round"
  /><line x1="380.6" y1="196.941144688878" x2="378.8"
          y2="194.91129394260935" stroke="black" stroke-width="1.0"
          stroke-linecap="round"
  /><line x1="382.40000000000003" y1="194.92334053457535" x2="380.6"
          y2="196.941144688878" stroke="black" stroke-width="1.0"
          stroke-linecap="round"
  /><line x1="384.2" y1="196.92924023959011" x2="382.40000000000003"
          y2="194.92334053457535" stroke="black" stroke-width="1.0"
          stroke-linecap="round"
  /><line x1="386.0" y1="194.93510534222943" x2="384.2"
          y2="196.92924023959011" stroke="black" stroke-width="1.0"
          stroke-linecap="round"
  /><line x1="387.8" y1="196.91761263085917" x2="386.0"
          y2="194.93510534222943" stroke="black" stroke-width="1.0"
          stroke-linecap="round"
  /><line x1="389.6" y1="194.94659813810557" x2="387.8"
          y2="196.91761263085917" stroke="black" stroke-width="1.0"
          stroke-linecap="round"
  /><line x1="391.40000000000003" y1="196.90625231677996" x2="389.6"
          y2="194.94659813810557" stroke="black" stroke-width="1.0"
          stroke-linecap="round"
  /><line x1="393.2" y1="194.95782824801205" x2="391.40000000000003"
          y2="196.90625231677996" stroke="black" stroke-width="1.0"
          stroke-linecap="round"
  /><line x1="395.0" y1="196.89515018533396" x2="393.2"
          y2="194.95782824801205" stroke="black" stroke-width="1.0"
          stroke-linecap="round"
  /><line x1="396.8" y1="194.96880457626878" x2="395.0"
          y2="196.89515018533396" stroke="black" stroke-width="1.0"
          stroke-linecap="round"
  /><line x1="398.6" y1="196.88429753401525" x2="396.8"
          y2="194.96880457626878" stroke="black" stroke-width="1.0"
          stroke-linecap="round"
  /><line x1="400.40000000000003" y1="194.97953562925335" x2="398.6"
          y2="196.88429753401525" stroke="black" stroke-width="1.0"
          stroke-linecap="round"
  /><line x1="402.2" y1="196.8736860470806" x2="400.40000000000003"
          y2="194.97953562925335" stroke="black" stroke-width="1.0"
          stroke-linecap="round"
  /><line x1="404.0" y1="194.99002953738534" x2="402.2"
          y2="196.8736860470806" stroke="black" stroke-width="1.0"
          stroke-linecap="round"
  /><line x1="405.8" y1="196.86330777429995" x2="404.0"
          y2="194.99002953738534" stroke="black" stroke-width="1.0"
          stroke-linecap="round"
  /><line x1="407.6" y1="195.00029407566984" x2="405.8"
          y2="196.86330777429995" stroke="black" stroke-width="1.0"
          stroke-linecap="round"
  /><line x1="409.40000000000003" y1="196.8531551110922" x2="407.6"
          y2="195.00029407566984" stroke="black" stroke-width="1.0"
          stroke-linecap="round"
  /><line x1="411.2" y1="195.0103366829079" x2="409.40000000000003"
          y2="196.8531551110922" stroke="black" stroke-width="1.0"
          stroke-linecap="round"
  /><line x1="413.0" y1="196.84322077994298" x2="411.2"
          y2="195.0103366829079" stroke="black" stroke-width="1.0"
          stroke-linecap="round"
  /><line x1="414.8" y1="195.0201644796749" x2="413.0"
          y2="196.84322077994298" stroke="black" stroke-width="1.0"
          stroke-linecap="round"
  /><line x1="416.6" y1="196.83349781300825" x2="414.8"
          y2="195.0201644796749" stroke="black" stroke-width="1.0"
          stroke-linecap="round"
  /><line x1="418.40000000000003" y1="195.02978428515675" x2="416.6"
          y2="196.83349781300825" stroke="black" stroke-width="1.0"
          stroke-linecap="round"
  /><line x1="420.2" y1="196.82397953581642" x2="418.40000000000003"
          y2="195.02978428515675" stroke="black" stroke-width="1.0"
          stroke-linecap="round"
  /><line x1="422.0" y1="195.0392026329293" x2="420.2"
          y2="196.82397953581642" stroke="black" stroke-width="1.0"
          stroke-linecap="round"
  /><line x1="423.8" y1="196.81465955198937" x2="422.0"
          y2="195.0392026329293" stroke="black" stroke-width="1.0"
          stroke-linecap="round"
  /><line x1="425.6" y1="195.0484257857556" x2="423.8"
          y2="196.81465955198937" stroke="black" stroke-width="1.0"
          stroke-linecap="round"
  /><line x1="427.40000000000003" y1="196.80553172890802" x2="425.6"
          y2="195.0484257857556" stroke="black" stroke-width="1.0"
          stroke-linecap="round"
  /><line x1="429.2" y1="195.05745974947357" x2="427.40000000000003"
          y2="196.80553172890802" stroke="black" stroke-width="1.0"
          stroke-linecap="round"
  /><line x1="431.0" y1="196.79659018425622" x2="429.2"
          y2="195.05745974947357" stroke="black" stroke-width="1.0"
          stroke-linecap="round"
  /><line x1="432.8" y1="195.06631028603738" x2="431.0"
          y2="196.79659018425622" stroke="black" stroke-width="1.0"
          stroke-linecap="round"
  /><line x1="434.6" y1="196.78782927337917" x2="432.8"
          y2="195.06631028603738" stroke="black" stroke-width="1.0"
          stroke-linecap="round"
  /><line x1="436.40000000000003" y1="195.07498292577213" x2="434.6"
          y2="196.78782927337917" stroke="black" stroke-width="1.0"
          stroke-linecap="round"
  /><line x1="438.2" y1="196.77924357740125" x2="436.40000000000003"
          y2="195.07498292577213" stroke="black" stroke-width="1.0"
          stroke-linecap="round"/></svg>