<?xml version='1.0' encoding='UTF-8' ?>
<!-- MADE BY SVG.HS -->
<!DOCTYPE svg PUBLIC "-//W3C//DTD SVG 1.1//EN" "http://www.w3.org/Graphics/SVG/1.1/DTD/svg11.dtd">
<svg xmlns="http://www.w3.org/2000/svg" version="1.1"
     xmlns:xlink="http://www.w3.org/1999/xlink" width="500.0"
     height="400.0"
  ><rect x="0.0" y="0.0" width="500.0" height="400.0"
         stroke-width="0.0" fill="rgb(255,255,255)"
         stroke="rgb(255,255,255)"
  /><line x1="45.0" y1="30.0" x2="45.0" y2="330.0" stroke="gray"
          stroke-width="1.0" stroke-linecap="round"
  /><line x1="50.0" y1="80.0" x2="45.0" y2="80.0" stroke="gray"
          stroke-width="1.0" stroke-linecap="round"
  /><text x="10.0" y="88.0" font-family="KochiGothic"
          font-weight="normal" font-size="15.0" fill="gray"
  >3.5</text
  ><line x1="50.0" y1="130.0" x2="45.0" y2="130.0" stroke="gray"
         stroke-width="1.0" stroke-linecap="round"
  /><text x="10.0" y="138.0" font-family="KochiGothic"
          font-weight="normal" font-size="15.0" fill="gray"
  >3.0</text
  ><line x1="50.0" y1="180.0" x2="45.0" y2="180.0" stroke="gray"
         stroke-width="1.0" stroke-linecap="round"
  /><text x="10.0" y="188.0" font-family="KochiGothic"
          font-weight="normal" font-size="15.0" fill="gray"
  >2.5</text
  ><line x1="50.0" y1="230.0" x2="45.0" y2="230.0" stroke="gray"
         stroke-width="1.0" stroke-linecap="round"
  /><text x="10.0" y="238.0" font-family="KochiGothic"
          font-weight="normal" font-size="15.0" fill="gray"
  >2.0</text
  ><line x1="50.0" y1="280.0" x2="45.0" y2="280.0" stroke="gray"
         stroke-width="1.0" stroke-linecap="round"
  /><text x="10.0" y="288.0" font-family="KochiGothic"
          font-weight="normal" font-size="15.0" fill="gray"
  >1.5</text
  ><line x1="475.0" y1="115.84073464102069" x2="50.0"
         y2="115.84073464102069" stroke="gray" stroke-width="1.0"
         stroke-linecap="round"
  /><text x="480.0" y="120.84073464102069" font-family="KochiGothic"
          font-weight="normal" font-size="15.0" fill="gray"
  >π</text
  ><line x1="440.0" y1="330.0" x2="80.0" y2="330.0" stroke="gray"
         stroke-width="1.0" stroke-linecap="round"
  /><line x1="98.0" y1="325.0" x2="98.0" y2="330.0" stroke="gray"
          stroke-width="1.0" stroke-linecap="round"
  /><line x1="116.0" y1="325.0" x2="116.0" y2="330.0" stroke="gray"
          stroke-width="1.0" stroke-linecap="round"
  /><line x1="134.0" y1="325.0" x2="134.0" y2="330.0" stroke="gray"
          stroke-width="1.0" stroke-linecap="round"
  /><line x1="152.0" y1="325.0" x2="152.0" y2="330.0" stroke="gray"
          stroke-width="1.0" stroke-linecap="round"
  /><line x1="170.0" y1="325.0" x2="170.0" y2="330.0" stroke="gray"
          stroke-width="1.0" stroke-linecap="round"
  /><line x1="188.0" y1="325.0" x2="188.0" y2="330.0" stroke="gray"
          stroke-width="1.0" stroke-linecap="round"
  /><line x1="206.0" y1="325.0" x2="206.0" y2="330.0" stroke="gray"
          stroke-width="1.0" stroke-linecap="round"
  /><line x1="224.0" y1="325.0" x2="224.0" y2="330.0" stroke="gray"
          stroke-width="1.0" stroke-linecap="round"
  /><line x1="242.0" y1="325.0" x2="242.0" y2="330.0" stroke="gray"
          stroke-width="1.0" stroke-linecap="round"
  /><line x1="278.0" y1="325.0" x2="278.0" y2="330.0" stroke="gray"
          stroke-width="1.0" stroke-linecap="round"
  /><line x1="296.0" y1="325.0" x2="296.0" y2="330.0" stroke="gray"
          stroke-width="1.0" stroke-linecap="round"
  /><line x1="314.0" y1="325.0" x2="314.0" y2="330.0" stroke="gray"
          stroke-width="1.0" stroke-linecap="round"
  /><line x1="332.0" y1="325.0" x2="332.0" y2="330.0" stroke="gray"
          stroke-width="1.0" stroke-linecap="round"
  /><line x1="350.0" y1="325.0" x2="350.0" y2="330.0" stroke="gray"
          stroke-width="1.0" stroke-linecap="round"
  /><line x1="368.0" y1="325.0" x2="368.0" y2="330.0" stroke="gray"
          stroke-width="1.0" stroke-linecap="round"
  /><line x1="386.0" y1="325.0" x2="386.0" y2="330.0" stroke="gray"
          stroke-width="1.0" stroke-linecap="round"
  /><line x1="404.0" y1="325.0" x2="404.0" y2="330.0" stroke="gray"
          stroke-width="1.0" stroke-linecap="round"
  /><line x1="422.0" y1="325.0" x2="422.0" y2="330.0" stroke="gray"
          stroke-width="1.0" stroke-linecap="round"
  /><line x1="80.0" y1="320.0" x2="80.0" y2="330.0" stroke="gray"
          stroke-width="1.0" stroke-linecap="round"
  /><text x="76.0" y="350.0" font-family="KochiGothic"
          font-weight="normal" font-size="15.0" fill="gray"
  >1</text
  ><line x1="260.0" y1="320.0" x2="260.0" y2="330.0" stroke="gray"
         stroke-width="1.0" stroke-linecap="round"
  /><text x="244.0" y="350.0" font-family="KochiGothic"
          font-weight="normal" font-size="15.0" fill="gray"
  >1024</text
  ><line x1="440.0" y1="320.0" x2="440.0" y2="330.0" stroke="gray"
         stroke-width="1.0" stroke-linecap="round"
  /><text x="412.0" y="350.0" font-family="KochiGothic"
          font-weight="normal" font-size="15.0" fill="gray"
  >1048576</text
  ><line x1="365.0" y1="175.0" x2="350.0" y2="175.0" stroke="black"
         stroke-width="3.0" stroke-linecap="round"
  /><text x="375.0" y="182.0" font-family="KochiGothic"
          font-weight="normal" font-size="15.0" fill="black"
  >g = 8</text
  ><line x1="365.0" y1="197.0" x2="350.0" y2="197.0" stroke="red"
         stroke-width="3.0" stroke-linecap="round"
  /><text x="375.0" y="204.0" font-family="KochiGothic"
          font-weight="normal" font-size="15.0" fill="black"
  >g = 9</text
  ><line x1="365.0" y1="219.0" x2="350.0" y2="219.0" stroke="green"
         stroke-width="3.0" stroke-linecap="round"
  /><text x="375.0" y="226.0" font-family="KochiGothic"
          font-weight="normal" font-size="15.0" fill="black"
  >g = 10</text
  ><line x1="365.0" y1="241.0" x2="350.0" y2="241.0" stroke="blue"
         stroke-width="3.0" stroke-linecap="round"
  /><text x="375.0" y="248.0" font-family="KochiGothic"
          font-weight="normal" font-size="15.0" fill="black"
  >g = 11</text
  ><line x1="365.0" y1="263.0" x2="350.0" y2="263.0" stroke="brown"
         stroke-width="3.0" stroke-linecap="round"
  /><text x="375.0" y="270.0" font-family="KochiGothic"
          font-weight="normal" font-size="15.0" fill="black"
  >g = 12</text
  ><line x1="98.0" y1="230.0" x2="80.0" y2="30.0" stroke="black"
         stroke-width="1.0" stroke-linecap="round"
  /><line x1="116.0" y1="230.0" x2="98.0" y2="230.0" stroke="black"
          stroke-width="1.0" stroke-linecap="round"
  /><line x1="134.0" y1="280.0" x2="116.0" y2="230.0" stroke="black"
          stroke-width="1.0" stroke-linecap="round"
  /><line x1="152.0" y1="180.0" x2="134.0" y2="280.0" stroke="black"
          stroke-width="1.0" stroke-linecap="round"
  /><line x1="170.0" y1="217.5" x2="152.0" y2="180.0" stroke="black"
          stroke-width="1.0" stroke-linecap="round"
  /><line x1="188.0" y1="167.5" x2="170.0" y2="217.5" stroke="black"
          stroke-width="1.0" stroke-linecap="round"
  /><line x1="206.0" y1="117.5" x2="188.0" y2="167.5" stroke="black"
          stroke-width="1.0" stroke-linecap="round"
  /><line x1="224.0" y1="136.25" x2="206.0" y2="117.5" stroke="black"
          stroke-width="1.0" stroke-linecap="round"
  /><line x1="242.0" y1="130.0" x2="224.0" y2="136.25" stroke="black"
          stroke-width="1.0" stroke-linecap="round"
  /><line x1="260.0" y1="120.625" x2="242.0" y2="130.0"
          stroke="black" stroke-width="1.0" stroke-linecap="round"
  /><line x1="278.0" y1="115.9375" x2="260.0" y2="120.625"
          stroke="black" stroke-width="1.0" stroke-linecap="round"
  /><line x1="296.0" y1="115.7421875" x2="278.0" y2="115.9375"
          stroke="black" stroke-width="1.0" stroke-linecap="round"
  /><line x1="314.0" y1="116.669921875" x2="296.0" y2="115.7421875"
          stroke="black" stroke-width="1.0" stroke-linecap="round"
  /><line x1="332.0" y1="116.23046875" x2="314.0" y2="116.669921875"
          stroke="black" stroke-width="1.0" stroke-linecap="round"
  /><line x1="350.0" y1="116.48681640625" x2="332.0"
          y2="116.23046875" stroke="black" stroke-width="1.0"
          stroke-linecap="round"
  /><line x1="368.0" y1="116.70654296875" x2="350.0"
          y2="116.48681640625" stroke="black" stroke-width="1.0"
          stroke-linecap="round"
  /><line x1="386.0" y1="115.5926513671875" x2="368.0"
          y2="116.70654296875" stroke="black" stroke-width="1.0"
          stroke-linecap="round"
  /><line x1="404.0" y1="115.80169677734375" x2="386.0"
          y2="115.5926513671875" stroke="black" stroke-width="1.0"
          stroke-linecap="round"
  /><line x1="422.0" y1="115.89248657226563" x2="404.0"
          y2="115.80169677734375" stroke="black" stroke-width="1.0"
          stroke-linecap="round"
  /><line x1="440.0" y1="115.67543029785156" x2="422.0"
          y2="115.89248657226563" stroke="black" stroke-width="1.0"
          stroke-linecap="round"
  /><line x1="98.0" y1="30.0" x2="80.0" y2="30.0" stroke="red"
          stroke-width="1.0" stroke-linecap="round"
  /><line x1="116.0" y1="130.0" x2="98.0" y2="30.0" stroke="red"
          stroke-width="1.0" stroke-linecap="round"
  /><line x1="134.0" y1="180.0" x2="116.0" y2="130.0" stroke="red"
          stroke-width="1.0" stroke-linecap="round"
  /><line x1="152.0" y1="180.0" x2="134.0" y2="180.0" stroke="red"
          stroke-width="1.0" stroke-linecap="round"
  /><line x1="170.0" y1="155.0" x2="152.0" y2="180.0" stroke="red"
          stroke-width="1.0" stroke-linecap="round"
  /><line x1="188.0" y1="148.75" x2="170.0" y2="155.0" stroke="red"
          stroke-width="1.0" stroke-linecap="round"
  /><line x1="206.0" y1="139.375" x2="188.0" y2="148.75" stroke="red"
          stroke-width="1.0" stroke-linecap="round"
  /><line x1="224.0" y1="119.0625" x2="206.0" y2="139.375"
          stroke="red" stroke-width="1.0" stroke-linecap="round"
  /><line x1="242.0" y1="108.125" x2="224.0" y2="119.0625"
          stroke="red" stroke-width="1.0" stroke-linecap="round"
  /><line x1="260.0" y1="104.21875" x2="242.0" y2="108.125"
          stroke="red" stroke-width="1.0" stroke-linecap="round"
  /><line x1="278.0" y1="105.1953125" x2="260.0" y2="104.21875"
          stroke="red" stroke-width="1.0" stroke-linecap="round"
  /><line x1="296.0" y1="110.6640625" x2="278.0" y2="105.1953125"
          stroke="red" stroke-width="1.0" stroke-linecap="round"
  /><line x1="314.0" y1="113.3984375" x2="296.0" y2="110.6640625"
          stroke="red" stroke-width="1.0" stroke-linecap="round"
  /><line x1="332.0" y1="114.3994140625" x2="314.0" y2="113.3984375"
          stroke="red" stroke-width="1.0" stroke-linecap="round"
  /><line x1="350.0" y1="114.46044921875" x2="332.0"
          y2="114.3994140625" stroke="red" stroke-width="1.0"
          stroke-linecap="round"
  /><line x1="368.0" y1="114.8388671875" x2="350.0"
          y2="114.46044921875" stroke="red" stroke-width="1.0"
          stroke-linecap="round"
  /><line x1="386.0" y1="115.3607177734375" x2="368.0"
          y2="114.8388671875" stroke="red" stroke-width="1.0"
          stroke-linecap="round"
  /><line x1="404.0" y1="115.4736328125" x2="386.0"
          y2="115.3607177734375" stroke="red" stroke-width="1.0"
          stroke-linecap="round"
  /><line x1="422.0" y1="115.75592041015625" x2="404.0"
          y2="115.4736328125" stroke="red" stroke-width="1.0"
          stroke-linecap="round"
  /><line x1="440.0" y1="115.77156066894531" x2="422.0"
          y2="115.75592041015625" stroke="red" stroke-width="1.0"
          stroke-linecap="round"
  /><line x1="98.0" y1="30.0" x2="80.0" y2="30.0" stroke="green"
          stroke-width="1.0" stroke-linecap="round"
  /><line x1="116.0" y1="30.0" x2="98.0" y2="30.0" stroke="green"
          stroke-width="1.0" stroke-linecap="round"
  /><line x1="134.0" y1="80.0" x2="116.0" y2="30.0" stroke="green"
          stroke-width="1.0" stroke-linecap="round"
  /><line x1="152.0" y1="55.0" x2="134.0" y2="80.0" stroke="green"
          stroke-width="1.0" stroke-linecap="round"
  /><line x1="170.0" y1="55.0" x2="152.0" y2="55.0" stroke="green"
          stroke-width="1.0" stroke-linecap="round"
  /><line x1="188.0" y1="86.25" x2="170.0" y2="55.0" stroke="green"
          stroke-width="1.0" stroke-linecap="round"
  /><line x1="206.0" y1="89.375" x2="188.0" y2="86.25" stroke="green"
          stroke-width="1.0" stroke-linecap="round"
  /><line x1="224.0" y1="90.9375" x2="206.0" y2="89.375"
          stroke="green" stroke-width="1.0" stroke-linecap="round"
  /><line x1="242.0" y1="113.59375" x2="224.0" y2="90.9375"
          stroke="green" stroke-width="1.0" stroke-linecap="round"
  /><line x1="260.0" y1="119.453125" x2="242.0" y2="113.59375"
          stroke="green" stroke-width="1.0" stroke-linecap="round"
  /><line x1="278.0" y1="117.890625" x2="260.0" y2="119.453125"
          stroke="green" stroke-width="1.0" stroke-linecap="round"
  /><line x1="296.0" y1="117.01171875" x2="278.0" y2="117.890625"
          stroke="green" stroke-width="1.0" stroke-linecap="round"
  /><line x1="314.0" y1="117.109375" x2="296.0" y2="117.01171875"
          stroke="green" stroke-width="1.0" stroke-linecap="round"
  /><line x1="332.0" y1="117.98828125" x2="314.0" y2="117.109375"
          stroke="green" stroke-width="1.0" stroke-linecap="round"
  /><line x1="350.0" y1="118.19580078125" x2="332.0"
          y2="117.98828125" stroke="green" stroke-width="1.0"
          stroke-linecap="round"
  /><line x1="368.0" y1="116.968994140625" x2="350.0"
          y2="118.19580078125" stroke="green" stroke-width="1.0"
          stroke-linecap="round"
  /><line x1="386.0" y1="116.14501953125" x2="368.0"
          y2="116.968994140625" stroke="green" stroke-width="1.0"
          stroke-linecap="round"
  /><line x1="404.0" y1="115.84136962890625" x2="386.0"
          y2="116.14501953125" stroke="green" stroke-width="1.0"
          stroke-linecap="round"
  /><line x1="422.0" y1="115.845947265625" x2="404.0"
          y2="115.84136962890625" stroke="green" stroke-width="1.0"
          stroke-linecap="round"
  /><line x1="440.0" y1="115.8489990234375" x2="422.0"
          y2="115.845947265625" stroke="green" stroke-width="1.0"
          stroke-linecap="round"
  /><line x1="98.0" y1="30.0" x2="80.0" y2="30.0" stroke="blue"
          stroke-width="1.0" stroke-linecap="round"
  /><line x1="116.0" y1="30.0" x2="98.0" y2="30.0" stroke="blue"
          stroke-width="1.0" stroke-linecap="round"
  /><line x1="134.0" y1="80.0" x2="116.0" y2="30.0" stroke="blue"
          stroke-width="1.0" stroke-linecap="round"
  /><line x1="152.0" y1="55.0" x2="134.0" y2="80.0" stroke="blue"
          stroke-width="1.0" stroke-linecap="round"
  /><line x1="170.0" y1="105.0" x2="152.0" y2="55.0" stroke="blue"
          stroke-width="1.0" stroke-linecap="round"
  /><line x1="188.0" y1="111.25" x2="170.0" y2="105.0" stroke="blue"
          stroke-width="1.0" stroke-linecap="round"
  /><line x1="206.0" y1="92.5" x2="188.0" y2="111.25" stroke="blue"
          stroke-width="1.0" stroke-linecap="round"
  /><line x1="224.0" y1="109.6875" x2="206.0" y2="92.5" stroke="blue"
          stroke-width="1.0" stroke-linecap="round"
  /><line x1="242.0" y1="115.15625" x2="224.0" y2="109.6875"
          stroke="blue" stroke-width="1.0" stroke-linecap="round"
  /><line x1="260.0" y1="116.328125" x2="242.0" y2="115.15625"
          stroke="blue" stroke-width="1.0" stroke-linecap="round"
  /><line x1="278.0" y1="114.375" x2="260.0" y2="116.328125"
          stroke="blue" stroke-width="1.0" stroke-linecap="round"
  /><line x1="296.0" y1="113.7890625" x2="278.0" y2="114.375"
          stroke="blue" stroke-width="1.0" stroke-linecap="round"
  /><line x1="314.0" y1="115.15625" x2="296.0" y2="113.7890625"
          stroke="blue" stroke-width="1.0" stroke-linecap="round"
  /><line x1="332.0" y1="114.8876953125" x2="314.0" y2="115.15625"
          stroke="blue" stroke-width="1.0" stroke-linecap="round"
  /><line x1="350.0" y1="115.75439453125" x2="332.0"
          y2="114.8876953125" stroke="blue" stroke-width="1.0"
          stroke-linecap="round"
  /><line x1="368.0" y1="115.107421875" x2="350.0"
          y2="115.75439453125" stroke="blue" stroke-width="1.0"
          stroke-linecap="round"
  /><line x1="386.0" y1="115.009765625" x2="368.0" y2="115.107421875"
          stroke="blue" stroke-width="1.0" stroke-linecap="round"
  /><line x1="404.0" y1="115.1654052734375" x2="386.0"
          y2="115.009765625" stroke="blue" stroke-width="1.0"
          stroke-linecap="round"
  /><line x1="422.0" y1="115.37521362304688" x2="404.0"
          y2="115.1654052734375" stroke="blue" stroke-width="1.0"
          stroke-linecap="round"
  /><line x1="440.0" y1="115.53009033203125" x2="422.0"
          y2="115.37521362304688" stroke="blue" stroke-width="1.0"
          stroke-linecap="round"
  /><line x1="98.0" y1="30.0" x2="80.0" y2="30.0" stroke="brown"
          stroke-width="1.0" stroke-linecap="round"
  /><line x1="116.0" y1="230.0" x2="98.0" y2="30.0" stroke="brown"
          stroke-width="1.0" stroke-linecap="round"
  /><line x1="134.0" y1="180.0" x2="116.0" y2="230.0" stroke="brown"
          stroke-width="1.0" stroke-linecap="round"
  /><line x1="152.0" y1="105.0" x2="134.0" y2="180.0" stroke="brown"
          stroke-width="1.0" stroke-linecap="round"
  /><line x1="170.0" y1="92.5" x2="152.0" y2="105.0" stroke="brown"
          stroke-width="1.0" stroke-linecap="round"
  /><line x1="188.0" y1="123.75" x2="170.0" y2="92.5" stroke="brown"
          stroke-width="1.0" stroke-linecap="round"
  /><line x1="206.0" y1="133.125" x2="188.0" y2="123.75"
          stroke="brown" stroke-width="1.0" stroke-linecap="round"
  /><line x1="224.0" y1="133.125" x2="206.0" y2="133.125"
          stroke="brown" stroke-width="1.0" stroke-linecap="round"
  /><line x1="242.0" y1="132.34375" x2="224.0" y2="133.125"
          stroke="brown" stroke-width="1.0" stroke-linecap="round"
  /><line x1="260.0" y1="120.625" x2="242.0" y2="132.34375"
          stroke="brown" stroke-width="1.0" stroke-linecap="round"
  /><line x1="278.0" y1="115.7421875" x2="260.0" y2="120.625"
          stroke="brown" stroke-width="1.0" stroke-linecap="round"
  /><line x1="296.0" y1="113.7890625" x2="278.0" y2="115.7421875"
          stroke="brown" stroke-width="1.0" stroke-linecap="round"
  /><line x1="314.0" y1="112.2265625" x2="296.0" y2="113.7890625"
          stroke="brown" stroke-width="1.0" stroke-linecap="round"
  /><line x1="332.0" y1="112.9833984375" x2="314.0" y2="112.2265625"
          stroke="brown" stroke-width="1.0" stroke-linecap="round"
  /><line x1="350.0" y1="113.2275390625" x2="332.0"
          y2="112.9833984375" stroke="brown" stroke-width="1.0"
          stroke-linecap="round"
  /><line x1="368.0" y1="114.173583984375" x2="350.0"
          y2="113.2275390625" stroke="brown" stroke-width="1.0"
          stroke-linecap="round"
  /><line x1="386.0" y1="114.9365234375" x2="368.0"
          y2="114.173583984375" stroke="brown" stroke-width="1.0"
          stroke-linecap="round"
  /><line x1="404.0" y1="115.3973388671875" x2="386.0"
          y2="114.9365234375" stroke="brown" stroke-width="1.0"
          stroke-linecap="round"
  /><line x1="422.0" y1="115.65597534179688" x2="404.0"
          y2="115.3973388671875" stroke="brown" stroke-width="1.0"
          stroke-linecap="round"
  /><line x1="440.0" y1="115.72845458984375" x2="422.0"
          y2="115.65597534179688" stroke="brown" stroke-width="1.0"
          stroke-linecap="round"/></svg>