<?xml version='1.0' encoding='UTF-8' ?>
<!-- MADE BY SVG.HS -->
<!DOCTYPE svg PUBLIC "-//W3C//DTD SVG 1.1//EN" "http://www.w3.org/Graphics/SVG/1.1/DTD/svg11.dtd">
<svg xmlns="http://www.w3.org/2000/svg" version="1.1"
     xmlns:xlink="http://www.w3.org/1999/xlink" width="430.0"
     height="110.0"
  ><rect x="0.0" y="0.0" width="430.0" height="110.0"
         stroke-width="0.0" fill="rgb(255,255,255)"
         stroke="rgb(255,255,255)"
  /><line x1="20.34314575050762" y1="30.65685424949238" x2="26.0"
          y2="25.0" stroke="rgb(0,0,0)" stroke-width="8.0"
          stroke-linecap="round"
  /><line x1="15.75453425969925" y1="37.21007060380431"
          x2="20.34314575050762" y2="30.65685424949238" stroke="rgb(0,0,0)"
          stroke-width="8.0" stroke-linecap="round"
  /><line x1="12.373588165773652" y1="44.46053290009751"
          x2="15.75453425969925" y2="37.21007060380431" stroke="rgb(0,0,0)"
          stroke-width="8.0" stroke-linecap="round"
  /><line x1="10.303035804953485" y1="52.18793951041006"
          x2="12.373588165773652" y2="44.46053290009751" stroke="rgb(0,0,0)"
          stroke-width="8.0" stroke-linecap="round"
  /><line x1="9.605789862972218" y1="60.15749709514402"
          x2="10.303035804953485" y2="52.18793951041006" stroke="rgb(0,0,0)"
          stroke-width="8.0" stroke-linecap="round"
  /><line x1="10.303035804953481" y1="68.12705467987799"
          x2="9.605789862972218" y2="60.15749709514402" stroke="rgb(0,0,0)"
          stroke-width="8.0" stroke-linecap="round"
  /><line x1="12.373588165773645" y1="75.85446129019053"
          x2="10.303035804953481" y2="68.12705467987799" stroke="rgb(0,0,0)"
          stroke-width="8.0" stroke-linecap="round"
  /><line x1="15.75453425969924" y1="83.10492358648374"
          x2="12.373588165773645" y2="75.85446129019053" stroke="rgb(0,0,0)"
          stroke-width="8.0" stroke-linecap="round"
  /><line x1="20.343145750507606" y1="89.65813994079568"
          x2="15.75453425969924" y2="83.10492358648374" stroke="rgb(0,0,0)"
          stroke-width="8.0" stroke-linecap="round"
  /><line x1="25.999999999999986" y1="95.31499419028806"
          x2="20.343145750507606" y2="89.65813994079568" stroke="rgb(0,0,0)"
          stroke-width="8.0" stroke-linecap="round"
  /><polyline points="107.99999999999986,19.99999999999998 101.81227039587701,21.091063678535374 95.90800752768992,23.240039617838697 90.46660943498728,26.38163227142851 85.65341024533556,30.42038593624808 81.61465658051603,35.23358512589983 78.47306392692626,40.67498321860249 76.32408798762297,46.579246086789595 75.23302430908763,52.766975690912446 75.23302430908764,59.05016099809203 76.32408798762302,65.23789060221488 78.47306392692633,71.14215347040196 81.61465658051614,76.5835515631046 85.6534102453357,81.39675075275633 90.46660943498745,85.43550441757587 95.9080075276901,88.57709707116565 101.8122703958772,90.72607301046894 108.00000000000006,91.8171366890043 114.28318530717964,91.81713668900429 120.47091491130249,90.72607301046891 126.37517777948958,88.57709707116561 131.81657587219223,85.43550441757581 136.62977506184396,81.39675075275626 140.6685287266635,76.58355156310454 143.8101213802533,71.14215347040188 145.95909731955658,65.23789060221478 147.05016099809194,59.05016099809193 147.05016099809194,52.766975690912346 145.95909731955658,46.579246086789496 143.81012138025326,40.6749832186024 140.66852872666348,35.233585125899744 136.62977506184393,30.42038593624801 131.8165758721922,26.381632271428458 126.37517777948955,23.240039617838665 120.47091491130244,21.091063678535367 114.2831853071796,20.0 108.0,20.0 "
              fill="rgb(0,0,0)" stroke="rgb(0,0,0)" stroke-width="0.0"
  /><polyline points="59.999999999999986,20.000000000000004 52.0,33.85640646055103 79.71281292110204,49.85640646055102 87.71281292110204,36.0 60.0,20.0 "
              fill="rgb(0,0,0)" stroke="rgb(0,0,0)" stroke-width="0.0"
  /><polyline points="59.999999999999986,100.0 52.0,86.14359353944897 79.71281292110204,70.14359353944899 87.71281292110204,84.0 60.0,100.0 "
              fill="rgb(0,0,0)" stroke="rgb(0,0,0)" stroke-width="0.0"
  /><polyline points="140.0,71.43558111343867 170.9096264412502,79.71779055671934 170.9096264412502,39.717790556719336 140.0,48.0 "
              fill="rgb(0,0,0)" stroke="rgb(0,0,0)" stroke-width="0.0"
  /><polyline points="87.99999999999999,42.0 87.31247448843078,42.121229297615045 86.65644528085444,42.36000440198208 86.05184549277637,42.70907025238095 85.51704558281506,43.15782065958312 85.06829517561289,43.69262056954443 84.71922932521403,44.29722035762251 84.480454220847,44.95324956519885 84.35922492323195,45.64077507676806 84.35922492323195,46.33890677756579 84.480454220847,47.026432289134995 84.71922932521403,47.68246149671134 85.0682951756129,48.28706128478941 85.51704558281507,48.82186119475071 86.05184549277638,49.27061160195288 86.65644528085446,49.619677452351745 87.3124744884308,49.858452556718774 88.0,49.97968185433381 88.69813170079773,49.97968185433381 89.38565721236694,49.85845255671877 90.04168641994328,49.61967745235173 90.64628620802135,49.270611601952865 91.18108611798266,48.821861194750696 91.62983652518483,48.287061284789395 91.9789023755837,47.68246149671132 92.21767747995074,47.02643228913497 92.33890677756578,46.33890677756577 92.33890677756578,45.64077507676804 92.21767747995074,44.95324956519883 91.9789023755837,44.297220357622486 91.62983652518483,43.69262056954441 91.18108611798266,43.15782065958311 90.64628620802135,42.70907025238094 90.04168641994328,42.360004401982074 89.38565721236694,42.12122929761504 88.69813170079773,42.0 88.0,42.0 "
              fill="red" stroke="red" stroke-width="0.0"
  /><polyline points="88.0,68.0 84.0,74.92820323027551 92.0,74.92820323027551 88.0,68.0 "
              fill="red" stroke="red" stroke-width="0.0"
  /><polyline points="132.5,56.5 132.5,63.5 139.5,63.5 139.5,56.5 132.5,56.5 "
              fill="red" stroke="red" stroke-width="0.0"
  /><line x1="195.65685424949237" y1="30.65685424949238" x2="190.0"
          y2="25.0" stroke="black" stroke-width="8.0" stroke-linecap="round"
  /><line x1="200.24546574030074" y1="37.21007060380431"
          x2="195.65685424949237" y2="30.65685424949238" stroke="black"
          stroke-width="8.0" stroke-linecap="round"
  /><line x1="203.62641183422633" y1="44.46053290009751"
          x2="200.24546574030074" y2="37.21007060380431" stroke="black"
          stroke-width="8.0" stroke-linecap="round"
  /><line x1="205.6969641950465" y1="52.18793951041006"
          x2="203.62641183422633" y2="44.46053290009751" stroke="black"
          stroke-width="8.0" stroke-linecap="round"
  /><line x1="206.39421013702776" y1="60.15749709514402"
          x2="205.6969641950465" y2="52.18793951041006" stroke="black"
          stroke-width="8.0" stroke-linecap="round"
  /><line x1="205.6969641950465" y1="68.12705467987799"
          x2="206.39421013702776" y2="60.15749709514402" stroke="black"
          stroke-width="8.0" stroke-linecap="round"
  /><line x1="203.62641183422633" y1="75.85446129019053"
          x2="205.6969641950465" y2="68.12705467987799" stroke="black"
          stroke-width="8.0" stroke-linecap="round"
  /><line x1="200.24546574030074" y1="83.10492358648372"
          x2="203.62641183422633" y2="75.85446129019053" stroke="black"
          stroke-width="8.0" stroke-linecap="round"
  /><line x1="195.65685424949237" y1="89.65813994079566"
          x2="200.24546574030074" y2="83.10492358648372" stroke="black"
          stroke-width="8.0" stroke-linecap="round"
  /><line x1="190.0" y1="95.31499419028805" x2="195.65685424949237"
          y2="89.65813994079566" stroke="black" stroke-width="8.0"
          stroke-linecap="round"
  /><line x1="286.0" y1="60.0" x2="230.0" y2="60.0" stroke="black"
          stroke-width="32.0" stroke-linecap="round"
  /><line x1="286.0" y1="60.0" x2="258.28718707889794" y2="76.0"
          stroke="black" stroke-width="32.0" stroke-linecap="round"
  /><line x1="258.28718707889794" y1="44.0" x2="286.0" y2="60.0"
          stroke="black" stroke-width="32.0" stroke-linecap="round"
  /><polyline points="320.0,42.000000000000014 320.0,102.00000000000001 400.0,102.0 400.0,42.0 320.0,42.0 "
              fill="black" stroke="black" stroke-width="0.0"
  /><polyline points="332.0,10.000000000000007 332.0,42.00000000000001 348.0,42.0 348.0,9.999999999999996 332.0,10.0 "
              fill="black" stroke="black" stroke-width="0.0"
  /><polyline points="388.0284271247462,44.8284271247462 388.0284271247462,24.828427124746195 390.8284271247462,24.828427124746195 416.2842712474619,50.2842712474619 427.59797974644664,38.97056274847714 399.31370849898474,10.68629150101524 383.31370849898474,10.68629150101524 372.0,22.0 372.0,42.0 "
              fill="black" stroke="black" stroke-width="0.0"
  /><polyline points="340.0,50.0 339.3124744884308,50.121229297615045 338.6564452808544,50.36000440198208 338.05184549277635,50.70907025238095 337.51704558281506,51.15782065958312 337.0682951756129,51.69262056954443 336.71922932521403,52.29722035762251 336.480454220847,52.95324956519885 336.3592249232319,53.64077507676806 336.3592249232319,54.33890677756579 336.480454220847,55.026432289134995 336.71922932521403,55.68246149671134 337.0682951756129,56.28706128478941 337.51704558281506,56.82186119475071 338.05184549277635,57.27061160195288 338.6564452808544,57.619677452351745 339.3124744884308,57.858452556718774 340.0,57.97968185433381 340.6981317007977,57.97968185433381 341.38565721236694,57.85845255671877 342.0416864199433,57.61967745235173 342.64628620802137,57.270611601952865 343.18108611798266,56.821861194750696 343.6298365251848,56.287061284789395 343.9789023755837,55.68246149671132 344.21767747995074,55.02643228913497 344.3389067775658,54.33890677756577 344.3389067775658,53.64077507676804 344.21767747995074,52.95324956519883 343.9789023755837,52.297220357622486 343.6298365251848,51.69262056954441 343.18108611798266,51.15782065958311 342.64628620802137,50.70907025238094 342.0416864199433,50.360004401982074 341.38565721236694,50.12122929761504 340.6981317007977,50.0 340.0,50.0 "
              fill="red" stroke="red" stroke-width="0.0"
  /><polyline points="376.0,52.0 376.0,59.5 386.0,59.5 386.0,52.0 376.0,52.0 "
              fill="red" stroke="red" stroke-width="0.0"
  /><polyline points="377.5,48.0 377.5,52.0 379.5,52.0 379.5,48.0 377.5,48.0 "
              fill="red" stroke="red" stroke-width="0.0"
  /><polyline points="384.5035533905932,52.35355339059328 384.5035533905932,49.85355339059328 384.8535533905932,49.85355339059328 388.0355339059327,53.03553390593274 389.4497474683058,51.621320343559645 385.9142135623731,48.08578643762691 383.9142135623731,48.08578643762691 382.5,49.5 382.5,52.0 "
              fill="red" stroke="red" stroke-width="0.0"/></svg>