<?xml version='1.0' encoding='UTF-8' ?>
<!-- MADE BY SVG.HS -->
<!DOCTYPE svg PUBLIC "-//W3C//DTD SVG 1.1//EN" "http://www.w3.org/Graphics/SVG/1.1/DTD/svg11.dtd">
<svg xmlns="http://www.w3.org/2000/svg" version="1.1"
     xmlns:xlink="http://www.w3.org/1999/xlink" width="325.0"
     height="175.0"
  ><rect x="0.0" y="0.0" width="325.0" height="175.0"
         stroke-width="0.0" fill="rgb(255,255,255)"
         stroke="rgb(255,255,255)"
  /><polyline points="19.999999999999993,23.000000000000007 20.0,53.00000000000001 60.0,53.0 60.0,23.0 20.0,23.0 "
              fill="rgb(0,0,0)" stroke="rgb(0,0,0)" stroke-width="0.0"
  /><polyline points="26.0,7.0000000000000036 26.000000000000007,23.000000000000004 34.00000000000001,23.0 34.0,6.999999999999998 26.0,7.0 "
              fill="rgb(0,0,0)" stroke="rgb(0,0,0)" stroke-width="0.0"
  /><polyline points="54.014213562373094,24.4142135623731 54.014213562373094,14.414213562373098 55.41421356237309,14.414213562373098 68.14213562373095,27.14213562373095 73.79898987322333,21.48528137423857 59.65685424949238,7.34314575050762 51.65685424949238,7.34314575050762 46.0,13.0 46.0,23.0 "
              fill="rgb(0,0,0)" stroke="rgb(0,0,0)" stroke-width="0.0"
  /><polyline points="19.999999999999993,133.0 20.0,163.0 60.0,163.0 60.0,133.0 20.0,133.0 "
              fill="black" stroke="black" stroke-width="0.0"
  /><polyline points="26.0,117.0 26.000000000000007,133.0 34.00000000000001,133.0 34.0,117.0 26.0,117.0 "
              fill="black" stroke="black" stroke-width="0.0"
  /><polyline points="54.014213562373094,134.41421356237305 54.014213562373094,124.41421356237306 55.41421356237309,124.41421356237306 68.14213562373095,137.14213562373092 73.79898987322333,131.48528137423855 59.65685424949238,117.34314575050762 51.65685424949238,117.34314575050762 46.0,123.0 46.0,133.0 "
              fill="black" stroke="black" stroke-width="0.0"
  /><polyline points="157.99999999999986,52.999999999999986 151.81227039587702,54.09106367853538 145.90800752768993,56.240039617838704 140.4666094349873,59.38163227142852 135.65341024533558,63.42038593624809 131.61465658051605,68.23358512589984 128.47306392692627,73.6749832186025 126.324087987623,79.57924608678961 125.23302430908765,85.76697569091246 125.23302430908767,92.05016099809204 126.32408798762305,98.23789060221489 128.47306392692636,104.14215347040198 131.61465658051617,109.58355156310462 135.65341024533572,114.39675075275635 140.46660943498745,118.43550441757588 145.9080075276901,121.57709707116567 151.8122703958772,123.72607301046895 158.00000000000003,124.81713668900431 164.28318530717962,124.8171366890043 170.47091491130246,123.72607301046892 176.37517777948955,121.57709707116562 181.8165758721922,118.43550441757583 186.62977506184393,114.39675075275628 190.66852872666348,109.58355156310455 193.81012138025326,104.1421534704019 195.95909731955655,98.23789060221479 197.0501609980919,92.05016099809194 197.0501609980919,85.76697569091235 195.95909731955655,79.5792460867895 193.81012138025324,73.67498321860239 190.66852872666345,68.23358512589974 186.6297750618439,63.42038593624801 181.81657587219217,59.38163227142846 176.37517777948952,56.24003961783867 170.47091491130243,54.09106367853537 164.2831853071796,53.0 158.0,53.0 "
              fill="black" stroke="black" stroke-width="0.0"
  /><polyline points="109.99999999999997,53.0 101.99999999999999,66.85640646055103 129.71281292110203,82.85640646055101 137.71281292110203,69.0 110.0,53.0 "
              fill="black" stroke="black" stroke-width="0.0"
  /><polyline points="109.99999999999997,133.0 101.99999999999999,119.14359353944897 129.71281292110203,103.14359353944899 137.71281292110203,117.0 110.0,133.0 "
              fill="black" stroke="black" stroke-width="0.0"
  /><polyline points="190.0,104.43558111343867 220.9096264412502,112.71779055671934 220.9096264412502,72.71779055671934 190.0,81.0 "
              fill="black" stroke="black" stroke-width="0.0"
  /><line x1="98.24871130596428" y1="56.6" x2="74.0" y2="42.6"
          stroke="black" stroke-width="4.0" stroke-linecap="round"
  /><line x1="98.24871130596428" y1="56.6" x2="90.24871130596428"
          y2="56.6" stroke="black" stroke-width="4.0" stroke-linecap="round"
  /><line x1="94.24871130596428" y1="49.671796769724494"
          x2="98.24871130596428" y2="56.6" stroke="black" stroke-width="4.0"
          stroke-linecap="round"
  /><line x1="98.24871130596428" y1="129.4" x2="74.0" y2="143.4"
          stroke="black" stroke-width="4.0" stroke-linecap="round"
  /><line x1="98.24871130596428" y1="129.4" x2="94.24871130596428"
          y2="136.3282032302755" stroke="black" stroke-width="4.0"
          stroke-linecap="round"
  /><line x1="90.24871130596428" y1="129.4" x2="98.24871130596428"
          y2="129.4" stroke="black" stroke-width="4.0" stroke-linecap="round"
  /><line x1="258.0" y1="93.0" x2="230.0" y2="93.0" stroke="black"
          stroke-width="4.0" stroke-linecap="round"
  /><line x1="258.0" y1="93.0" x2="251.0717967697245" y2="97.0"
          stroke="black" stroke-width="4.0" stroke-linecap="round"
  /><line x1="251.0717967697245" y1="89.0" x2="258.0" y2="93.0"
          stroke="black" stroke-width="4.0" stroke-linecap="round"
  /><polyline points="134.0,77.0 134.0,84.5 144.0,84.5 144.0,77.0 134.0,77.0 "
              fill="red" stroke="red" stroke-width="0.0"
  /><polyline points="135.5,73.0 135.5,77.0 137.5,77.0 137.5,73.0 135.5,73.0 "
              fill="red" stroke="red" stroke-width="0.0"
  /><polyline points="142.50355339059328,77.35355339059328 142.50355339059328,74.85355339059328 142.85355339059328,74.85355339059328 146.03553390593274,78.03553390593274 147.44974746830584,76.62132034355965 143.9142135623731,73.08578643762691 141.9142135623731,73.08578643762691 140.5,74.5 140.5,77.0 "
              fill="red" stroke="red" stroke-width="0.0"
  /><polyline points="134.0,103.0 134.0,110.5 144.0,110.5 144.0,103.0 134.0,103.0 "
              fill="red" stroke="red" stroke-width="0.0"
  /><polyline points="135.5,99.0 135.5,103.0 137.5,103.0 137.5,99.0 135.5,99.0 "
              fill="red" stroke="red" stroke-width="0.0"
  /><polyline points="142.50355339059328,103.35355339059328 142.50355339059328,100.85355339059328 142.85355339059328,100.85355339059328 146.03553390593274,104.03553390593274 147.44974746830584,102.62132034355965 143.9142135623731,99.08578643762691 141.9142135623731,99.08578643762691 140.5,100.5 140.5,103.0 "
              fill="red" stroke="red" stroke-width="0.0"
  /><polyline points="182.0,91.0 182.0,98.5 192.0,98.5 192.0,91.0 182.0,91.0 "
              fill="red" stroke="red" stroke-width="0.0"
  /><polyline points="183.5,87.0 183.5,91.0 185.5,91.0 185.5,87.0 183.5,87.0 "
              fill="red" stroke="red" stroke-width="0.0"
  /><polyline points="190.50355339059328,91.35355339059328 190.50355339059328,88.85355339059328 190.85355339059328,88.85355339059328 194.03553390593274,92.03553390593274 195.44974746830584,90.62132034355965 191.9142135623731,87.08578643762691 189.9142135623731,87.08578643762691 188.5,88.5 188.5,91.0 "
              fill="red" stroke="red" stroke-width="0.0"
  /><polyline points="267.0,84.0 267.0,114.0 307.0,114.0 307.0,84.0 267.0,84.0 "
              fill="black" stroke="black" stroke-width="0.0"
  /><polyline points="273.0,68.0 273.0,84.0 281.0,84.0 281.0,68.0 273.0,68.0 "
              fill="black" stroke="black" stroke-width="0.0"
  /><polyline points="301.01421356237313,85.41421356237309 301.01421356237313,75.41421356237309 302.4142135623731,75.41421356237309 315.14213562373095,88.14213562373095 320.7989898732233,82.48528137423857 306.65685424949237,68.34314575050762 298.65685424949237,68.34314575050762 293.0,74.0 293.0,84.0 "
              fill="black" stroke="black" stroke-width="0.0"/></svg>