<?xml version='1.0' encoding='UTF-8' ?>
<!-- MADE BY SVG.HS -->
<!DOCTYPE svg PUBLIC "-//W3C//DTD SVG 1.1//EN" "http://www.w3.org/Graphics/SVG/1.1/DTD/svg11.dtd">
<svg xmlns="http://www.w3.org/2000/svg" version="1.1"
     xmlns:xlink="http://www.w3.org/1999/xlink" width="310.0"
     height="175.0"
  ><rect x="0.0" y="0.0" width="310.0" height="175.0"
         stroke-width="0.0" fill="rgb(255,255,255)"
         stroke="rgb(255,255,255)"
  /><polyline points="21.999999999999993,23.000000000000007 22.0,53.00000000000001 62.0,53.0 62.0,23.0 22.0,23.0 "
              fill="rgb(0,0,0)" stroke="rgb(0,0,0)" stroke-width="0.0"
  /><polyline points="28.0,7.0000000000000036 28.000000000000007,23.000000000000004 36.00000000000001,23.0 36.0,6.999999999999998 28.0,7.0 "
              fill="rgb(0,0,0)" stroke="rgb(0,0,0)" stroke-width="0.0"
  /><polyline points="56.014213562373094,24.4142135623731 56.014213562373094,14.414213562373098 57.41421356237309,14.414213562373098 70.14213562373095,27.14213562373095 75.79898987322333,21.48528137423857 61.65685424949238,7.34314575050762 53.65685424949238,7.34314575050762 48.0,13.0 48.0,23.0 "
              fill="rgb(0,0,0)" stroke="rgb(0,0,0)" stroke-width="0.0"
  /><polyline points="43.999999999999936,139.0 41.249897953723114,139.48491719046018 38.62578112341774,140.44001760792833 36.207381971105455,141.8362810095238 34.068182331260246,143.6312826383325 32.27318070245156,145.77048227817772 30.876917300856107,148.18888143049003 29.921816883387983,150.8129982607954 29.436899692927827,153.56310030707223 29.436899692927835,156.35562711026316 29.921816883388004,159.10572915653998 30.876917300856142,161.72984598684536 32.27318070245161,164.14824513915764 34.0681823312603,166.28744477900284 36.20738197110552,168.08244640781152 38.62578112341781,169.47870980940698 41.249897953723185,170.4338102268751 44.00000000000001,170.91872741733525 46.79252680319093,170.91872741733525 49.542628849467754,170.43381022687507 52.16674567977313,169.47870980940692 54.58514483208542,168.08244640781146 56.72434447193063,166.28744477900278 58.51934610073932,164.14824513915758 59.91560950233478,161.72984598684528 60.87070991980291,159.1057291565399 61.35562711026308,156.35562711026307 61.35562711026308,153.56310030707215 60.87070991980291,150.81299826079533 59.91560950233478,148.18888143048994 58.51934610073932,145.77048227817764 56.72434447193063,143.63128263833244 54.58514483208541,141.83628100952376 52.16674567977312,140.4400176079283 49.54262884946775,139.48491719046015 46.792526803190924,139.0 44.0,139.0 "
              fill="black" stroke="black" stroke-width="0.0"
  /><polyline points="157.99999999999986,52.999999999999986 151.81227039587702,54.09106367853538 145.90800752768993,56.240039617838704 140.4666094349873,59.38163227142852 135.65341024533558,63.42038593624809 131.61465658051605,68.23358512589984 128.47306392692627,73.6749832186025 126.324087987623,79.57924608678961 125.23302430908765,85.76697569091246 125.23302430908767,92.05016099809204 126.32408798762305,98.23789060221489 128.47306392692636,104.14215347040198 131.61465658051617,109.58355156310462 135.65341024533572,114.39675075275635 140.46660943498745,118.43550441757588 145.9080075276901,121.57709707116567 151.8122703958772,123.72607301046895 158.00000000000003,124.81713668900431 164.28318530717962,124.8171366890043 170.47091491130246,123.72607301046892 176.37517777948955,121.57709707116562 181.8165758721922,118.43550441757583 186.62977506184393,114.39675075275628 190.66852872666348,109.58355156310455 193.81012138025326,104.1421534704019 195.95909731955655,98.23789060221479 197.0501609980919,92.05016099809194 197.0501609980919,85.76697569091235 195.95909731955655,79.5792460867895 193.81012138025324,73.67498321860239 190.66852872666345,68.23358512589974 186.6297750618439,63.42038593624801 181.81657587219217,59.38163227142846 176.37517777948952,56.24003961783867 170.47091491130243,54.09106367853537 164.2831853071796,53.0 158.0,53.0 "
              fill="black" stroke="black" stroke-width="0.0"
  /><polyline points="109.99999999999997,53.0 101.99999999999999,66.85640646055103 129.71281292110203,82.85640646055101 137.71281292110203,69.0 110.0,53.0 "
              fill="black" stroke="black" stroke-width="0.0"
  /><polyline points="109.99999999999997,133.0 101.99999999999999,119.14359353944897 129.71281292110203,103.14359353944899 137.71281292110203,117.0 110.0,133.0 "
              fill="black" stroke="black" stroke-width="0.0"
  /><polyline points="190.0,104.43558111343867 220.9096264412502,112.71779055671934 220.9096264412502,72.71779055671934 190.0,81.0 "
              fill="black" stroke="black" stroke-width="0.0"
  /><line x1="98.24871130596428" y1="56.6" x2="74.0" y2="42.6"
          stroke="black" stroke-width="4.0" stroke-linecap="round"
  /><line x1="98.24871130596428" y1="56.6" x2="90.24871130596428"
          y2="56.6" stroke="black" stroke-width="4.0" stroke-linecap="round"
  /><line x1="94.24871130596428" y1="49.671796769724494"
          x2="98.24871130596428" y2="56.6" stroke="black" stroke-width="4.0"
          stroke-linecap="round"
  /><line x1="98.24871130596428" y1="129.4" x2="74.0" y2="143.4"
          stroke="black" stroke-width="4.0" stroke-linecap="round"
  /><line x1="98.24871130596428" y1="129.4" x2="94.24871130596428"
          y2="136.3282032302755" stroke="black" stroke-width="4.0"
          stroke-linecap="round"
  /><line x1="90.24871130596428" y1="129.4" x2="98.24871130596428"
          y2="129.4" stroke="black" stroke-width="4.0" stroke-linecap="round"
  /><line x1="258.0" y1="93.0" x2="230.0" y2="93.0" stroke="black"
          stroke-width="4.0" stroke-linecap="round"
  /><line x1="258.0" y1="93.0" x2="251.0717967697245" y2="97.0"
          stroke="black" stroke-width="4.0" stroke-linecap="round"
  /><line x1="251.0717967697245" y1="89.0" x2="258.0" y2="93.0"
          stroke="black" stroke-width="4.0" stroke-linecap="round"
  /><polyline points="134.0,77.0 134.0,84.5 144.0,84.5 144.0,77.0 134.0,77.0 "
              fill="red" stroke="red" stroke-width="0.0"
  /><polyline points="135.5,73.0 135.5,77.0 137.5,77.0 137.5,73.0 135.5,73.0 "
              fill="red" stroke="red" stroke-width="0.0"
  /><polyline points="142.50355339059328,77.35355339059328 142.50355339059328,74.85355339059328 142.85355339059328,74.85355339059328 146.03553390593274,78.03553390593274 147.44974746830584,76.62132034355965 143.9142135623731,73.08578643762691 141.9142135623731,73.08578643762691 140.5,74.5 140.5,77.0 "
              fill="red" stroke="red" stroke-width="0.0"
  /><polyline points="138.0,101.00000000000001 137.3124744884308,101.12122929761506 136.65644528085446,101.3600044019821 136.05184549277638,101.70907025238097 135.5170455828151,102.15782065958314 135.06829517561292,102.69262056954445 134.71922932521406,103.29722035762252 134.48045422084704,103.95324956519886 134.359224923232,104.64077507676807 134.359224923232,105.3389067775658 134.48045422084704,106.026432289135 134.71922932521406,106.68246149671134 135.06829517561292,107.28706128478942 135.5170455828151,107.82186119475072 136.05184549277638,108.2706116019529 136.65644528085446,108.61967745235175 137.3124744884308,108.85845255671879 138.0,108.97968185433383 138.69813170079775,108.97968185433383 139.38565721236694,108.85845255671879 140.0416864199433,108.61967745235175 140.64628620802137,108.27061160195288 141.18108611798266,107.82186119475071 141.62983652518483,107.2870612847894 141.9789023755837,106.68246149671133 142.2176774799507,106.02643228913499 142.33890677756574,105.33890677756578 142.33890677756574,104.64077507676805 142.2176774799507,103.95324956519885 141.9789023755837,103.2972203576225 141.62983652518483,102.69262056954443 141.18108611798266,102.15782065958312 140.64628620802137,101.70907025238095 140.0416864199433,101.36000440198208 139.38565721236694,101.12122929761505 138.69813170079775,101.0 138.0,101.0 "
              fill="red" stroke="red" stroke-width="0.0"
  /><polyline points="186.0,89.0 182.0,95.92820323027551 190.0,95.92820323027551 186.0,89.0 "
              fill="red" stroke="red" stroke-width="0.0"
  /><polyline points="279.0,78.99999999999999 263.0,106.71281292110203 295.0,106.71281292110203 279.0,79.0 "
              fill="black" stroke="black" stroke-width="0.0"/></svg>