<?xml version='1.0' encoding='UTF-8' ?>
<!-- MADE BY SVG.HS -->
<!DOCTYPE svg PUBLIC "-//W3C//DTD SVG 1.1//EN" "http://www.w3.org/Graphics/SVG/1.1/DTD/svg11.dtd">
<svg xmlns="http://www.w3.org/2000/svg" version="1.1"
     xmlns:xlink="http://www.w3.org/1999/xlink" width="310.0"
     height="160.0"
  ><rect x="0.0" y="0.0" width="310.0" height="160.0"
         stroke-width="0.0" fill="rgb(255,255,255)"
         stroke="rgb(255,255,255)"
  /><polyline points="37.99999999999992,4.999999999999992 35.2498979537231,5.484917190460168 32.625781123417724,6.440017607928311 30.20738197110544,7.836281009523785 28.068182331260235,9.631282638332483 26.273180702451555,11.770482278177703 24.8769173008561,14.188881430489998 23.921816883387976,16.81299826079538 23.43689969292782,19.5631003070722 23.436899692927827,22.35562711026313 23.921816883387997,25.105729156539947 24.876917300856135,27.729845986845323 26.273180702451604,30.14824513915761 28.0681823312603,32.28744477900282 30.207381971105516,34.0824464078115 32.62578112341781,35.478709809406965 35.249897953723185,36.433810226875096 38.00000000000001,36.918727417335255 40.79252680319093,36.91872741733525 43.542628849467754,36.43381022687508 46.16674567977313,35.47870980940694 48.58514483208542,34.082446407811474 50.72434447193063,32.28744477900278 52.51934610073932,30.148245139157567 53.91560950233478,27.729845986845277 54.87070991980291,25.1057291565399 55.35562711026308,22.35562711026308 55.35562711026308,19.56310030707215 54.87070991980291,16.81299826079533 53.91560950233478,14.188881430489952 52.51934610073932,11.770482278177662 50.72434447193063,9.631282638332449 48.58514483208541,7.83628100952376 46.16674567977312,6.440017607928296 43.54262884946775,5.4849171904601635 40.792526803190924,5.0 38.0,5.0 "
              fill="rgb(0,0,0)" stroke="rgb(0,0,0)" stroke-width="0.0"
  /><polyline points="41.0,125.99999999999999 25.0,153.71281292110203 57.0,153.71281292110203 41.0,126.0 "
              fill="rgb(0,0,0)" stroke="rgb(0,0,0)" stroke-width="0.0"
  /><polyline points="147.99999999999983,42.99999999999999 141.812270395877,44.091063678535384 135.9080075276899,46.24003961783871 130.46660943498728,49.38163227142853 125.65341024533556,53.420385936248096 121.61465658051603,58.23358512589984 118.47306392692626,63.674983218602506 116.32408798762297,69.57924608678961 115.23302430908763,75.76697569091246 115.23302430908764,82.05016099809204 116.32408798762302,88.23789060221489 118.47306392692633,94.14215347040198 121.61465658051614,99.58355156310462 125.6534102453357,104.39675075275635 130.46660943498745,108.43550441757588 135.9080075276901,111.57709707116567 141.8122703958772,113.72607301046895 148.00000000000003,114.81713668900431 154.28318530717962,114.8171366890043 160.47091491130246,113.72607301046892 166.37517777948955,111.57709707116562 171.8165758721922,108.43550441757583 176.62977506184393,104.39675075275628 180.66852872666348,99.58355156310455 183.81012138025326,94.1421534704019 185.95909731955655,88.23789060221479 187.0501609980919,82.05016099809194 187.0501609980919,75.76697569091235 185.95909731955655,69.5792460867895 183.81012138025324,63.6749832186024 180.66852872666345,58.233585125899744 176.6297750618439,53.42038593624801 171.81657587219217,49.38163227142846 166.37517777948952,46.24003961783867 160.47091491130243,44.09106367853537 154.2831853071796,43.0 148.0,43.0 "
              fill="rgb(0,0,0)" stroke="rgb(0,0,0)" stroke-width="0.0"
  /><polyline points="99.99999999999999,42.99999999999999 92.0,56.85640646055102 119.71281292110204,72.85640646055101 127.71281292110204,59.0 100.0,43.0 "
              fill="rgb(0,0,0)" stroke="rgb(0,0,0)" stroke-width="0.0"
  /><polyline points="99.99999999999999,123.0 92.0,109.14359353944897 119.71281292110204,93.14359353944899 127.71281292110204,107.0 100.0,123.0 "
              fill="rgb(0,0,0)" stroke="rgb(0,0,0)" stroke-width="0.0"
  /><polyline points="180.0,94.43558111343867 210.9096264412502,102.71779055671934 210.9096264412502,62.717790556719336 180.0,71.0 "
              fill="rgb(0,0,0)" stroke="rgb(0,0,0)" stroke-width="0.0"
  /><line x1="88.24871130596428" y1="46.6" x2="64.0" y2="32.6"
          stroke="rgb(0,0,0)" stroke-width="4.0" stroke-linecap="round"
  /><line x1="88.24871130596428" y1="46.6" x2="80.24871130596428"
          y2="46.6" stroke="rgb(0,0,0)" stroke-width="4.0"
          stroke-linecap="round"
  /><line x1="84.24871130596428" y1="39.671796769724494"
          x2="88.24871130596428" y2="46.6" stroke="rgb(0,0,0)"
          stroke-width="4.0" stroke-linecap="round"
  /><line x1="88.24871130596428" y1="119.4" x2="64.0" y2="133.4"
          stroke="rgb(0,0,0)" stroke-width="4.0" stroke-linecap="round"
  /><line x1="88.24871130596428" y1="119.4" x2="84.24871130596428"
          y2="126.32820323027552" stroke="rgb(0,0,0)" stroke-width="4.0"
          stroke-linecap="round"
  /><line x1="80.24871130596428" y1="119.4" x2="88.24871130596428"
          y2="119.4" stroke="rgb(0,0,0)" stroke-width="4.0"
          stroke-linecap="round"
  /><line x1="248.0" y1="83.0" x2="220.0" y2="83.0"
          stroke="rgb(0,0,0)" stroke-width="4.0" stroke-linecap="round"
  /><line x1="248.0" y1="83.0" x2="241.0717967697245" y2="87.0"
          stroke="rgb(0,0,0)" stroke-width="4.0" stroke-linecap="round"
  /><line x1="241.0717967697245" y1="79.0" x2="248.0" y2="83.0"
          stroke="rgb(0,0,0)" stroke-width="4.0" stroke-linecap="round"
  /><polyline points="127.99999999999999,65.00000000000001 127.31247448843078,65.12122929761506 126.65644528085444,65.3600044019821 126.05184549277637,65.70907025238097 125.51704558281506,66.15782065958314 125.06829517561289,66.69262056954445 124.71922932521403,67.29722035762252 124.480454220847,67.95324956519886 124.35922492323195,68.64077507676807 124.35922492323195,69.3389067775658 124.480454220847,70.026432289135 124.71922932521403,70.68246149671134 125.0682951756129,71.28706128478942 125.51704558281507,71.82186119475072 126.05184549277638,72.2706116019529 126.65644528085446,72.61967745235175 127.3124744884308,72.85845255671879 128.0,72.97968185433383 128.69813170079775,72.97968185433383 129.38565721236694,72.85845255671879 130.0416864199433,72.61967745235175 130.64628620802137,72.27061160195288 131.18108611798266,71.82186119475071 131.62983652518483,71.2870612847894 131.9789023755837,70.68246149671133 132.2176774799507,70.02643228913499 132.33890677756574,69.33890677756578 132.33890677756574,68.64077507676805 132.2176774799507,67.95324956519885 131.9789023755837,67.2972203576225 131.62983652518483,66.69262056954443 131.18108611798266,66.15782065958312 130.64628620802137,65.70907025238095 130.0416864199433,65.36000440198208 129.38565721236694,65.12122929761505 128.69813170079775,65.0 128.0,65.0 "
              fill="red" stroke="red" stroke-width="0.0"
  /><polyline points="128.0,91.0 124.0,97.92820323027551 132.0,97.92820323027551 128.0,91.0 "
              fill="red" stroke="red" stroke-width="0.0"
  /><polyline points="172.5,79.5 172.5,86.5 179.5,86.5 179.5,79.5 172.5,79.5 "
              fill="red" stroke="red" stroke-width="0.0"
  /><polyline points="262.0,68.0 262.0,96.0 290.0,96.0 290.0,68.0 262.0,68.0 "
              fill="black" stroke="black" stroke-width="0.0"/></svg>