<?xml version='1.0' encoding='UTF-8' ?>
<!-- MADE BY SVG.HS -->
<!DOCTYPE svg PUBLIC "-//W3C//DTD SVG 1.1//EN" "http://www.w3.org/Graphics/SVG/1.1/DTD/svg11.dtd">
<svg xmlns="http://www.w3.org/2000/svg" version="1.1"
     xmlns:xlink="http://www.w3.org/1999/xlink" width="360.0"
     height="147.0"
  ><rect x="0.0" y="0.0" width="360.0" height="147.0"
         stroke-width="0.0" fill="rgb(255,255,255)"
         stroke="rgb(255,255,255)"
  /><polyline points="170.0,8.999999999999996 206.0,9.0 206.0,45.0 198.0,45.0 198.0,17.0 178.0,17.0 178.0,45.0 170.0,45.0 "
              fill="black" stroke="black" stroke-width="0.0"
  /><polyline points="207.33080709941996,1.669192900580103 207.56502210241223,2.9974921889318074 207.56502210241223,4.346282634873025 207.33080709941996,5.674581923224729 206.86949359778285,6.942030352262226 206.19509837481223,8.110117142829063 205.32811258809764,9.143350568874302 204.2948791620524,10.0103363555889 203.12679237148558,10.684731578559509 201.85934394244808,11.146045080196618 200.53104465409638,11.38026008318888 199.18225420815517,11.380260083188881 197.85395491980347,11.146045080196625 198.6832930682597,11.975383228652852 199.64404476487726,12.648108808972243 200.70701805551826,13.143781394812363 201.83991503463702,13.44734022547489 203.00831320079652,13.549561819498326 204.17671136695603,13.447340225474887 205.30960834607478,13.143781394812356 206.37258163671578,12.648108808972232 207.33333333333334,11.975383228652838 208.16267148178957,11.14604508019661 208.83539706210897,10.185293383579035 209.33106964794908,9.122320092938025 209.6346284786116,7.989423113819267 209.73685007263504,6.821024947659752 209.6346284786116,5.652626781500237 209.33106964794908,4.5197298023814785 208.83539706210897,3.4567565117404686 208.16267148178957,2.496004815122895 207.33333333333334,1.6666666666666665 "
              fill="red" stroke="red" stroke-width="0.0"
  /><polyline points="9.999999999999996,63.0 10.0,87.0 42.0,87.0 42.0,63.0 10.0,63.0 "
              fill="black" stroke="black" stroke-width="0.0"
  /><polyline points="46.0,55.000000000000014 46.000000000000014,87.00000000000001 70.00000000000001,87.0 70.0,54.99999999999999 46.0,55.0 "
              fill="black" stroke="black" stroke-width="0.0"
  /><polyline points="21.999999999999957,87.0 20.762454079175388,87.21821273570708 19.58160150553797,87.64800792356775 18.493321886997446,88.27632645428571 17.530682049067106,89.08407718724962 16.722931316103203,90.04671702517997 16.09461278538525,91.13499664372051 15.6648175975246,92.31584921735794 15.446604861817534,93.55339513818251 15.44660486181754,94.81003219961843 15.664817597524621,96.047578120443 16.094612785385287,97.22843069408043 16.722931316103253,98.31671031262096 17.530682049067167,99.2793501505513 18.493321886997517,100.0871008835152 19.58160150553805,100.71541941423315 20.76245407917547,101.1452146020938 22.00000000000004,101.36342733780087 23.256637061435956,101.36342733780087 24.494182982260526,101.14521460209379 25.675035555897942,100.71541941423312 26.76331517443847,100.08710088351516 27.725955012368814,99.27935015055125 28.53370574533272,98.3167103126209 29.162024276050676,97.22843069408037 29.59181946391133,96.04757812044295 29.8100321996184,94.81003219961838 29.810032199618398,93.55339513818247 29.59181946391132,92.3158492173579 29.16202427605066,91.13499664372047 28.533705745332696,90.04671702517994 27.725955012368786,89.0840771872496 26.76331517443844,88.2763264542857 25.675035555897907,87.64800792356773 24.494182982260487,87.21821273570707 23.256637061435917,87.0 22.0,87.0 "
              fill="black" stroke="black" stroke-width="0.0"
  /><polyline points="57.99999999999994,87.0 56.76245407917538,87.2182127357071 55.58160150553796,87.64800792356777 54.49332188699744,88.27632645428575 53.53068204906711,89.08407718724968 52.722931316103214,90.04671702518003 52.09461278538527,91.13499664372057 51.66481759752463,92.315849217358 51.446604861817576,93.55339513818257 51.44660486181759,94.81003219961849 51.66481759752468,96.04757812044306 52.09461278538536,97.22843069408047 52.72293131610333,98.316710312621 53.53068204906725,99.27935015055134 54.493321886997606,100.08710088351523 55.581601505538146,100.71541941423318 56.76245407917557,101.14521460209383 58.00000000000014,101.36342733780089 59.25663706143606,101.36342733780087 60.494182982260625,101.14521460209379 61.67503555589804,100.71541941423311 62.76331517443857,100.08710088351513 63.72595501236891,99.27935015055121 64.53370574533281,98.31671031262086 65.16202427605076,97.22843069408032 65.5918194639114,96.04757812044289 65.81003219961846,94.81003219961832 65.81003219961845,93.5533951381824 65.59181946391136,92.31584921735782 65.16202427605069,91.13499664372041 64.53370574533272,90.04671702517989 63.7259550123688,89.08407718724955 62.763315174438446,88.27632645428565 61.675035555897914,87.6480079235677 60.49418298226049,87.21821273570706 59.25663706143592,86.99999999999999 58.0,87.0 "
              fill="black" stroke="black" stroke-width="0.0"
  /><polyline points="69.46666666666664,47.8 67.81857603000026,52.87230142024082 62.48524269666693,52.87230142024082 66.79999999999998,56.00715609913401 65.1519093633336,61.07945751937483 69.46666666666665,57.944602840481636 73.78142396999971,61.07945751937483 72.13333333333333,56.00715609913401 76.44809063666638,52.87230142024082 71.11475730333305,52.87230142024082 69.46666666666667,47.8 "
              fill="red" stroke="red" stroke-width="0.0"
  /><polyline points="25.999999999999932,40.19999999999998 24.074928567606158,40.5394420333221 22.238046786392395,41.2080123255498 20.545167379773797,42.18539670666664 19.047727631882154,43.441897846832724 17.791226491716078,44.93933759472438 16.81384211059926,46.63221700134299 16.145271818371572,48.469098782556756 15.805829785049465,50.394170214950535 15.80582978504947,52.34893897718418 16.14527181837159,54.274010409577954 16.81384211059929,56.110892190791716 17.791226491716117,57.80377159741032 19.047727631882204,59.301211345301965 20.545167379773858,60.557712485468045 22.238046786392463,61.535096866584865 24.07492856760623,62.20366715881256 26.000000000000004,62.543109192134665 27.954768762233652,62.543109192134665 29.879840194627427,62.20366715881255 31.71672197584119,61.53509686658486 33.40960138245979,60.55771248546803 34.90704113035144,59.301211345301944 36.16354227051752,57.8037715974103 37.140926651634345,56.110892190791695 37.80949694386204,54.27401040957793 38.14893897718415,52.348938977184154 38.14893897718415,50.394170214950506 37.80949694386204,48.46909878255673 37.140926651634345,46.632217001342966 36.16354227051752,44.939337594724364 34.90704113035144,43.44189784683272 33.40960138245979,42.18539670666664 31.71672197584119,41.20801232554981 29.879840194627423,40.53944203332212 27.95476876223365,40.2 26.0,40.2 "
              fill="black" stroke="black" stroke-width="0.0"
  /><line x1="150.0" y1="75.0" x2="90.0" y2="75.0" stroke="black"
          stroke-width="4.0" stroke-linecap="round"
  /><line x1="150.0" y1="75.0" x2="143.0717967697245" y2="79.0"
          stroke="black" stroke-width="4.0" stroke-linecap="round"
  /><line x1="143.0717967697245" y1="71.0" x2="150.0" y2="75.0"
          stroke="black" stroke-width="4.0" stroke-linecap="round"
  /><polyline points="170.0,58.99999999999999 206.0,59.0 206.0,95.0 198.0,95.0 198.0,67.0 178.0,67.0 178.0,95.0 170.0,95.0 "
              fill="black" stroke="black" stroke-width="0.0"
  /><polyline points="204.66666666666666,51.0 203.01857603000028,56.07230142024082 197.68524269666693,56.07230142024082 202.0,59.20715609913401 200.35190936333362,64.27945751937483 204.66666666666666,61.14460284048164 208.98142396999972,64.27945751937483 207.33333333333334,59.20715609913401 211.64809063666638,56.07230142024082 206.31475730333304,56.07230142024082 204.66666666666666,51.0 "
              fill="red" stroke="red" stroke-width="0.0"
  /><line x1="290.0" y1="75.0" x2="230.0" y2="75.0" stroke="black"
          stroke-width="4.0" stroke-linecap="round"
  /><line x1="290.0" y1="75.0" x2="283.0717967697245" y2="79.0"
          stroke="black" stroke-width="4.0" stroke-linecap="round"
  /><line x1="283.0717967697245" y1="71.0" x2="290.0" y2="75.0"
          stroke="black" stroke-width="4.0" stroke-linecap="round"
  /><polyline points="315.99999999999994,60.0 313.2498979537231,60.48491719046017 310.62578112341777,61.44001760792832 308.20738197110546,62.836281009523795 306.06818233126023,64.6312826383325 304.27318070245155,66.77048227817771 302.8769173008561,69.18888143049 301.921816883388,71.81299826079538 301.4368996929278,74.5631003070722 301.4368996929278,77.35562711026313 301.921816883388,80.10572915653995 302.8769173008561,82.72984598684532 304.2731807024516,85.14824513915761 306.0681823312603,87.28744477900283 308.2073819711055,89.0824464078115 310.6257811234178,90.47870980940696 313.2498979537232,91.4338102268751 316.0,91.91872741733525 318.7925268031909,91.91872741733525 321.54262884946775,91.43381022687508 324.1667456797731,90.47870980940695 326.5851448320854,89.08244640781149 328.72434447193064,87.2874447790028 330.5193461007393,85.14824513915758 331.9156095023348,82.72984598684529 332.87070991980295,80.10572915653991 333.35562711026313,77.35562711026309 333.35562711026313,74.56310030707216 332.87070991980295,71.81299826079534 331.9156095023348,69.18888143048996 330.5193461007393,66.77048227817767 328.72434447193064,64.63128263833245 326.5851448320854,62.83628100952376 324.1667456797731,61.4400176079283 321.54262884946775,60.484917190460166 318.7925268031909,60.0 316.0,60.0 "
              fill="black" stroke="black" stroke-width="0.0"
  /><polyline points="170.0,109.0 206.0,109.0 206.0,145.0 198.0,145.0 198.0,117.0 178.0,117.0 178.0,145.0 170.0,145.0 "
              fill="black" stroke="black" stroke-width="0.0"
  /><polyline points="205.99999999999997,104.33333333333331 205.463730100976,104.42789218547306 204.95202731906645,104.61413676687934 204.48043948436555,104.88640813019046 204.06329555459573,105.23643344780815 203.71327023697802,105.65357737757797 203.4409988736669,106.12516521227887 203.25475429226063,106.63686799418842 203.1601954401209,107.1731378932124 203.1601954401209,107.71768061983462 203.25475429226063,108.2539505188586 203.44099887366693,108.76565330076815 203.71327023697805,109.23724113546905 204.06329555459575,109.65438506523887 204.48043948436558,110.00441038285656 204.95202731906647,110.27668174616768 205.46373010097602,110.46292632757397 206.0,110.5574851797137 206.54454272662224,110.5574851797137 207.08081262564622,110.46292632757397 207.59251540755577,110.27668174616768 208.06410324225666,110.00441038285656 208.48124717202649,109.65438506523887 208.8312724896442,109.23724113546905 209.1035438529553,108.76565330076815 209.2897884343616,108.2539505188586 209.38434728650134,107.71768061983462 209.38434728650134,107.1731378932124 209.2897884343616,106.63686799418842 209.1035438529553,106.12516521227887 208.8312724896442,105.65357737757797 208.48124717202649,105.23643344780815 208.06410324225666,104.88640813019046 207.59251540755577,104.61413676687934 207.08081262564622,104.42789218547306 206.54454272662224,104.33333333333333 206.0,104.33333333333333 "
              fill="red" stroke="red" stroke-width="0.0"
  /><line x1="206.0" y1="101.66666666666667" x2="206.0"
          y2="102.73333333333333" stroke="red"
          stroke-width="1.3333333333333333" stroke-linecap="round"
  /><line x1="209.77820353475408" y1="102.84362294853986"
          x2="209.09256341775512" y2="103.6607370212001" stroke="red"
          stroke-width="1.3333333333333333" stroke-linecap="round"
  /><line x1="211.91594244239417" y1="106.1738061870766"
          x2="210.86548083918115" y2="106.35903090992133" stroke="red"
          stroke-width="1.3333333333333333" stroke-linecap="round"
  /><line x1="211.41294492971383" y1="110.09898663410148"
          x2="210.48918449901043" y2="109.56565330076815" stroke="red"
          stroke-width="1.3333333333333333" stroke-linecap="round"
  /><line x1="208.50456912309093" y1="112.78252873493011"
          x2="208.13974763687688" y2="111.78018993942514" stroke="red"
          stroke-width="1.3333333333333333" stroke-linecap="round"
  /><line x1="204.55167638544097" y1="112.96877331633642"
          x2="204.916497871655" y2="111.96643452083146" stroke="red"
          stroke-width="1.3333333333333333" stroke-linecap="round"
  /><line x1="201.4038691602196" y1="110.57057446880246"
          x2="202.327629590923" y2="110.03724113546912" stroke="red"
          stroke-width="1.3333333333333333" stroke-linecap="round"
  /><line x1="200.5340414320884" y1="106.71007608610066"
          x2="201.58450303530142" y2="106.89530080894538" stroke="red"
          stroke-width="1.3333333333333333" stroke-linecap="round"
  /><line x1="202.34919526209828" y1="103.19364826615761"
          x2="203.03483537909727" y2="104.01076233881784" stroke="red"
          stroke-width="1.3333333333333333" stroke-linecap="round"/></svg>