<?xml version='1.0' encoding='UTF-8' ?>
<!-- MADE BY SVG.HS -->
<!DOCTYPE svg PUBLIC "-//W3C//DTD SVG 1.1//EN" "http://www.w3.org/Graphics/SVG/1.1/DTD/svg11.dtd">
<svg xmlns="http://www.w3.org/2000/svg" version="1.1"
     xmlns:xlink="http://www.w3.org/1999/xlink" width="330.0"
     height="135.0"
  ><rect x="0.0" y="0.0" width="330.0" height="135.0"
         stroke-width="0.0" fill="rgb(255,255,255)"
         stroke="rgb(255,255,255)"
  /><polyline points="59.99999999999998,13.999999999999986 69.99999999999997,31.32050807568876 79.99999999999999,13.999999999999993 89.99999999999999,31.320508075688767 100.0,14.0 100.0,38.0 60.0,38.0 60.0,14.0 "
              fill="rgb(207,207,0)" stroke="rgb(207,207,0)" stroke-width="0.0"
  /><polyline points="76.25287808082587,53.20373334128613 76.25287808082587,47.20373334128613 70.25287808082587,47.20373334128613 66.39615242270663,51.8 61.2,54.8 "
              fill="black" stroke="black" stroke-width="0.0"
  /><polyline points="82.14712191917414,53.20373334128613 82.14712191917414,47.20373334128613 88.14712191917414,47.20373334128613 92.00384757729337,51.8 97.2,54.8 "
              fill="black" stroke="black" stroke-width="0.0"
  /><polyline points="169.86358394504646,107.89575828009194 169.86358394504646,105.89575828009194 170.21088030038032,103.92614277406753 170.89492058703166,102.04675753249572 171.89492058703166,100.31470672492684 173.18049580640474,98.78261783868888 174.7125846926427,97.4970426193158 176.44463550021158,96.4970426193158 178.3240207417834,95.81300233266447 180.2936362478078,95.46570597733061 182.2936362478078,95.46570597733061 184.2632517538322,95.81300233266448 186.14263699540402,96.49704261931582 187.8746878029729,97.49704261931582 189.40677668921083,98.7826178386889 190.6923519085839,100.31470672492686 191.6923519085839,102.04675753249575 192.37639219523524,103.92614277406756 192.7236885505691,105.89575828009197 192.7236885505691,107.89575828009197 204.0,112.0 160.0,112.0 "
              fill="black" stroke="black" stroke-width="0.0"
  /><polyline points="178.84230246466072,121.9229866730289 178.84230246466072,117.1229866730289 174.0423024646607,117.1229866730289 170.95692193816532,120.8 166.8,123.2 "
              fill="black" stroke="black" stroke-width="0.0"
  /><polyline points="183.55769753533932,121.9229866730289 183.55769753533932,117.1229866730289 188.35769753533933,117.1229866730289 191.4430780618347,120.8 195.60000000000002,123.2 "
              fill="black" stroke="black" stroke-width="0.0"
  /><polyline points="269.8635839450464,37.89575828009195 269.8635839450464,35.89575828009195 270.21088030038027,33.92614277406753 270.8949205870316,32.04675753249571 271.8949205870316,30.314706724926836 273.1804958064047,28.782617838688882 274.7125846926426,27.497042619315806 276.4446355002115,26.49704261931581 278.32402074178333,25.813002332664475 280.29363624780774,25.465705977330618 282.29363624780774,25.46570597733062 284.26325175383215,25.813002332664485 286.14263699540396,26.497042619315824 287.87468780297286,27.497042619315824 289.4067766892108,28.782617838688903 290.6923519085839,30.31470672492686 291.6923519085839,32.04675753249574 292.3763921952352,33.92614277406756 292.7236885505691,35.895758280091975 292.7236885505691,37.895758280091975 304.0,42.0 260.0,42.0 "
              fill="brown" stroke="brown" stroke-width="0.0"
  /><line x1="135.0" y1="39.999999999999986" x2="235.0" y2="40.0"
          stroke="black" stroke-width="4.0" stroke-linecap="round"
  /><line x1="135.0" y1="39.999999999999986" x2="141.9282032302755"
          y2="35.999999999999986" stroke="black" stroke-width="4.0"
          stroke-linecap="round"
  /><line x1="141.9282032302755" y1="43.999999999999986" x2="135.0"
          y2="39.999999999999986" stroke="black" stroke-width="4.0"
          stroke-linecap="round"
  /><polyline points="170.0,66.0 170.0,78.0 202.0,78.0 202.0,66.0 170.0,66.0 "
              fill="brown" stroke="brown" stroke-width="0.0"
  /><polyline points="176.0,57.07179676972449 198.0,57.07179676972449 202.0,64.0 170.0,64.0 "
              fill="brown" stroke="brown" stroke-width="0.0"
  /><polyline points="9.999999999999998,66.0 10.0,78.0 42.0,78.0 42.0,66.0 10.0,66.0 "
              fill="brown" stroke="brown" stroke-width="0.0"
  /><polyline points="11.732050807568877,55.0 30.784609690826525,44.0 37.712812921102035,48.0 10.0,64.0 "
              fill="brown" stroke="brown" stroke-width="0.0"
  /><polyline points="310.0,49.0 314.0,49.0 314.0,45.0 318.0,45.0 318.0,41.0 314.0,41.0 314.0,33.0 316.8284271247462,30.17157287525381 316.8284271247462,26.17157287525381 314.0,23.343145750507617 310.0,23.343145750507617 307.1715728752538,26.17157287525381 307.1715728752538,30.17157287525381 310.0,33.0 "
              fill="gray" stroke="gray" stroke-width="0.0"
  /><polyline points="210.0,124.0 214.0,124.0 214.0,120.0 218.0,120.0 218.0,116.0 214.0,116.0 214.0,108.0 216.82842712474618,105.17157287525382 216.82842712474618,101.17157287525382 214.0,98.34314575050763 210.0,98.34314575050763 207.17157287525382,101.17157287525382 207.17157287525382,105.17157287525382 210.0,108.0 "
              fill="gray" stroke="gray" stroke-width="0.0"
  /><polyline points="40.0,59.0 44.0,59.0 44.0,55.0 48.0,55.0 48.0,47.0 44.0,47.0 44.0,43.0 46.82842712474619,40.17157287525381 46.82842712474619,36.17157287525381 44.0,33.34314575050762 40.0,33.34314575050762 37.17157287525381,36.17157287525381 37.17157287525381,40.17157287525381 40.0,43.0 "
              fill="gray" stroke="gray" stroke-width="0.0"/></svg>