<?xml version='1.0' encoding='UTF-8' ?>
<!-- MADE BY SVG.HS -->
<!DOCTYPE svg PUBLIC "-//W3C//DTD SVG 1.1//EN" "http://www.w3.org/Graphics/SVG/1.1/DTD/svg11.dtd">
<svg xmlns="http://www.w3.org/2000/svg" version="1.1"
     xmlns:xlink="http://www.w3.org/1999/xlink" width="150.0"
     height="105.0"
  ><rect x="0.0" y="0.0" width="150.0" height="105.0"
         stroke-width="0.0" fill="rgb(255,255,255)"
         stroke="rgb(255,255,255)"
  /><polyline points="19.99999999999999,37.000000000000014 20.0,97.00000000000001 100.0,97.0 100.0,37.0 20.0,37.0 "
              fill="rgb(0,0,0)" stroke="rgb(0,0,0)" stroke-width="0.0"
  /><polyline points="31.999999999999993,5.000000000000007 32.00000000000001,37.00000000000001 48.00000000000001,37.0 48.0,4.9999999999999964 32.0,5.0 "
              fill="rgb(0,0,0)" stroke="rgb(0,0,0)" stroke-width="0.0"
  /><polyline points="88.0284271247462,39.8284271247462 88.0284271247462,19.828427124746195 90.8284271247462,19.828427124746195 116.28427124746192,45.2842712474619 127.59797974644667,33.97056274847714 99.31370849898477,5.68629150101524 83.31370849898477,5.68629150101524 72.0,17.0 72.0,37.0 "
              fill="rgb(0,0,0)" stroke="rgb(0,0,0)" stroke-width="0.0"
  /><polyline points="39.99999999999997,45.0 39.312474488430766,45.121229297615045 38.65644528085442,45.36000440198208 38.05184549277635,45.70907025238095 37.51704558281505,46.15782065958312 37.06829517561288,46.69262056954443 36.719229325214016,47.29722035762251 36.48045422084699,47.95324956519885 36.35922492323195,48.64077507676806 36.35922492323195,49.33890677756579 36.480454220846994,50.026432289134995 36.71922932521403,50.68246149671134 37.068295175612896,51.28706128478941 37.51704558281507,51.82186119475071 38.05184549277638,52.27061160195288 38.656445280854456,52.619677452351745 39.3124744884308,52.858452556718774 40.00000000000001,52.97968185433381 40.69813170079774,52.97968185433381 41.385657212366944,52.85845255671877 42.04168641994329,52.61967745235173 42.64628620802136,52.270611601952865 43.18108611798266,51.821861194750696 43.62983652518483,51.287061284789395 43.978902375583694,50.68246149671132 44.21767747995073,50.02643228913497 44.33890677756577,49.33890677756577 44.33890677756577,48.64077507676804 44.21767747995073,47.95324956519883 43.978902375583694,47.297220357622486 43.62983652518483,46.69262056954441 43.18108611798266,46.15782065958311 42.64628620802136,45.70907025238094 42.04168641994328,45.360004401982074 41.38565721236694,45.12122929761504 40.69813170079773,45.0 40.0,45.0 "
              fill="red" stroke="red" stroke-width="0.0"
  /><polyline points="76.0,47.0 76.0,54.5 86.0,54.5 86.0,47.0 76.0,47.0 "
              fill="red" stroke="red" stroke-width="0.0"
  /><polyline points="77.5,43.0 77.5,47.0 79.5,47.0 79.5,43.0 77.5,43.0 "
              fill="red" stroke="red" stroke-width="0.0"
  /><polyline points="84.50355339059328,47.35355339059328 84.50355339059328,44.85355339059328 84.85355339059328,44.85355339059328 88.03553390593274,48.03553390593274 89.44974746830583,46.621320343559645 85.91421356237309,43.08578643762691 83.91421356237309,43.08578643762691 82.5,44.5 82.5,47.0 "
              fill="red" stroke="red" stroke-width="0.0"/></svg>