<?xml version='1.0' encoding='UTF-8' ?>
<!-- MADE BY SVG.HS -->
<!DOCTYPE svg PUBLIC "-//W3C//DTD SVG 1.1//EN" "http://www.w3.org/Graphics/SVG/1.1/DTD/svg11.dtd">
<svg xmlns="http://www.w3.org/2000/svg" version="1.1"
     xmlns:xlink="http://www.w3.org/1999/xlink" width="200.0"
     height="175.0"
  ><rect x="0.0" y="0.0" width="200.0" height="175.0"
         stroke-width="0.0" fill="rgb(255,255,255)"
         stroke="rgb(255,255,255)"
  /><polyline points="38.99999999999992,4.999999999999992 36.2498979537231,5.484917190460168 33.625781123417724,6.440017607928311 31.20738197110544,7.836281009523785 29.068182331260235,9.631282638332483 27.273180702451555,11.770482278177703 25.8769173008561,14.188881430489998 24.921816883387976,16.81299826079538 24.43689969292782,19.5631003070722 24.436899692927827,22.35562711026313 24.921816883387997,25.105729156539947 25.876917300856135,27.729845986845323 27.273180702451604,30.14824513915761 29.0681823312603,32.28744477900282 31.207381971105516,34.0824464078115 33.62578112341781,35.478709809406965 36.249897953723185,36.433810226875096 39.00000000000001,36.918727417335255 41.79252680319093,36.91872741733525 44.542628849467754,36.43381022687508 47.16674567977313,35.47870980940694 49.58514483208542,34.082446407811474 51.72434447193063,32.28744477900278 53.51934610073932,30.148245139157567 54.91560950233478,27.729845986845277 55.87070991980291,25.1057291565399 56.35562711026308,22.35562711026308 56.35562711026308,19.56310030707215 55.87070991980291,16.81299826079533 54.91560950233478,14.188881430489952 53.51934610073932,11.770482278177662 51.72434447193063,9.631282638332449 49.58514483208541,7.83628100952376 47.16674567977312,6.440017607928296 44.54262884946775,5.4849171904601635 41.792526803190924,5.0 39.0,5.0 "
              fill="rgb(0,0,0)" stroke="rgb(0,0,0)" stroke-width="0.0"
  /><polyline points="19.99999999999999,107.0 20.0,167.0 100.0,167.0 100.0,107.0 20.0,107.0 "
              fill="rgb(0,0,0)" stroke="rgb(0,0,0)" stroke-width="0.0"
  /><polyline points="31.999999999999993,75.0 32.00000000000001,107.0 48.00000000000001,107.0 48.0,75.0 32.0,75.0 "
              fill="rgb(0,0,0)" stroke="rgb(0,0,0)" stroke-width="0.0"
  /><polyline points="88.0284271247462,109.8284271247462 88.0284271247462,89.8284271247462 90.8284271247462,89.8284271247462 116.28427124746192,115.2842712474619 127.59797974644667,103.97056274847714 99.31370849898477,75.68629150101523 83.31370849898477,75.68629150101523 72.0,87.0 72.0,107.0 "
              fill="rgb(0,0,0)" stroke="rgb(0,0,0)" stroke-width="0.0"
  /><line x1="147.79898987322332" y1="134.79898987322332" x2="128.0"
          y2="115.0" stroke="rgb(0,0,0)" stroke-width="4.0"
          stroke-linecap="round"
  /><line x1="147.79898987322332" y1="134.79898987322332"
          x2="140.07158326291076" y2="132.72843751240316" stroke="rgb(0,0,0)"
          stroke-width="4.0" stroke-linecap="round"
  /><line x1="145.72843751240316" y1="127.07158326291078"
          x2="147.79898987322332" y2="134.79898987322332" stroke="rgb(0,0,0)"
          stroke-width="4.0" stroke-linecap="round"
  /><line x1="40.0" y1="71.0" x2="40.0" y2="43.0" stroke="rgb(0,0,0)"
          stroke-width="4.0" stroke-linecap="round"
  /><line x1="40.0" y1="71.0" x2="36.0" y2="64.07179676972449"
          stroke="rgb(0,0,0)" stroke-width="4.0" stroke-linecap="round"
  /><line x1="44.0" y1="64.07179676972449" x2="40.0" y2="71.0"
          stroke="rgb(0,0,0)" stroke-width="4.0" stroke-linecap="round"
  /><polyline points="39.99999999999997,115.00000000000001 39.312474488430766,115.12122929761506 38.65644528085442,115.3600044019821 38.05184549277635,115.70907025238097 37.51704558281505,116.15782065958314 37.06829517561288,116.69262056954445 36.719229325214016,117.29722035762252 36.48045422084699,117.95324956519886 36.35922492323195,118.64077507676807 36.35922492323195,119.3389067775658 36.480454220846994,120.026432289135 36.71922932521403,120.68246149671134 37.068295175612896,121.28706128478942 37.51704558281507,121.82186119475072 38.05184549277638,122.2706116019529 38.656445280854456,122.61967745235175 39.3124744884308,122.85845255671879 40.00000000000001,122.97968185433383 40.69813170079774,122.97968185433383 41.385657212366944,122.85845255671879 42.04168641994329,122.61967745235175 42.64628620802136,122.27061160195288 43.18108611798266,121.82186119475071 43.62983652518483,121.2870612847894 43.978902375583694,120.68246149671133 44.21767747995073,120.02643228913499 44.33890677756577,119.33890677756578 44.33890677756577,118.64077507676805 44.21767747995073,117.95324956519885 43.978902375583694,117.2972203576225 43.62983652518483,116.69262056954443 43.18108611798266,116.15782065958312 42.64628620802136,115.70907025238095 42.04168641994328,115.36000440198208 41.38565721236694,115.12122929761505 40.69813170079773,115.0 40.0,115.0 "
              fill="red" stroke="red" stroke-width="0.0"
  /><polyline points="80.0,115.0 76.0,121.92820323027551 84.0,121.92820323027551 80.0,115.0 "
              fill="red" stroke="red" stroke-width="0.0"
  /><polyline points="166.0,140.0 150.0,167.71281292110203 182.0,167.71281292110203 166.0,140.0 "
              fill="black" stroke="black" stroke-width="0.0"/></svg>