<?xml version='1.0' encoding='UTF-8' ?>
<!-- MADE BY SVG.HS -->
<!DOCTYPE svg PUBLIC "-//W3C//DTD SVG 1.1//EN" "http://www.w3.org/Graphics/SVG/1.1/DTD/svg11.dtd">
<svg xmlns="http://www.w3.org/2000/svg" version="1.1"
     xmlns:xlink="http://www.w3.org/1999/xlink" width="350.0"
     height="180.0"
  ><rect x="0.0" y="0.0" width="350.0" height="180.0"
         stroke-width="0.0" fill="rgb(255,255,255)"
         stroke="rgb(255,255,255)"
  /><line x1="110.0" y1="10.0" x2="30.0" y2="10.0" stroke="red"
          stroke-width="1.0" stroke-linecap="round"
  /><line x1="110.0" y1="60.0" x2="110.0" y2="10.0" stroke="red"
          stroke-width="1.0" stroke-linecap="round"
  /><line x1="30.0" y1="60.00000000000001" x2="110.0" y2="60.0"
          stroke="red" stroke-width="1.0" stroke-linecap="round"
  /><line x1="29.99999999999999" y1="10.000000000000007" x2="30.0"
          y2="60.00000000000001" stroke="red" stroke-width="1.0"
          stroke-linecap="round"
  /><polyline points="29.99999999999999,10.000000000000007 30.0,60.00000000000001 110.0,60.0 110.0,10.0 30.0,10.0 "
              fill="red" stroke="red" stroke-width="0.0"
  /><text x="55.0" y="45.0" font-family="KochiGothic"
          font-weight="normal" font-size="25.0" fill="black"
  >A1</text
  ><line x1="210.0" y1="10.0" x2="130.0" y2="10.0"
         stroke="rgb(63,63,255)" stroke-width="1.0" stroke-linecap="round"
  /><line x1="210.0" y1="60.0" x2="210.0" y2="10.0"
          stroke="rgb(63,63,255)" stroke-width="1.0" stroke-linecap="round"
  /><line x1="130.0" y1="60.00000000000001" x2="210.0" y2="60.0"
          stroke="rgb(63,63,255)" stroke-width="1.0" stroke-linecap="round"
  /><line x1="130.0" y1="10.000000000000007" x2="130.0"
          y2="60.00000000000001" stroke="rgb(63,63,255)" stroke-width="1.0"
          stroke-linecap="round"
  /><polyline points="130.0,10.000000000000007 130.0,60.00000000000001 210.0,60.0 210.0,10.0 130.0,10.0 "
              fill="rgb(63,63,255)" stroke="rgb(63,63,255)" stroke-width="0.0"
  /><text x="161.0" y="45.0" font-family="KochiGothic"
          font-weight="normal" font-size="25.0" fill="black"
  >B</text
  ><line x1="310.0" y1="10.0" x2="230.0" y2="10.0" stroke="red"
         stroke-width="1.0" stroke-linecap="round"
  /><line x1="310.0" y1="60.0" x2="310.0" y2="10.0" stroke="red"
          stroke-width="1.0" stroke-linecap="round"
  /><line x1="230.0" y1="60.00000000000001" x2="310.0" y2="60.0"
          stroke="red" stroke-width="1.0" stroke-linecap="round"
  /><line x1="230.0" y1="10.000000000000007" x2="230.0"
          y2="60.00000000000001" stroke="red" stroke-width="1.0"
          stroke-linecap="round"
  /><polyline points="230.0,10.000000000000007 230.0,60.00000000000001 310.0,60.0 310.0,10.0 230.0,10.0 "
              fill="red" stroke="red" stroke-width="0.0"
  /><text x="255.0" y="45.0" font-family="KochiGothic"
          font-weight="normal" font-size="25.0" fill="black"
  >A2</text
  ><line x1="200.0" y1="130.0" x2="140.0" y2="130.0" stroke="yellow"
         stroke-width="1.0" stroke-linecap="round"
  /><line x1="200.0" y1="170.0" x2="200.0" y2="130.0" stroke="yellow"
          stroke-width="1.0" stroke-linecap="round"
  /><line x1="140.0" y1="170.0" x2="200.0" y2="170.0" stroke="yellow"
          stroke-width="1.0" stroke-linecap="round"
  /><line x1="140.0" y1="130.0" x2="140.0" y2="170.0" stroke="yellow"
          stroke-width="1.0" stroke-linecap="round"
  /><polyline points="140.0,130.0 140.0,170.0 200.0,170.0 200.0,130.0 140.0,130.0 "
              fill="yellow" stroke="yellow" stroke-width="0.0"
  /><line x1="133.03300858899107" y1="123.03300858899107" x2="80.0"
          y2="70.0" stroke="red" stroke-width="3.0" stroke-linecap="round"
  /><line x1="133.03300858899107" y1="123.03300858899107"
          x2="123.37375032610038" y2="120.44481813796585" stroke="red"
          stroke-width="3.0" stroke-linecap="round"
  /><line x1="130.44481813796585" y1="113.37375032610038"
          x2="133.03300858899107" y2="123.03300858899107" stroke="red"
          stroke-width="3.0" stroke-linecap="round"
  /><text x="90.0" y="115.0" font-family="KochiGothic"
          font-weight="normal" font-size="18.0" fill="red"
  >a</text
  ><line x1="170.0" y1="120.0" x2="170.0" y2="70.0"
         stroke="rgb(63,63,255)" stroke-width="3.0" stroke-linecap="round"
  /><line x1="170.0" y1="120.0" x2="165.0" y2="111.33974596215562"
          stroke="rgb(63,63,255)" stroke-width="3.0" stroke-linecap="round"
  /><line x1="175.0" y1="111.33974596215562" x2="170.0" y2="120.0"
          stroke="rgb(63,63,255)" stroke-width="3.0" stroke-linecap="round"
  /><text x="150.0" y="100.0" font-family="KochiGothic"
          font-weight="normal" font-size="18.0" fill="rgb(63,63,255)"
  >b</text
  ><line x1="258.03300858899104" y1="71.96699141100893" x2="205.0"
         y2="125.0" stroke="red" stroke-width="3.0" stroke-linecap="round"
  /><line x1="258.03300858899104" y1="71.96699141100893"
          x2="255.44481813796583" y2="81.62624967389962" stroke="red"
          stroke-width="3.0" stroke-linecap="round"
  /><line x1="248.37375032610035" y1="74.55518186203415"
          x2="258.03300858899104" y2="71.96699141100893" stroke="red"
          stroke-width="3.0" stroke-linecap="round"
  /><text x="250.0" y="110.0" font-family="KochiGothic"
          font-weight="normal" font-size="18.0" fill="rgb(63,63,255)"
  >b</text
  ><text x="150.0" y="159.0" font-family="KochiGothic"
         font-weight="normal" font-size="25.0" fill="red"
  >a</text
  ><text x="164.0" y="159.0" font-family="KochiGothic"
         font-weight="normal" font-size="25.0" fill="black"
  >/</text
  ><text x="178.0" y="159.0" font-family="KochiGothic"
         font-weight="normal" font-size="25.0" fill="rgb(63,63,255)"
  >b</text></svg>