<?xml version='1.0' encoding='UTF-8' ?>
<!-- MADE BY SVG.HS -->
<!DOCTYPE svg PUBLIC "-//W3C//DTD SVG 1.1//EN" "http://www.w3.org/Graphics/SVG/1.1/DTD/svg11.dtd">
<svg xmlns="http://www.w3.org/2000/svg" version="1.1"
     xmlns:xlink="http://www.w3.org/1999/xlink" width="480.0"
     height="115.0"
  ><rect x="0.0" y="0.0" width="480.0" height="115.0"
         stroke-width="0.0" fill="rgb(255,255,255)"
         stroke="rgb(255,255,255)"
  /><line x1="470.0" y1="10.0" x2="10.0" y2="10.0"
          stroke="rgb(0,0,0)" stroke-width="5.0" stroke-linecap="round"
  /><line x1="470.0" y1="110.0" x2="470.0" y2="10.0"
          stroke="rgb(0,0,0)" stroke-width="5.0" stroke-linecap="round"
  /><line x1="10.0" y1="110.00000000000006" x2="470.0" y2="110.0"
          stroke="rgb(0,0,0)" stroke-width="5.0" stroke-linecap="round"
  /><line x1="9.999999999999982" y1="10.000000000000057" x2="10.0"
          y2="110.00000000000006" stroke="rgb(0,0,0)" stroke-width="5.0"
          stroke-linecap="round"
  /><line x1="80.0" y1="45.0" x2="30.0" y2="45.0" stroke="rgb(0,0,0)"
          stroke-width="5.0" stroke-linecap="round"
  /><line x1="40.0" y1="55.0" x2="40.0" y2="30.0" stroke="rgb(0,0,0)"
          stroke-width="5.0" stroke-linecap="round"
  /><line x1="65.0" y1="70.0" x2="65.0" y2="30.0" stroke="rgb(0,0,0)"
          stroke-width="5.0" stroke-linecap="round"
  /><line x1="52.50000000000001" y1="91.65063509461096" x2="65.0"
          y2="70.0" stroke="rgb(0,0,0)" stroke-width="5.0"
          stroke-linecap="round"
  /><line x1="87.07106781186548" y1="37.071067811865476" x2="80.0"
          y2="30.0" stroke="rgb(0,0,0)" stroke-width="5.0"
          stroke-linecap="round"
  /><line x1="97.07106781186548" y1="27.071067811865476" x2="90.0"
          y2="20.0" stroke="rgb(0,0,0)" stroke-width="5.0"
          stroke-linecap="round"
  /><polyline points="107.07106781186543,47.07106781186546 106.25191576757643,46.49749137551442 105.34560798053978,46.07487311377373 104.37968215425072,45.816054068671214 103.38348745615897,45.72889832592356 102.38729275806723,45.81605406867122 101.42136693177817,46.07487311377375 100.51505914474151,46.49749137551445 99.69590710045253,47.0710678118655 98.98880031926599,47.77817459305205 98.41522388291494,48.59732663734104 97.99260562117425,49.503634424377694 97.73378657607174,50.46956025066676 97.64663083332408,51.46575494875851 97.73378657607174,52.46194964685025 97.99260562117426,53.427875473139316 98.41522388291496,54.33418326017596 98.988800319266,55.15333530446495 99.69590710045256,55.8604420856515 100.51505914474156,56.434018522002546 101.42136693177821,56.85663678374324 102.38729275806728,57.11545582884576 103.38348745615902,57.202611571593415 104.37968215425076,57.115455828845754 105.34560798053982,56.856636783743234 106.25191576757648,56.43401852200253 107.07106781186548,55.860442085651485 107.77817459305203,55.15333530446494 108.35175102940308,54.33418326017595 108.77436929114377,53.427875473139295 109.0331883362463,52.46194964685023 109.12034407899395,51.46575494875848 109.0331883362463,50.46956025066673 108.77436929114377,49.503634424377665 108.35175102940308,48.59732663734101 107.77817459305203,47.77817459305202 107.07106781186548,47.071067811865476 "
              fill="rgb(0,0,0)" stroke="rgb(0,0,0)" stroke-width="0.0"
  /><line x1="130.0" y1="23.0" x2="130.0" y2="93.0"
          stroke="rgb(0,0,0)" stroke-width="5.0" stroke-linecap="round"
  /><line x1="150.0" y1="23.0" x2="130.0" y2="23.0"
          stroke="rgb(0,0,0)" stroke-width="5.0" stroke-linecap="round"
  /><line x1="150.0" y1="48.0" x2="150.0" y2="23.0"
          stroke="rgb(0,0,0)" stroke-width="5.0" stroke-linecap="round"
  /><line x1="130.0" y1="48.0" x2="150.0" y2="48.0"
          stroke="rgb(0,0,0)" stroke-width="5.0" stroke-linecap="round"
  /><line x1="150.0" y1="35.49999999999999" x2="130.0" y2="35.5"
          stroke="rgb(0,0,0)" stroke-width="5.0" stroke-linecap="round"
  /><line x1="185.0" y1="23.0" x2="185.0" y2="93.0"
          stroke="rgb(0,0,0)" stroke-width="5.0" stroke-linecap="round"
  /><line x1="165.0" y1="22.999999999999996" x2="185.0" y2="23.0"
          stroke="rgb(0,0,0)" stroke-width="5.0" stroke-linecap="round"
  /><line x1="165.0" y1="48.0" x2="165.0" y2="22.999999999999996"
          stroke="rgb(0,0,0)" stroke-width="5.0" stroke-linecap="round"
  /><line x1="185.0" y1="48.00000000000001" x2="165.0" y2="48.0"
          stroke="rgb(0,0,0)" stroke-width="5.0" stroke-linecap="round"
  /><line x1="165.0" y1="35.5" x2="185.0" y2="35.50000000000001"
          stroke="rgb(0,0,0)" stroke-width="5.0" stroke-linecap="round"
  /><line x1="149.3033008588991" y1="60.80330085889911" x2="144.0"
          y2="55.5" stroke="rgb(0,0,0)" stroke-width="5.0"
          stroke-linecap="round"
  /><line x1="165.6966991411009" y1="60.80330085889911" x2="171.0"
          y2="55.5" stroke="rgb(0,0,0)" stroke-width="5.0"
          stroke-linecap="round"
  /><line x1="169.0" y1="65.5" x2="146.0" y2="65.5"
          stroke="rgb(0,0,0)" stroke-width="5.0" stroke-linecap="round"
  /><line x1="171.0" y1="73.0" x2="144.0" y2="73.0"
          stroke="rgb(0,0,0)" stroke-width="5.0" stroke-linecap="round"
  /><line x1="157.5" y1="75.5" x2="157.5" y2="65.5"
          stroke="rgb(0,0,0)" stroke-width="5.0" stroke-linecap="round"
  /><line x1="146.25121683048556" y1="88.90577775458212" x2="157.5"
          y2="75.5" stroke="rgb(0,0,0)" stroke-width="5.0"
          stroke-linecap="round"
  /><line x1="168.74878316951444" y1="88.90577775458212" x2="157.5"
          y2="75.5" stroke="rgb(0,0,0)" stroke-width="5.0"
          stroke-linecap="round"
  /><line x1="205.3033008588991" y1="33.30330085889911" x2="200.0"
          y2="28.0" stroke="red" stroke-width="5.0" stroke-linecap="round"
  /><line x1="219.6966991411009" y1="33.30330085889911" x2="225.0"
          y2="28.0" stroke="red" stroke-width="5.0" stroke-linecap="round"
  /><line x1="225.0" y1="40.5" x2="200.0" y2="40.5" stroke="red"
          stroke-width="5.0" stroke-linecap="round"
  /><line x1="212.5" y1="58.0" x2="212.5" y2="28.0" stroke="red"
          stroke-width="5.0" stroke-linecap="round"
  /><line x1="200.41989303375493" y1="56.062123666477305" x2="207.5"
          y2="47.0" stroke="red" stroke-width="5.0" stroke-linecap="round"
  /><line x1="224.58010696624507" y1="56.062123666477305" x2="217.5"
          y2="47.0" stroke="red" stroke-width="5.0" stroke-linecap="round"
  /><line x1="202.1595971334866" y1="81.79385241571816" x2="209.0"
          y2="63.0" stroke="black" stroke-width="5.0" stroke-linecap="round"
  /><line x1="215.1499781902532" y1="89.29385241571816"
          x2="202.1595971334866" y2="81.79385241571816" stroke="black"
          stroke-width="5.0" stroke-linecap="round"
  /><line x1="209.43454345648252" y1="90.65769467591625" x2="220.0"
          y2="68.0" stroke="black" stroke-width="5.0" stroke-linecap="round"
  /><line x1="225.0" y1="68.0" x2="200.0" y2="68.0" stroke="black"
          stroke-width="5.0" stroke-linecap="round"
  /><line x1="227.8607961385711" y1="49.13796438998292" x2="236.0"
          y2="25.5" stroke="black" stroke-width="5.0" stroke-linecap="round"
  /><line x1="254.0" y1="34.5" x2="234.0" y2="34.5" stroke="black"
          stroke-width="5.0" stroke-linecap="round"
  /><line x1="242.2905546699921" y1="64.04423259036624" x2="247.5"
          y2="34.5" stroke="black" stroke-width="5.0" stroke-linecap="round"
  /><line x1="227.2905546699921" y1="90.0249947038994"
          x2="242.2905546699921" y2="64.04423259036624" stroke="black"
          stroke-width="5.0" stroke-linecap="round"
  /><line x1="234.61467228242975" y1="65.88584094275237" x2="232.0"
          y2="36.0" stroke="black" stroke-width="5.0" stroke-linecap="round"
  /><line x1="247.11467228242975" y1="87.53647603736333"
          x2="234.61467228242975" y2="65.88584094275237" stroke="black"
          stroke-width="5.0" stroke-linecap="round"
  /><line x1="289.0" y1="28.0" x2="268.0" y2="28.0" stroke="black"
          stroke-width="5.0" stroke-linecap="round"
  /><line x1="289.0" y1="44.0" x2="263.0" y2="44.0" stroke="black"
          stroke-width="5.0" stroke-linecap="round"
  /><line x1="271.25688514504685" y1="50.423893961834914" x2="273.0"
          y2="30.5" stroke="black" stroke-width="5.0" stroke-linecap="round"
  /><line x1="262.80451991023284" y1="68.55004970256792"
          x2="271.25688514504685" y2="50.423893961834914" stroke="black"
          stroke-width="5.0" stroke-linecap="round"
  /><line x1="283.0" y1="60.5" x2="283.0" y2="30.5" stroke="black"
          stroke-width="5.0" stroke-linecap="round"
  /><line x1="295.5" y1="53.0" x2="295.5" y2="28.0" stroke="black"
          stroke-width="5.0" stroke-linecap="round"
  /><line x1="308.0" y1="66.5" x2="308.0" y2="26.5" stroke="black"
          stroke-width="5.0" stroke-linecap="round"
  /><line x1="298.0" y1="73.0" x2="273.0" y2="73.0" stroke="black"
          stroke-width="5.0" stroke-linecap="round"
  /><line x1="288.0" y1="88.0" x2="288.0" y2="63.0" stroke="black"
          stroke-width="5.0" stroke-linecap="round"
  /><line x1="313.0" y1="90.5" x2="263.0" y2="90.5" stroke="black"
          stroke-width="5.0" stroke-linecap="round"
  /><line x1="345.0" y1="35.5" x2="345.0" y2="25.5" stroke="black"
          stroke-width="5.0" stroke-linecap="round"
  /><line x1="370.0" y1="35.5" x2="320.0" y2="35.5" stroke="black"
          stroke-width="5.0" stroke-linecap="round"
  /><line x1="355.0" y1="45.5" x2="335.0" y2="45.5" stroke="black"
          stroke-width="5.0" stroke-linecap="round"
  /><line x1="355.0" y1="58.0" x2="335.0" y2="58.0" stroke="black"
          stroke-width="5.0" stroke-linecap="round"
  /><line x1="360.0" y1="70.5" x2="330.0" y2="70.5" stroke="black"
          stroke-width="5.0" stroke-linecap="round"
  /><line x1="360.0" y1="90.5" x2="360.0" y2="70.5" stroke="black"
          stroke-width="5.0" stroke-linecap="round"
  /><line x1="330.0" y1="90.5" x2="360.0" y2="90.5" stroke="black"
          stroke-width="5.0" stroke-linecap="round"
  /><line x1="330.0" y1="70.5" x2="330.0" y2="90.5" stroke="black"
          stroke-width="5.0" stroke-linecap="round"
  /><line x1="395.0" y1="35.5" x2="395.0" y2="25.5" stroke="black"
          stroke-width="5.0" stroke-linecap="round"
  /><line x1="406.0" y1="35.5" x2="380.0" y2="35.5" stroke="black"
          stroke-width="5.0" stroke-linecap="round"
  /><line x1="404.0" y1="48.0" x2="386.0" y2="48.0" stroke="black"
          stroke-width="5.0" stroke-linecap="round"
  /><line x1="404.0" y1="60.5" x2="386.0" y2="60.5" stroke="black"
          stroke-width="5.0" stroke-linecap="round"
  /><line x1="403.0" y1="73.0" x2="383.0" y2="73.0" stroke="black"
          stroke-width="5.0" stroke-linecap="round"
  /><line x1="403.0" y1="90.5" x2="403.0" y2="73.0" stroke="black"
          stroke-width="5.0" stroke-linecap="round"
  /><line x1="383.0" y1="90.5" x2="403.0" y2="90.5" stroke="black"
          stroke-width="5.0" stroke-linecap="round"
  /><line x1="383.0" y1="73.0" x2="383.0" y2="90.5" stroke="black"
          stroke-width="5.0" stroke-linecap="round"
  /><line x1="440.0" y1="30.5" x2="415.0" y2="30.5" stroke="black"
          stroke-width="5.0" stroke-linecap="round"
  /><line x1="419.86969785011496" y1="44.59538931178862" x2="425.0"
          y2="30.5" stroke="black" stroke-width="5.0" stroke-linecap="round"
  /><line x1="417.264975185111" y1="59.36750560697174"
          x2="419.86969785011496" y2="44.59538931178862" stroke="black"
          stroke-width="5.0" stroke-linecap="round"
  /><line x1="435.0" y1="43.0" x2="415.0" y2="43.0" stroke="black"
          stroke-width="5.0" stroke-linecap="round"
  /><line x1="435.0" y1="63.0" x2="435.0" y2="43.0" stroke="black"
          stroke-width="5.0" stroke-linecap="round"
  /><line x1="442.5" y1="63.0" x2="412.5" y2="63.0" stroke="black"
          stroke-width="5.0" stroke-linecap="round"
  /><line x1="437.5" y1="70.5" x2="412.5" y2="70.5" stroke="black"
          stroke-width="5.0" stroke-linecap="round"
  /><line x1="437.5" y1="90.5" x2="437.5" y2="70.5" stroke="black"
          stroke-width="5.0" stroke-linecap="round"
  /><line x1="412.5" y1="90.5" x2="437.5" y2="90.5" stroke="black"
          stroke-width="5.0" stroke-linecap="round"
  /><line x1="412.5" y1="70.5" x2="412.5" y2="90.5" stroke="black"
          stroke-width="5.0" stroke-linecap="round"/></svg>