<?xml version='1.0' encoding='UTF-8' ?>
<!-- MADE BY SVG.HS -->
<!DOCTYPE svg PUBLIC "-//W3C//DTD SVG 1.1//EN" "http://www.w3.org/Graphics/SVG/1.1/DTD/svg11.dtd">
<svg xmlns="http://www.w3.org/2000/svg" version="1.1"
     xmlns:xlink="http://www.w3.org/1999/xlink" width="480.0"
     height="190.0"
  ><rect x="0.0" y="0.0" width="480.0" height="190.0"
         stroke-width="0.0" fill="rgb(255,255,255)"
         stroke="rgb(255,255,255)"
  /><polyline points="28.99999999999991,9.999999999999995 26.249897953723092,10.48491719046017 23.62578112341772,11.440017607928313 21.207381971105434,12.836281009523786 19.06818233126023,14.631282638332483 17.273180702451548,16.770482278177703 15.876917300856093,19.188881430489996 14.921816883387969,21.812998260795375 14.436899692927813,24.563100307072197 14.43689969292782,27.355627110263125 14.92181688338799,30.105729156539944 15.876917300856128,32.72984598684532 17.273180702451597,35.14824513915761 19.068182331260292,37.28744477900282 21.20738197110551,39.0824464078115 23.625781123417802,40.478709809406965 26.24989795372318,41.433810226875096 29.000000000000004,41.918727417335255 31.79252680319093,41.91872741733525 34.542628849467754,41.43381022687508 37.16674567977313,40.47870980940694 39.58514483208542,39.082446407811474 41.72434447193063,37.28744477900278 43.51934610073932,35.14824513915757 44.91560950233478,32.72984598684528 45.87070991980291,30.1057291565399 46.35562711026308,27.35562711026308 46.35562711026308,24.56310030707215 45.87070991980291,21.81299826079533 44.91560950233478,19.188881430489953 43.51934610073932,16.770482278177663 41.72434447193063,14.631282638332449 39.58514483208541,12.83628100952376 37.16674567977312,11.440017607928295 34.54262884946775,10.484917190460163 31.792526803190928,10.0 29.0,10.0 "
              fill="black" stroke="black" stroke-width="0.0"
  /><polyline points="9.99999999999999,112.0 10.0,172.0 90.0,172.0 90.0,112.0 10.0,112.0 "
              fill="black" stroke="black" stroke-width="0.0"
  /><polyline points="21.999999999999993,80.0 22.000000000000007,112.0 38.00000000000001,112.0 38.0,80.0 22.0,80.0 "
              fill="black" stroke="black" stroke-width="0.0"
  /><polyline points="78.0284271247462,114.8284271247462 78.0284271247462,94.8284271247462 80.8284271247462,94.8284271247462 106.28427124746192,120.2842712474619 117.59797974644667,108.97056274847714 89.31370849898477,80.68629150101523 73.31370849898477,80.68629150101523 62.0,92.0 62.0,112.0 "
              fill="black" stroke="black" stroke-width="0.0"
  /><line x1="137.79898987322332" y1="139.79898987322332" x2="118.0"
          y2="120.0" stroke="black" stroke-width="4.0" stroke-linecap="round"
  /><line x1="137.79898987322332" y1="139.79898987322332"
          x2="130.07158326291076" y2="137.72843751240316" stroke="black"
          stroke-width="4.0" stroke-linecap="round"
  /><line x1="135.72843751240316" y1="132.07158326291076"
          x2="137.79898987322332" y2="139.79898987322332" stroke="black"
          stroke-width="4.0" stroke-linecap="round"
  /><line x1="30.0" y1="76.0" x2="30.0" y2="48.0" stroke="black"
          stroke-width="4.0" stroke-linecap="round"
  /><line x1="30.0" y1="76.0" x2="26.0" y2="69.07179676972449"
          stroke="black" stroke-width="4.0" stroke-linecap="round"
  /><line x1="34.0" y1="69.07179676972449" x2="30.0" y2="76.0"
          stroke="black" stroke-width="4.0" stroke-linecap="round"
  /><polyline points="29.999999999999982,120.00000000000001 29.312474488430777,120.12122929761506 28.656445280854435,120.3600044019821 28.051845492776362,120.70907025238097 27.51704558281506,121.15782065958314 27.068295175612892,121.69262056954445 26.719229325214027,122.29722035762252 26.480454220846998,122.95324956519886 26.35922492323196,123.64077507676807 26.359224923231963,124.3389067775658 26.480454220847005,125.026432289135 26.71922932521404,125.68246149671134 27.068295175612906,126.28706128478942 27.51704558281508,126.82186119475072 28.051845492776383,127.2706116019529 28.656445280854456,127.61967745235175 29.3124744884308,127.85845255671879 30.000000000000007,127.97968185433383 30.698131700797738,127.97968185433383 31.385657212366944,127.85845255671879 32.04168641994329,127.61967745235175 32.64628620802136,127.27061160195288 33.18108611798266,126.82186119475071 33.62983652518483,126.2870612847894 33.978902375583694,125.68246149671133 34.21767747995073,125.02643228913499 34.33890677756577,124.33890677756578 34.33890677756577,123.64077507676805 34.21767747995073,122.95324956519885 33.978902375583694,122.2972203576225 33.62983652518483,121.69262056954443 33.18108611798266,121.15782065958312 32.64628620802136,120.70907025238095 32.04168641994328,120.36000440198208 31.385657212366937,120.12122929761505 30.69813170079773,120.0 30.0,120.0 "
              fill="red" stroke="red" stroke-width="0.0"
  /><polyline points="66.0,122.0 66.0,129.5 76.0,129.5 76.0,122.0 66.0,122.0 "
              fill="red" stroke="red" stroke-width="0.0"
  /><polyline points="67.5,118.0 67.5,122.0 69.5,122.0 69.5,118.0 67.5,118.0 "
              fill="red" stroke="red" stroke-width="0.0"
  /><polyline points="74.50355339059328,122.35355339059328 74.50355339059328,119.85355339059328 74.85355339059328,119.85355339059328 78.03553390593274,123.03553390593274 79.44974746830583,121.62132034355965 75.91421356237309,118.08578643762691 73.91421356237309,118.08578643762691 72.5,119.5 72.5,122.0 "
              fill="red" stroke="red" stroke-width="0.0"
  /><polyline points="176.0,12.000000000000007 160.0,39.71281292110204 192.0,39.712812921102035 176.0,12.0 "
              fill="black" stroke="black" stroke-width="0.0"
  /><polyline points="155.0,112.0 155.0,172.0 235.0,172.0 235.0,112.0 155.0,112.0 "
              fill="black" stroke="black" stroke-width="0.0"
  /><polyline points="167.0,80.0 167.0,112.0 183.0,112.0 183.0,80.0 167.0,80.0 "
              fill="black" stroke="black" stroke-width="0.0"
  /><polyline points="223.02842712474614,114.8284271247462 223.02842712474614,94.8284271247462 225.82842712474616,94.8284271247462 251.28427124746187,120.2842712474619 262.59797974644664,108.97056274847714 234.31370849898477,80.68629150101523 218.31370849898477,80.68629150101523 207.0,92.0 207.0,112.0 "
              fill="black" stroke="black" stroke-width="0.0"
  /><line x1="282.7989898732233" y1="139.79898987322332" x2="263.0"
          y2="120.0" stroke="black" stroke-width="4.0" stroke-linecap="round"
  /><line x1="282.7989898732233" y1="139.79898987322332"
          x2="275.0715832629108" y2="137.72843751240316" stroke="black"
          stroke-width="4.0" stroke-linecap="round"
  /><line x1="280.72843751240316" y1="132.07158326291076"
          x2="282.7989898732233" y2="139.79898987322332" stroke="black"
          stroke-width="4.0" stroke-linecap="round"
  /><line x1="175.0" y1="76.0" x2="175.0" y2="48.0" stroke="black"
          stroke-width="4.0" stroke-linecap="round"
  /><line x1="175.0" y1="76.0" x2="171.0" y2="69.07179676972449"
          stroke="black" stroke-width="4.0" stroke-linecap="round"
  /><line x1="179.0" y1="69.07179676972449" x2="175.0" y2="76.0"
          stroke="black" stroke-width="4.0" stroke-linecap="round"
  /><polyline points="175.0,120.0 171.0,126.92820323027551 179.0,126.92820323027551 175.0,120.0 "
              fill="red" stroke="red" stroke-width="0.0"
  /><polyline points="211.0,122.0 211.0,129.5 221.0,129.5 221.0,122.0 211.0,122.0 "
              fill="red" stroke="red" stroke-width="0.0"
  /><polyline points="212.5,118.0 212.5,122.0 214.5,122.0 214.5,118.0 212.5,118.0 "
              fill="red" stroke="red" stroke-width="0.0"
  /><polyline points="219.50355339059328,122.35355339059328 219.50355339059328,119.85355339059328 219.85355339059328,119.85355339059328 223.03553390593274,123.03553390593274 224.44974746830584,121.62132034355965 220.9142135623731,118.08578643762691 218.9142135623731,118.08578643762691 217.5,119.5 217.5,122.0 "
              fill="red" stroke="red" stroke-width="0.0"
  /><polyline points="306.0,13.0 306.0,41.0 334.0,41.0 334.0,13.0 306.0,13.0 "
              fill="black" stroke="black" stroke-width="0.0"
  /><polyline points="300.0,112.0 300.0,172.0 380.0,172.0 380.0,112.0 300.0,112.0 "
              fill="black" stroke="black" stroke-width="0.0"
  /><polyline points="312.0,80.0 312.0,112.0 328.0,112.0 328.0,80.0 312.0,80.0 "
              fill="black" stroke="black" stroke-width="0.0"
  /><polyline points="368.0284271247462,114.8284271247462 368.0284271247462,94.8284271247462 370.8284271247462,94.8284271247462 396.2842712474619,120.2842712474619 407.59797974644664,108.97056274847714 379.31370849898474,80.68629150101523 363.31370849898474,80.68629150101523 352.0,92.0 352.0,112.0 "
              fill="black" stroke="black" stroke-width="0.0"
  /><line x1="427.7989898732233" y1="139.79898987322332" x2="408.0"
          y2="120.0" stroke="black" stroke-width="4.0" stroke-linecap="round"
  /><line x1="427.7989898732233" y1="139.79898987322332"
          x2="420.0715832629108" y2="137.72843751240316" stroke="black"
          stroke-width="4.0" stroke-linecap="round"
  /><line x1="425.72843751240316" y1="132.07158326291076"
          x2="427.7989898732233" y2="139.79898987322332" stroke="black"
          stroke-width="4.0" stroke-linecap="round"
  /><line x1="320.0" y1="76.0" x2="320.0" y2="48.0" stroke="black"
          stroke-width="4.0" stroke-linecap="round"
  /><line x1="320.0" y1="76.0" x2="316.0" y2="69.07179676972449"
          stroke="black" stroke-width="4.0" stroke-linecap="round"
  /><line x1="324.0" y1="69.07179676972449" x2="320.0" y2="76.0"
          stroke="black" stroke-width="4.0" stroke-linecap="round"
  /><polyline points="316.5,120.5 316.5,127.5 323.5,127.5 323.5,120.5 316.5,120.5 "
              fill="red" stroke="red" stroke-width="0.0"
  /><polyline points="358.6666666666667,120.99999999999999 358.20831632562056,121.08081953174334 357.77096352056964,121.2400029346547 357.36789699518425,121.47271350158728 357.0113637218767,121.77188043972207 356.71219678374194,122.1284137130296 356.4794862168094,122.53148023841499 356.320302813898,122.96883304346588 356.23948328215465,123.42718338451202 356.23948328215465,123.89260451837717 356.320302813898,124.35095485942331 356.4794862168094,124.7883076644742 356.71219678374194,125.19137418985959 357.0113637218767,125.54790746316712 357.36789699518425,125.8470744013019 357.77096352056964,126.07978496823448 358.20831632562056,126.23896837114583 358.6666666666667,126.31978790288919 359.13208780053185,126.31978790288919 359.590438141578,126.23896837114583 360.0277909466289,126.07978496823448 360.4308574720143,125.8470744013019 360.78739074532183,125.54790746316712 361.0865576834566,125.19137418985959 361.31926825038914,124.7883076644742 361.4784516533005,124.35095485942331 361.5592711850439,123.89260451837717 361.5592711850439,123.42718338451202 361.4784516533005,122.96883304346588 361.31926825038914,122.53148023841499 361.0865576834566,122.1284137130296 360.78739074532183,121.77188043972207 360.4308574720143,121.4727135015873 360.0277909466289,121.24000293465471 359.590438141578,121.08081953174336 359.13208780053185,121.0 358.6666666666667,121.0 "
              fill="red" stroke="red" stroke-width="0.0"
  /><polyline points="363.33333333333337,120.99999999999996 362.87498299228724,121.08081953174332 362.4376301872363,121.24000293465468 362.03456366185094,121.47271350158726 361.6780303885434,121.77188043972205 361.37886345040863,122.12841371302959 361.1461528834761,122.53148023841497 360.9869694805647,122.96883304346586 360.90614994882134,123.427183384512 360.90614994882134,123.89260451837715 360.9869694805647,124.3509548594233 361.1461528834761,124.78830766447419 361.37886345040863,125.19137418985957 361.6780303885434,125.5479074631671 362.03456366185094,125.84707440130188 362.4376301872363,126.07978496823445 362.87498299228724,126.2389683711458 363.33333333333337,126.31978790288916 363.79875446719853,126.31978790288916 364.25710480824466,126.2389683711458 364.6944576132956,126.07978496823445 365.09752413868097,125.84707440130187 365.4540574119885,125.54790746316708 365.7532243501233,125.19137418985954 365.98593491705583,124.78830766447416 366.1451183199672,124.35095485942327 366.22593785171057,123.89260451837713 366.22593785171057,123.42718338451198 366.1451183199672,122.96883304346584 365.98593491705583,122.53148023841494 365.7532243501233,122.12841371302956 365.4540574119885,121.77188043972203 365.09752413868097,121.47271350158725 364.6944576132956,121.24000293465467 364.25710480824466,121.08081953174332 363.79875446719853,120.99999999999996 363.33333333333337,120.99999999999996 "
              fill="red" stroke="red" stroke-width="0.0"
  /><polyline points="440.66666666666663,153.99999999999994 438.83326530248206,154.3232781269734 437.0838540822785,154.96001173861885 435.47158798073696,155.89085400634917 434.0454548875068,157.0875217588883 432.8487871349677,158.51365485211844 431.9179448672374,160.12592095365997 431.281211255592,161.87533217386357 430.95793312861855,163.7087335380481 430.95793312861855,165.57041807350873 431.281211255592,167.40381943769327 431.9179448672374,169.15323065789684 432.8487871349677,170.76549675943838 434.0454548875069,172.1916298526685 435.471587980737,173.38829760520764 437.08385408227855,174.31913987293794 438.8332653024821,174.95587348458335 440.6666666666667,175.27915161155678 442.5283512021273,175.27915161155678 444.36175256631185,174.95587348458335 446.1111637865154,174.31913987293794 447.72342988805696,173.38829760520764 449.1495629812871,172.1916298526685 450.3462307338262,170.76549675943838 451.2770730015565,169.15323065789684 451.9138066132019,167.40381943769324 452.23708474017536,165.5704180735087 452.23708474017536,163.70873353804808 451.9138066132019,161.87533217386354 451.2770730015565,160.12592095365994 450.3462307338262,158.5136548521184 449.1495629812871,157.08752175888827 447.72342988805696,155.89085400634914 446.1111637865154,154.96001173861885 444.36175256631185,154.32327812697343 442.5283512021273,154.0 440.6666666666667,154.0 "
              fill="black" stroke="black" stroke-width="0.0"
  /><polyline points="459.33333333333326,153.99999999999986 457.4999319691487,154.32327812697332 455.7505207489451,154.96001173861876 454.1382546474036,155.8908540063491 452.71212155417345,157.08752175888822 451.51545380163435,158.51365485211838 450.5846115339041,160.12592095365991 449.94787792225867,161.8753321738635 449.62459979528523,163.70873353804805 449.62459979528523,165.57041807350868 449.94787792225867,167.40381943769322 450.5846115339041,169.15323065789678 451.5154538016344,170.7654967594383 452.71212155417356,172.19162985266843 454.1382546474037,173.38829760520755 455.75052074894523,174.31913987293785 457.4999319691488,174.95587348458326 459.33333333333337,175.2791516115567 461.19501786879397,175.2791516115567 463.02841923297854,174.95587348458324 464.7778304531821,174.3191398729378 466.39009655472364,173.38829760520747 467.8162296479538,172.19162985266834 469.0128974004929,170.76549675943818 469.9437396682232,169.15323065789664 470.5804732798686,167.40381943769304 470.90375140684205,165.5704180735085 470.90375140684205,163.70873353804788 470.5804732798686,161.87533217386334 469.9437396682232,160.12592095365977 469.0128974004929,158.51365485211826 467.8162296479537,157.08752175888813 466.3900965547236,155.890854006349 464.77783045318205,154.9600117386187 463.0284192329785,154.3232781269733 461.1950178687939,153.99999999999986 459.3333333333333,153.99999999999986 "
              fill="black" stroke="black" stroke-width="0.0"/></svg>