<?xml version='1.0' encoding='UTF-8' ?>
<!-- MADE BY SVG.HS -->
<!DOCTYPE svg PUBLIC "-//W3C//DTD SVG 1.1//EN" "http://www.w3.org/Graphics/SVG/1.1/DTD/svg11.dtd">
<svg xmlns="http://www.w3.org/2000/svg" version="1.1"
     xmlns:xlink="http://www.w3.org/1999/xlink" width="230.0"
     height="135.0"
  ><rect x="0.0" y="0.0" width="230.0" height="135.0"
         stroke-width="0.0" fill="rgb(255,255,255)"
         stroke="rgb(255,255,255)"
  /><polyline points="70.0,47.00000000000001 102.0,47.0 102.0,31.0 86.0,31.0 86.0,15.0 70.0,15.0 "
              fill="black" stroke="black" stroke-width="0.0"
  /><polyline points="90.0,27.00000000000001 106.0,27.000000000000007 106.0,43.00000000000001 138.0,43.0 138.0,27.0 122.0,27.0 122.0,11.0 90.0,11.0 "
              fill="black" stroke="black" stroke-width="0.0"
  /><polyline points="126.0,7.0000000000000036 126.0,23.000000000000004 142.0,23.0 142.0,7.0 126.0,7.0 "
              fill="black" stroke="black" stroke-width="0.0"
  /><line x1="47.37258300203048" y1="82.62741699796952" x2="70.0"
          y2="60.0" stroke="black" stroke-width="4.0" stroke-linecap="round"
  /><line x1="47.37258300203048" y1="82.62741699796952"
          x2="49.44313536285065" y2="74.90001038765698" stroke="black"
          stroke-width="4.0" stroke-linecap="round"
  /><line x1="55.09998961234303" y1="80.55686463714935"
          x2="47.37258300203048" y2="82.62741699796952" stroke="black"
          stroke-width="4.0" stroke-linecap="round"
  /><polyline points="15.0,122.0 47.0,122.0 47.0,106.0 31.0,106.0 31.0,90.0 15.0,90.0 "
              fill="black" stroke="black" stroke-width="0.0"
  /><line x1="115.0" y1="84.0" x2="115.0" y2="60.0" stroke="black"
          stroke-width="4.0" stroke-linecap="round"
  /><line x1="115.0" y1="84.0" x2="111.0" y2="77.07179676972449"
          stroke="black" stroke-width="4.0" stroke-linecap="round"
  /><line x1="119.0" y1="77.07179676972449" x2="115.0" y2="84.0"
          stroke="black" stroke-width="4.0" stroke-linecap="round"
  /><polyline points="90.0,106.0 106.0,106.0 106.0,122.0 138.0,122.0 138.0,106.0 122.0,106.0 122.0,90.0 90.0,90.0 "
              fill="black" stroke="black" stroke-width="0.0"
  /><line x1="182.62741699796953" y1="82.62741699796952" x2="160.0"
          y2="60.0" stroke="black" stroke-width="4.0" stroke-linecap="round"
  /><line x1="182.62741699796953" y1="82.62741699796952"
          x2="174.90001038765698" y2="80.55686463714936" stroke="black"
          stroke-width="4.0" stroke-linecap="round"
  /><line x1="180.55686463714937" y1="74.90001038765698"
          x2="182.62741699796953" y2="82.62741699796952" stroke="black"
          stroke-width="4.0" stroke-linecap="round"
  /><polyline points="190.0,90.0 190.0,106.0 206.0,106.0 206.0,90.0 190.0,90.0 "
              fill="black" stroke="black" stroke-width="0.0"/></svg>