<?xml version='1.0' encoding='UTF-8' ?>
<!-- MADE BY SVG.HS -->
<!DOCTYPE svg PUBLIC "-//W3C//DTD SVG 1.1//EN" "http://www.w3.org/Graphics/SVG/1.1/DTD/svg11.dtd">
<svg xmlns="http://www.w3.org/2000/svg" version="1.1"
     xmlns:xlink="http://www.w3.org/1999/xlink" width="230.0"
     height="135.0"
  ><rect x="0.0" y="0.0" width="230.0" height="135.0"
         stroke-width="0.0" fill="rgb(255,255,255)"
         stroke="rgb(255,255,255)"
  /><polyline points="75.0,47.00000000000001 107.0,47.0 107.0,31.0 91.0,31.0 91.0,15.0 75.0,15.0 "
              fill="black" stroke="black" stroke-width="0.0"
  /><polyline points="95.0,27.00000000000001 111.0,27.000000000000007 111.0,43.00000000000001 143.0,43.0 143.0,27.0 127.0,27.0 127.0,11.0 95.0,11.0 "
              fill="black" stroke="black" stroke-width="0.0"
  /><polyline points="131.0,7.0000000000000036 131.0,23.000000000000004 147.0,23.0 147.0,7.0 131.0,7.0 "
              fill="black" stroke="black" stroke-width="0.0"
  /><line x1="52.37258300203048" y1="82.62741699796952" x2="75.0"
          y2="60.0" stroke="black" stroke-width="4.0" stroke-linecap="round"
  /><line x1="52.37258300203048" y1="82.62741699796952"
          x2="54.44313536285065" y2="74.90001038765698" stroke="black"
          stroke-width="4.0" stroke-linecap="round"
  /><line x1="60.09998961234303" y1="80.55686463714935"
          x2="52.37258300203048" y2="82.62741699796952" stroke="black"
          stroke-width="4.0" stroke-linecap="round"
  /><polyline points="20.0,122.0 52.0,122.0 52.0,106.0 36.0,106.0 36.0,90.0 20.0,90.0 "
              fill="black" stroke="black" stroke-width="0.0"
  /><line x1="120.0" y1="84.0" x2="120.0" y2="60.0" stroke="black"
          stroke-width="4.0" stroke-linecap="round"
  /><line x1="120.0" y1="84.0" x2="116.0" y2="77.07179676972449"
          stroke="black" stroke-width="4.0" stroke-linecap="round"
  /><line x1="124.0" y1="77.07179676972449" x2="120.0" y2="84.0"
          stroke="black" stroke-width="4.0" stroke-linecap="round"
  /><polyline points="95.0,106.0 111.0,106.0 111.0,122.0 143.0,122.0 143.0,106.0 127.0,106.0 127.0,90.0 95.0,90.0 "
              fill="black" stroke="black" stroke-width="0.0"
  /><line x1="187.62741699796953" y1="82.62741699796952" x2="165.0"
          y2="60.0" stroke="black" stroke-width="4.0" stroke-linecap="round"
  /><line x1="187.62741699796953" y1="82.62741699796952"
          x2="179.90001038765698" y2="80.55686463714936" stroke="black"
          stroke-width="4.0" stroke-linecap="round"
  /><line x1="185.55686463714937" y1="74.90001038765698"
          x2="187.62741699796953" y2="82.62741699796952" stroke="black"
          stroke-width="4.0" stroke-linecap="round"
  /><polyline points="195.0,90.0 195.0,106.0 211.0,106.0 211.0,90.0 195.0,90.0 "
              fill="black" stroke="black" stroke-width="0.0"/></svg>