<?xml version='1.0' encoding='UTF-8' ?>
<!-- MADE BY SVG.HS -->
<!DOCTYPE svg PUBLIC "-//W3C//DTD SVG 1.1//EN" "http://www.w3.org/Graphics/SVG/1.1/DTD/svg11.dtd">
<svg xmlns="http://www.w3.org/2000/svg" version="1.1"
     xmlns:xlink="http://www.w3.org/1999/xlink" width="150.0"
     height="45.0"
  ><rect x="0.0" y="0.0" width="150.0" height="45.0"
         stroke-width="0.0" fill="rgb(255,255,255)"
         stroke="rgb(255,255,255)"
  /><polyline points="19.999999999999993,5.000000000000007 20.0,37.00000000000001 52.0,37.0 52.0,5.0 20.0,5.0 "
              fill="black" stroke="black" stroke-width="0.0"
  /><polyline points="35.199999999999925,9.000000000000009 33.13742346529231,9.363687892845146 31.169335842563278,10.08001320594626 29.355536478329068,11.127210757142871 27.751136748445166,12.473461978749398 26.404885526838658,14.077861708633318 25.357687975642072,15.891661072867542 24.641362662540985,17.85974869559658 24.277674769695874,19.922325230304196 24.277674769695885,22.016720332697393 24.64136266254102,24.079296867405006 25.35768797564213,26.047384490134036 26.404885526838736,27.86118385436825 27.751136748445262,29.465583584252155 29.355536478329178,30.811834805858663 31.1693358425634,31.859032357055252 33.137423465292436,32.57535767015634 35.20000000000005,32.93904556300146 37.294395102393246,32.93904556300145 39.35697163710086,32.57535767015632 41.32505925982989,31.859032357055213 43.138858624064106,30.81183480585861 44.743258353948015,29.465583584252087 46.08950957555453,27.86118385436817 47.13670712675112,26.04738449013395 47.853032439852214,24.079296867404917 48.216720332697335,22.0167203326973 48.21672033269733,19.922325230304104 47.8530324398522,17.859748695596487 47.1367071267511,15.891661072867455 46.089509575554494,14.07786170863324 44.74325835394797,12.47346197874933 43.13885862406406,11.127210757142816 41.32505925982984,10.08001320594622 39.35697163710081,9.363687892845121 37.294395102393196,9.0 35.2,9.0 "
              fill="white" stroke="white" stroke-width="0.0"
  /><polyline points="59.99999999999999,5.000000000000007 60.0,37.00000000000001 92.0,37.0 92.0,5.0 60.0,5.0 "
              fill="black" stroke="black" stroke-width="0.0"
  /><polyline points="76.0,9.000000000000002 64.0,29.784609690826528 88.0,29.784609690826525 76.0,9.0 "
              fill="white" stroke="white" stroke-width="0.0"
  /><polyline points="100.0,5.000000000000007 100.0,37.00000000000001 132.0,37.0 132.0,5.0 100.0,5.0 "
              fill="black" stroke="black" stroke-width="0.0"
  /><polyline points="106.4,11.400000000000002 106.4,31.400000000000002 126.4,31.4 126.4,11.4 106.4,11.4 "
              fill="white" stroke="white" stroke-width="0.0"/></svg>