<?xml version='1.0' encoding='UTF-8' ?>
<!-- MADE BY SVG.HS -->
<!DOCTYPE svg PUBLIC "-//W3C//DTD SVG 1.1//EN" "http://www.w3.org/Graphics/SVG/1.1/DTD/svg11.dtd">
<svg xmlns="http://www.w3.org/2000/svg" version="1.1"
     xmlns:xlink="http://www.w3.org/1999/xlink" width="250.0"
     height="190.0"
  ><rect x="0.0" y="0.0" width="250.0" height="190.0"
         stroke-width="0.0" fill="rgb(255,255,255)"
         stroke="rgb(255,255,255)"
  /><polyline points="69.99999999999999,5.000000000000014 70.0,45.000000000000014 190.0,45.0 190.0,5.0 70.0,5.0 "
              fill="black" stroke="black" stroke-width="0.0"
  /><polyline points="169.6,136.92963748204878 169.6,129.32963748204878 167.50715457972976,128.12133261528348 165.6559241221714,126.56796582112212 164.10255732801002,124.71673536356376 162.89425246124472,122.6238899432935 162.06772325382036,120.3530196093754 161.6480833774606,117.97312360778969 161.6480833774606,115.55651387425908 162.06772325382036,113.17661787267338 162.89425246124472,110.90574753875526 164.10255732801002,108.81290211848501 165.6559241221714,106.96167166092665 167.50715457972976,105.40830486676529 169.6,104.19999999999999 169.6,96.6 145.6,96.6 145.6,136.6 "
              fill="black" stroke="black" stroke-width="0.0"
  /><polyline points="26.0,181.0 66.0,181.0 66.0,161.0 46.0,161.0 46.0,141.0 26.0,141.0 "
              fill="black" stroke="black" stroke-width="0.0"
  /><polyline points="26.0,16.999999999999993 70.0,17.0 70.0,29.0 38.00000000000001,29.0 38.0,141.0 26.0,141.0 "
              fill="black" stroke="black" stroke-width="0.0"
  /><polyline points="166.0,97.0 135.8,44.6920656114199 119.80000000000001,44.6920656114199 150.0,97.0 "
              fill="black" stroke="black" stroke-width="0.0"
  /><polyline points="195.35898384862244,81.8 183.35898384862244,102.58460969082653 193.7512886940357,108.58460969082653 207.60769515458674,100.58460969082653 207.60769515458674,116.58460969082653 218.0,122.58460969082653 230.0,101.8 "
              fill="black" stroke="black" stroke-width="0.0"
  /><polyline points="194.0,85.14359353944897 170.8,44.960014803851024 154.8,44.960014803851024 186.0,99.0 "
              fill="black" stroke="black" stroke-width="0.0"
  /><polyline points="49.99999999999999,125.0 50.0,157.0 130.0,157.0 130.0,125.0 50.0,125.0 "
              fill="black" stroke="black" stroke-width="0.0"
  /><polyline points="79.12963748204879,125.0 79.12963748204879,117.0 91.12963748204879,117.0 91.12963748204879,97.0 83.12963748204879,97.0 81.92133261528349,99.09284542027025 80.36796582112213,100.94407587782861 78.51673536356377,102.49744267198997 76.42388994329352,103.70574753875528 74.1530196093754,104.53227674617962 71.7731236077897,104.95191662253937 69.3565138742591,104.95191662253937 66.97661787267339,104.53227674617962 64.70574753875528,103.70574753875528 62.612902118485025,102.49744267198997 60.761671660926666,100.94407587782861 59.2083048667653,99.09284542027025 58.0,97.0 50.0,97.0 50.0,117.0 62.0,117.0 62.0,125.0 "
              fill="black" stroke="black" stroke-width="0.0"
  /><polyline points="122.0,125.0 122.0,117.0 134.0,117.0 134.0,97.0 122.0,97.0 114.0,110.85640646055101 106.0,97.0 94.0,97.0 94.0,117.0 106.0,117.0 106.0,125.0 "
              fill="black" stroke="black" stroke-width="0.0"
  /><polyline points="175.99999999999997,105.0 173.93742346529237,105.36368789284514 171.96933584256334,106.08001320594624 170.15553647832914,107.12721075714285 168.55113674844523,108.47346197874937 167.20488552683872,110.07786170863328 166.15768797564212,111.8916610728675 165.44136266254102,113.85974869559654 165.0776747696959,115.92232523030415 165.0776747696959,118.01672033269735 165.44136266254102,120.07929686740496 166.15768797564212,122.047384490134 167.20488552683872,123.8611838543682 168.55113674844523,125.46558358425212 170.15553647832914,126.81183480585862 171.96933584256337,127.85903235705521 173.9374234652924,128.5753576701563 176.0,128.93904556300143 178.0943951023932,128.93904556300143 180.1569716371008,128.5753576701563 182.12505925982984,127.8590323570552 183.93885862406407,126.8118348058586 185.54325835394798,125.46558358425207 186.88950957555448,123.86118385436816 187.9367071267511,122.04738449013395 188.65303243985218,120.07929686740492 189.0167203326973,118.0167203326973 189.0167203326973,115.92232523030411 188.65303243985218,113.8597486955965 187.9367071267511,111.89166107286746 186.88950957555448,110.07786170863325 185.54325835394798,108.47346197874934 183.93885862406407,107.12721075714282 182.12505925982984,106.08001320594622 180.1569716371008,105.36368789284512 178.0943951023932,105.0 176.0,105.0 "
              fill="black" stroke="black" stroke-width="0.0"
  /><polyline points="184.0,117.0 204.78460969082653,129.0 204.78460969082653,105.0 184.0,117.0 "
              fill="black" stroke="black" stroke-width="0.0"/></svg>