<?xml version='1.0' encoding='UTF-8' ?>
<!-- MADE BY SVG.HS -->
<!DOCTYPE svg PUBLIC "-//W3C//DTD SVG 1.1//EN" "http://www.w3.org/Graphics/SVG/1.1/DTD/svg11.dtd">
<svg xmlns="http://www.w3.org/2000/svg" version="1.1"
     xmlns:xlink="http://www.w3.org/1999/xlink" width="450.0"
     height="70.0"
  ><rect x="0.0" y="0.0" width="450.0" height="70.0"
         stroke-width="0.0" fill="rgb(255,255,255)"
         stroke="rgb(255,255,255)"
  /><line x1="20.000000000000004" y1="60.0" x2="20.0" y2="20.0"
          stroke="gray" stroke-width="5.0" stroke-linecap="round"
  /><line x1="60.0" y1="60.0" x2="20.000000000000004" y2="60.0"
          stroke="gray" stroke-width="5.0" stroke-linecap="round"
  /><line x1="60.0" y1="20.0" x2="60.0" y2="60.0" stroke="gray"
          stroke-width="5.0" stroke-linecap="round"
  /><line x1="20.0" y1="19.999999999999996" x2="60.0" y2="20.0"
          stroke="gray" stroke-width="5.0" stroke-linecap="round"
  /><line x1="26.000000000000007" y1="52.248711305964285" x2="40.0"
          y2="28.0" stroke="gray" stroke-width="5.0" stroke-linecap="round"
  /><line x1="54.00000000000001" y1="52.24871130596428"
          x2="26.000000000000007" y2="52.248711305964285" stroke="gray"
          stroke-width="5.0" stroke-linecap="round"
  /><line x1="40.0" y1="28.0" x2="54.00000000000001"
          y2="52.24871130596428" stroke="gray" stroke-width="5.0"
          stroke-linecap="round"
  /><polyline points="40.0,28.0 54.00000000000001,52.24871130596428 26.000000000000007,52.248711305964285 40.0,28.0 "
              fill="gray" stroke="gray" stroke-width="0.0"
  /><text x="33.0" y="48.0" font-family="KochiGothic"
          font-weight="normal" font-size="30.0" fill="black"
  >l</text
  ><line x1="83.0" y1="38.0" x2="68.0" y2="38.0" stroke="gray"
         stroke-width="5.0" stroke-linecap="round"
  /><line x1="83.0" y1="32.0" x2="83.0" y2="38.0" stroke="gray"
          stroke-width="5.0" stroke-linecap="round"
  /><line x1="92.0" y1="41.0" x2="83.0" y2="32.0" stroke="gray"
          stroke-width="5.0" stroke-linecap="round"
  /><line x1="83.0" y1="50.0" x2="92.0" y2="41.0" stroke="gray"
          stroke-width="5.0" stroke-linecap="round"
  /><line x1="83.0" y1="44.0" x2="83.0" y2="50.0" stroke="gray"
          stroke-width="5.0" stroke-linecap="round"
  /><line x1="68.0" y1="44.0" x2="83.0" y2="44.0" stroke="gray"
          stroke-width="5.0" stroke-linecap="round"
  /><line x1="68.0" y1="38.0" x2="68.0" y2="44.0" stroke="gray"
          stroke-width="5.0" stroke-linecap="round"
  /><polyline points="68.0,38.0 68.0,44.0 83.0,44.0 83.0,50.0 92.0,41.0 83.0,32.0 83.0,38.0 68.0,38.0 "
              fill="gray" stroke="gray" stroke-width="0.0"
  /><line x1="100.0" y1="60.0" x2="100.0" y2="20.0" stroke="gray"
          stroke-width="5.0" stroke-linecap="round"
  /><line x1="140.0" y1="60.0" x2="100.0" y2="60.0" stroke="gray"
          stroke-width="5.0" stroke-linecap="round"
  /><line x1="140.0" y1="20.0" x2="140.0" y2="60.0" stroke="gray"
          stroke-width="5.0" stroke-linecap="round"
  /><line x1="100.0" y1="19.999999999999996" x2="140.0" y2="20.0"
          stroke="gray" stroke-width="5.0" stroke-linecap="round"
  /><line x1="106.0" y1="52.248711305964285" x2="120.0" y2="28.0"
          stroke="gray" stroke-width="5.0" stroke-linecap="round"
  /><line x1="134.0" y1="52.24871130596428" x2="106.0"
          y2="52.248711305964285" stroke="gray" stroke-width="5.0"
          stroke-linecap="round"
  /><line x1="120.0" y1="28.0" x2="134.0" y2="52.24871130596428"
          stroke="gray" stroke-width="5.0" stroke-linecap="round"
  /><polyline points="120.0,28.0 134.0,52.24871130596428 106.0,52.248711305964285 120.0,28.0 "
              fill="gray" stroke="gray" stroke-width="0.0"
  /><text x="113.0" y="48.0" font-family="KochiGothic"
          font-weight="normal" font-size="30.0" fill="black"
  >l'</text
  ><line x1="170.0" y1="60.0" x2="170.0" y2="20.0" stroke="gray"
         stroke-width="5.0" stroke-linecap="round"
  /><line x1="210.0" y1="60.0" x2="170.0" y2="60.0" stroke="gray"
          stroke-width="5.0" stroke-linecap="round"
  /><line x1="210.0" y1="20.0" x2="210.0" y2="60.0" stroke="gray"
          stroke-width="5.0" stroke-linecap="round"
  /><line x1="170.0" y1="19.999999999999996" x2="210.0" y2="20.0"
          stroke="gray" stroke-width="5.0" stroke-linecap="round"
  /><line x1="176.0" y1="52.248711305964285" x2="190.0" y2="28.0"
          stroke="gray" stroke-width="5.0" stroke-linecap="round"
  /><line x1="204.0" y1="52.24871130596428" x2="176.0"
          y2="52.248711305964285" stroke="gray" stroke-width="5.0"
          stroke-linecap="round"
  /><line x1="190.0" y1="28.0" x2="204.0" y2="52.24871130596428"
          stroke="gray" stroke-width="5.0" stroke-linecap="round"
  /><polyline points="190.0,28.0 204.0,52.24871130596428 176.0,52.248711305964285 190.0,28.0 "
              fill="gray" stroke="gray" stroke-width="0.0"
  /><text x="183.0" y="48.0" font-family="KochiGothic"
          font-weight="normal" font-size="30.0" fill="black"
  >o</text
  ><line x1="233.0" y1="38.0" x2="218.0" y2="38.0" stroke="gray"
         stroke-width="5.0" stroke-linecap="round"
  /><line x1="233.0" y1="32.0" x2="233.0" y2="38.0" stroke="gray"
          stroke-width="5.0" stroke-linecap="round"
  /><line x1="242.0" y1="41.0" x2="233.0" y2="32.0" stroke="gray"
          stroke-width="5.0" stroke-linecap="round"
  /><line x1="233.0" y1="50.0" x2="242.0" y2="41.0" stroke="gray"
          stroke-width="5.0" stroke-linecap="round"
  /><line x1="233.0" y1="44.0" x2="233.0" y2="50.0" stroke="gray"
          stroke-width="5.0" stroke-linecap="round"
  /><line x1="218.0" y1="44.0" x2="233.0" y2="44.0" stroke="gray"
          stroke-width="5.0" stroke-linecap="round"
  /><line x1="218.0" y1="38.0" x2="218.0" y2="44.0" stroke="gray"
          stroke-width="5.0" stroke-linecap="round"
  /><polyline points="218.0,38.0 218.0,44.0 233.0,44.0 233.0,50.0 242.0,41.0 233.0,32.0 233.0,38.0 218.0,38.0 "
              fill="gray" stroke="gray" stroke-width="0.0"
  /><line x1="250.0" y1="60.0" x2="250.0" y2="20.0" stroke="gray"
          stroke-width="5.0" stroke-linecap="round"
  /><line x1="290.0" y1="60.0" x2="250.0" y2="60.0" stroke="gray"
          stroke-width="5.0" stroke-linecap="round"
  /><line x1="290.0" y1="20.0" x2="290.0" y2="60.0" stroke="gray"
          stroke-width="5.0" stroke-linecap="round"
  /><line x1="250.0" y1="19.999999999999996" x2="290.0" y2="20.0"
          stroke="gray" stroke-width="5.0" stroke-linecap="round"
  /><line x1="256.0" y1="52.248711305964285" x2="270.0" y2="28.0"
          stroke="gray" stroke-width="5.0" stroke-linecap="round"
  /><line x1="284.0" y1="52.24871130596428" x2="256.0"
          y2="52.248711305964285" stroke="gray" stroke-width="5.0"
          stroke-linecap="round"
  /><line x1="270.0" y1="28.0" x2="284.0" y2="52.24871130596428"
          stroke="gray" stroke-width="5.0" stroke-linecap="round"
  /><polyline points="270.0,28.0 284.0,52.24871130596428 256.0,52.248711305964285 270.0,28.0 "
              fill="gray" stroke="gray" stroke-width="0.0"
  /><text x="263.0" y="48.0" font-family="KochiGothic"
          font-weight="normal" font-size="30.0" fill="black"
  >o'</text
  ><line x1="320.0" y1="60.0" x2="320.0" y2="20.0" stroke="gray"
         stroke-width="5.0" stroke-linecap="round"
  /><line x1="360.0" y1="60.0" x2="320.0" y2="60.0" stroke="gray"
          stroke-width="5.0" stroke-linecap="round"
  /><line x1="360.0" y1="20.0" x2="360.0" y2="60.0" stroke="gray"
          stroke-width="5.0" stroke-linecap="round"
  /><line x1="320.0" y1="19.999999999999996" x2="360.0" y2="20.0"
          stroke="gray" stroke-width="5.0" stroke-linecap="round"
  /><line x1="326.0" y1="52.248711305964285" x2="340.0" y2="28.0"
          stroke="gray" stroke-width="5.0" stroke-linecap="round"
  /><line x1="354.0" y1="52.24871130596428" x2="326.0"
          y2="52.248711305964285" stroke="gray" stroke-width="5.0"
          stroke-linecap="round"
  /><line x1="340.0" y1="28.0" x2="354.0" y2="52.24871130596428"
          stroke="gray" stroke-width="5.0" stroke-linecap="round"
  /><polyline points="340.0,28.0 354.0,52.24871130596428 326.0,52.248711305964285 340.0,28.0 "
              fill="gray" stroke="gray" stroke-width="0.0"
  /><text x="333.0" y="48.0" font-family="KochiGothic"
          font-weight="normal" font-size="30.0" fill="black"
  >r</text
  ><line x1="383.0" y1="38.0" x2="368.0" y2="38.0" stroke="gray"
         stroke-width="5.0" stroke-linecap="round"
  /><line x1="383.0" y1="32.0" x2="383.0" y2="38.0" stroke="gray"
          stroke-width="5.0" stroke-linecap="round"
  /><line x1="392.0" y1="41.0" x2="383.0" y2="32.0" stroke="gray"
          stroke-width="5.0" stroke-linecap="round"
  /><line x1="383.0" y1="50.0" x2="392.0" y2="41.0" stroke="gray"
          stroke-width="5.0" stroke-linecap="round"
  /><line x1="383.0" y1="44.0" x2="383.0" y2="50.0" stroke="gray"
          stroke-width="5.0" stroke-linecap="round"
  /><line x1="368.0" y1="44.0" x2="383.0" y2="44.0" stroke="gray"
          stroke-width="5.0" stroke-linecap="round"
  /><line x1="368.0" y1="38.0" x2="368.0" y2="44.0" stroke="gray"
          stroke-width="5.0" stroke-linecap="round"
  /><polyline points="368.0,38.0 368.0,44.0 383.0,44.0 383.0,50.0 392.0,41.0 383.0,32.0 383.0,38.0 368.0,38.0 "
              fill="gray" stroke="gray" stroke-width="0.0"
  /><line x1="400.0" y1="60.0" x2="400.0" y2="20.0" stroke="gray"
          stroke-width="5.0" stroke-linecap="round"
  /><line x1="440.0" y1="60.0" x2="400.0" y2="60.0" stroke="gray"
          stroke-width="5.0" stroke-linecap="round"
  /><line x1="440.0" y1="20.0" x2="440.0" y2="60.0" stroke="gray"
          stroke-width="5.0" stroke-linecap="round"
  /><line x1="400.0" y1="19.999999999999996" x2="440.0" y2="20.0"
          stroke="gray" stroke-width="5.0" stroke-linecap="round"
  /><line x1="406.0" y1="52.248711305964285" x2="420.0" y2="28.0"
          stroke="gray" stroke-width="5.0" stroke-linecap="round"
  /><line x1="434.0" y1="52.24871130596428" x2="406.0"
          y2="52.248711305964285" stroke="gray" stroke-width="5.0"
          stroke-linecap="round"
  /><line x1="420.0" y1="28.0" x2="434.0" y2="52.24871130596428"
          stroke="gray" stroke-width="5.0" stroke-linecap="round"
  /><polyline points="420.0,28.0 434.0,52.24871130596428 406.0,52.248711305964285 420.0,28.0 "
              fill="gray" stroke="gray" stroke-width="0.0"
  /><text x="413.0" y="48.0" font-family="KochiGothic"
          font-weight="normal" font-size="30.0" fill="black"
  >r'</text></svg>
